<mxfile host="app.diagrams.net" modified="2022-08-29T16:07:35.135Z" agent="5.0 (X11)" etag="vnWPALjw2p8uaUK03h_9" version="20.2.7" type="github">
  <diagram id="zivbMrNpCbp2H42ARYWb" name="Page-1">
    <mxGraphModel dx="1420" dy="711" grid="1" gridSize="10" guides="1" tooltips="1" connect="1" arrows="1" fold="1" page="1" pageScale="1" pageWidth="850" pageHeight="1100" math="0" shadow="0">
      <root>
        <mxCell id="0" />
        <mxCell id="1" parent="0" />
        <mxCell id="7LSftpZktqqejji8TjGq-1" value="" style="shape=image;verticalLabelPosition=bottom;labelBackgroundColor=default;verticalAlign=top;aspect=fixed;imageAspect=0;image=data:image/png,iVBORw0KGgoAAAANSUhEUgAAAggAAAGBCAYAAAADq0nuAAAgAElEQVR4nOydd3wUVff/k0ASIBhqaKF3KaIiRUVQLI8gSlUIIEVUuhRRHv2ijxTFLgoWTAhdCL23FJKQEEoCBAgJgZBGetsku9k2cz+/P/LbCMnO7Mzs7M5uuO/X6/yT7M7cOztzz2fuPfccF1AoFAqFQqFUw0XpBlAoFAqFQnE8qECgUCgUCoVSAyoQKBQKhUKh1IAKBAqFQqFQKDWgAoFCoVAoFEoNqECgUCgUCoVSAyoQKBQKhUKh1IAKBAqFQqFQKDWgAoFCoVAoFEoNqECgUCgUCoVSA4cWCISwUGuLkFFwFTG3tyEoegn8g/0E2GQci12NKykHUFSeAb1Ro3RXKBS7wRKC4nIdEtJKsOXMHSz4IwajV4YKsmUBl7H5zB2kZJehrMKgdFcoFIqCOJxAYAmDtPxYhMSvw6aQqQIFgWULilqC2Lt7UaLOUrqLFIpNuJZShHWHEjBpbbhgQWDJ3vslCv4nbyMlpwyEKN1DCoViTxxGIJRqchEc/zM2h82QTRRw2e6oRYi9uwcsyyjdbQrFKlRqPf44loSp30fKJgr4xMJfxxNhYFilu02hUOyA4gJBZ1Bjf8xy+AdPtrkwqG6BodNx/vZWEPpqRHFCPtl0GWNXhdlcGFS38avD8O2e69AbqVCgUGozigkEnUGNfyIX2l0UcNnNjNNgCZ1RoDg2Wj2DVTuv2l0UcNn2kLsw0hkFCqVWYneBwLIMrqUeQYACMwaW7J/IBchT3QEBnVGgOB6h17IxbrX9Zwws2cS14bicXEBjFCiUWoZdBYLeqBGxE0E5O5+0xZ6XhULhRatnsPTvS4oLAUv23d7rYFiqEiiU2oLdBEJafiwCgqco7vyF2p7opTAwOntdHgrFLKm55bLuSrC1Tf/xHDRao9KXjUKhyIDNBQIhBJfu7FLc4UuxwNBpUGuLaBAjRREiruco7vCl2JhVoUjPK6fPDYXi5NhcIEQnBiru6K2xgOApyFPdsfVlolAe4mB0muKO3lqREHkjl4oECsWJsalAOBH3jU2c9t7oZQiN/w1RiYFVFnFzI07ErcXOyPk2OWdG4TVbXioKpYo/jyXZxGl/+Gs0vtkVj7+OJ1XZH8cS8b/tV/H+umibnPNMHE1MRqE4KzYTCMHxP8vmnM9c+xnZRbeg0anAsiwIIbxmMOpQVpGP21kRCIqSKyhyMnJLkmx1uSgUAMC+KPlmDj7fHIurdwtRVKYFI+C50RsYFJZqcSExH0s3XpStHRcT85W+rBQKRQI2EQhX7x202iFvCnkXeSV3qgYva2BZFjFJO2RYbpiMsgo62FFsw+XbBVY747GrQnEhKb9KSFsDIQRHYtJlEQkp2aUyXSUKhWIvZBcI2cUJVjnhPdEfo0CVKoswqA4hLK6kHMTm0OmS27czch6MjF7WdlEoRWU6qxzwzJ/PIf5ekY2eG4JTsZmY+n2E5Pb5fRuOUg19bigUZ0JWgcCwBgSGTpM8Y5B0Pxwsa/usbAxrRHD8OskiISR+nc3bSHm0mChxK+PYVaHYdy4VRsb2WUCNDIs/jiZKFgkf+18CQ7MuUihOg6wC4Z/IBZIcblDUYmh0KrtGPBNCkJp7WXJuhns5MXZrK6V2839b4iQ53Ilrw5FbrLH7c3MnS4UJa6RldNx1NsVubaVQKNYhm0BIyDwjydGeiFtrl1kDLoyMAZtC3pUw4zGV1m6gWM21lCJJjvaDdVGKPjcGhsWsdVGS2m5k6NZHCsUZkEUgGBm9pKWFc7cCFB3kTBBCsC38Q9HtP3X1O7rPmyIZhmHx3i/ineyqnVfB2GFJwRKEEHwgQSTM+PkcfW4oFCdAFoEQen29aOcanbjFoQYJvUGDnRHzRPejWJ2pdNMpTsqRCxmines3u+PBOlC9A5YQzF1/XnQ/bqaVKN10CoViAasFQrm2QHRlxtD438CyjEMJBABQa4uw9ewsOotAsTk6AyO6MuPivy7AyDjec1OhN+IDkYmW5m6IcSihQ6FQamK1QDh3K0CUQ90RMQeMAw5yQOWUaWFpquhZBJWGZoujiOPohUzxa/dGR35utBi3Slx/4u4UKt10CoXCg1UCwWDUinamRqPjV0iMuPmX6FkECkUMYsVBUbnjPzcnLokTPYs3XqKzCBSKA2OVQLidFSHKkcanHnHIN6DqEEKw9ez7ovpGdzRQhHIjtUSUI/31UILTPDfzf48R1bfMfLXSzaZQKBxYJRA2h80Q7EC3hX/oEDsWhFJYmiZKIKTk0rwIFGHM3SDciU5cGw611uAUAgEASsrFZYTcfOaO0/SNQnnUsEogiHGgaXlxcrXZLhBCcPDCZ4L7tylkqtJNpjgJYoITA04lOZ0D/WrHFcH9G7s6jC4zUCgOimSBEHs3SLDz3Br2PljW+abgc4qTRIkghjUo3WSKgxMWnyPYeU74Ogx6o/M9Nyq1XtQsgkpNazRQKI6IZIGwM1J4zoDLd/Y43VsQUDmLsOvcQsH9zCyMV7rJFAdnbdB1wY5z5c6rTvvcfPz3JcH9PBV7X+kmUygUM0gWCIGCKyJOhkbrvElRzidto7sZKLIhJnNiVpHzBvCdjc8W3M+p30cq3VwKhWIGSQKhsEx4AF9Q1BKnfAsyUVaRL7ivu6MWgSXOE4hJsS9iSzo79XOjMWCMiL4yNA6BQnE4JAmE+LSjgp1mxM2NTj3QAcDmsJmC+rolbKZTxlpQ7MON1GLBDnPJxotO/9x89OcFwf010jLQFIrDIUkghFz/VbBAKChNlbnJ9icoaong/mp0xUo3l+KghF0TPu1+I7VI6eZazV/Hk4QvpxRqlG4uhUKphiSBcPjSl4IdpjPlPuAiKnGz4P5mFFxTurkUB2XT6WQRU+7O/9yIEUQnLtNARQrF0ZAkEPZELxXsMJ19mhQAUnIuCO5vUtZZpZtLcVC+2R0v2GGyteC5uX1fJbi/AaeTlW4uhUKphiSB8M+5BY+UQCirKDDbNxcXF2rUrLIX5/xd6wIUTZRphOdD+H7vDaWbS6FQqiFJIGwL//CREgiEECoQqNnEXpyzsdYKBEKIYIHw6abLSjeXQqFUQ5JA2CIwqr+2CASgZlrpv05OVNy5UHN+6zdqMd76KqRWCgQAGL/m37TS/cd/js6DxpoVCIv/uqh0UykUSjUkCQQxlQ5ry0D3YJ+WfvcSPOvVVdy5UKsd1u7J/+Ct/wXXSoEwdlVlf54auxwuLq5wcXFB2ydeqSEQPtscq3RTKRRKNaTFIEQ+WjEIam3RQ33yad1QcadCrXbZiP8eqnUCobzCgNErQzHIb3WN/vr2Hf5Qf1fuuKp0cykUSjUk7mL4+JESCPcLbzzUpz8lLC80bNgQly5dqhXbPinmKS4uxqJFi0TfG92HvVsrlxjS88oxyG8lZ787DRyNt76qnDlZf+SW0s2lUCjVkCQQDl74PxECwfkd4sU7u2r0a8bHgyS9KXbr1g2nT5+mQqEWoVar8cUXX6BOnTqi74f6jVti1Bcna+U2x3M3czHys0Oo416Ps/+dB4/DW1+F4MiFDKWbS6FQqiFJIJy59pNggVBWkS93m+3OvvOf1ujX32cmofPjzSRPKffs2RNHjx5VumsUK9BoNJg9e7YkYVBprhg2+y+zQXsZ+eVKd89qtgTfweiVoRjx34Oo69GA8zq0f3oE7maXKd1cCoVSDUkC4VrqYcEC4cLtHXK32e5wbetcd2Ac3Oq4WrX23Lp1a5w9e1bpLlJEwLIsZsyYAU9PT6t++44DRpvdwTB6ZSi+2u78a/Kfb46r6s/rn+5HXU9ukTBx4iSlm0uhUKohSSDkq1IEC4R95z916vVUvVHD278Zy6QtNVQ3Dw8PXL58GQxDiz05KmVlZVi8eLEsv7dnw6Z488vTvLkBnPm50RmYqh0MJhv5+RG413+M85rMnj2bLr1RKA6EJIFACEFAyFRBAiEgZCr0xgq52203rqedsNjHLr2kLzVUtxYtWuDAgQNUKDgQxcXF+Pjjj+Hm5ibb7/za0l0WkweVavRKd10yV1OKzPZp5GdHUMezPud1+eijj6hIoFAcBEkCAQC2h88WPIuQkBHstG9D+84vt9i/Xw+Oh6urPI7DZF26dMGePXuU7v4jjWlXgvQYA/PWfdhUQdkF/zh6y2mfm1U7r3L2a+TnR3iXG2bPnq108ykUCqwQCBEJfwoWCHuiljrlQKfS5Aju44JVLwhyDo0aNcKLL74o2Jm0bNkSe/fuVfpSPFLodDpMmjRJVIzBsGHD4OpqOR6laYu2FpcWTDb1+win3M1QoTNizCr+vlmKSfDz81O6GxTKI49kgaDWFgp2nv7BfigsTZOz3TaHEILQ+N9E9HEy+vTpI8iZNG3aFGq1Gn369BHkVFxcXODq6orIyEg6/WpDtFotpk6dKlgU1KtXDzt37sSqVasE/4Yxl7jfrM3ZqdhMpxPXO0LvCOrbyM8Ow70+d9KxWbNmOV3fKZTahGSBAAD+wZMFO9ADMZ871cNeoVOJEkDxqUeQm5uL+vW511cftGbNmkGj0SA/Px8jRowQvL5dv3597N+/H0ajUelLVGvIycnBnDlzBP8GPj4++O2338CyLJYvXy5YUCxfvhyEEEz/6ZxggTDrlygYjM4jCo0Ma3H24EH7ce8V+Pj4cF6zRYsWUVFMoSiEVQIhLmWfKCeaVZQgV7ttjpDYgweNYSoDynbs2CHYYfj4+KCsrHL/9/379/Hee+8J/q6vry/WrVun5CVyegoLCzFjxgxRwuDvv/+uCiBdvny54BmgNm3awGAwAABCr2WLmkU4EJ3mNOJ6JU/sgTm7lV4CnU6HFi1acF67mTNnKt0tCuWRxCqBoNWXiXKi/sGTnWKgu5tzXlS/9p5fBoJ/+/X8888LdvQtW7ZEcXFx1XczMzMxYcIEUd/fuHGjEpfJaVGr1Zg2bZrgGAN3d3ds3boVWq226hgrVqwQLA5cXFyQkpJS9V1CIMqJjlkZigq9488Y3UovwRgR/Zr587+zIyUlJbwzCZMnT1a4dxTKo4dVAgEAjsd9Lc6ZRjt2XgSdQS1q6cQ/2A95Jck1jlO3rvBqjw0aNKiaSTBBCMGzzz4r+Biurq44ceKEvS6T0zJhwgRRjt3cNZ09e7bg77u4uODbb7+tcYx1h2+JEglvr3HsvAg6A4NJa8NFxlfcf/gYOh0aN27MeR1HjRqlUO8olEcTqwVCUXmGyFkEP1y6s9shBzsjY8Cuc4tE9SUoaglYM/Um9u7dK8qJeHl51RAJQGVyngkTJsDd3V3Qcdzc3LB7925UVDhv7gm5yc3NxYIFCwQvJbRq1QqbN282u/a9cOFCUb9rx44dzea0UGuNot62R68MxXd7rjvkc8OwBP+3JU5UX6Z8HwEjU/P6VlRUoGXLlpzXc/r06TRHCIViJ6wWCABwNHaVaJFw+364Qw12DGvEkUtfie5Hen4c5zGfe+45Uc6kQYMGKCwsNHus3NxcUW+uTZo0eeRjFLKysjBt2jTBeQxat26NwMBATgc0d+5cUbMP7u7uSEpK4mxf4Blh0f4P2s6wuw713ADAd0HXRffjSAx3cSZLMQnvvvuuHXtHoTy6yCIQSivyRE/L+wf7IT2P27nam+Ox4pZK/IP9sD9mOe9gXVxcLGqpwfT2+mBMQnWysrJEBTP6+Pjgp59+ssUlc1hKSkowefJkwbMuDRs2xM6dO6HT6TiPuXjxYlHiwMXFBV988QXv/VFeYcCENWGinasjBS3+tP+G6PaPXx1mMb+DSqXijUl488037dRDCuXRRRaBAADhN/8Q7WAr38CvyNUEyeyMnC+63QHBk6E1WK64d+DAAVFOxcXFBY0bN4ZKpeI8JiEEarVaVDBj/fr1sWnTJjkvm0Py+uuvi8p8ePr0aYtT1nPnzhX9G/r6+lbtWuDj+OVM0Q529MpQHLuQLtclk8yKreKWFUxWXCYshXR5eTmaNm3KeY3feOMNG/eQQnm0kU0gAMDm0BmSRELY9d/BMJYHU7kprcjD1rMfSGpzbIrw7IbDhw83O8DxzS40aNAApaWlFo9tMBgwZcoUwRH5bm5u+OOPP6DRaKy5dA5FXl4epkyZIvgN38fHB4GBgYL218+fP5/zOK6urpznzMzMFNz+eRtiJDna5YGXoVVgd0OpRo+5G85LavOP+2+KOldFRQVatWrF+Ru8++67NCaBQrERsgoEja5IkrOtDPZbjILSVDmbw0t86lFJyyL+wX44cOEzAMKneFUqFWcCJV9fX16RUFRUJOgcJSUlomIUvLy88MMPPwh6y3VUsrKyMGvWLMHBh76+vggICBCceGfOnDmcAsDLywve3t5m//fjjz+K6odGZ5TkbEevDMW0HyNx5W6h3ZYcQq9l16jSKNTeXxcNrV68M9dqtbzLDdOnT6fJlCgUGyCrQAAIbmeFSxYJ/sF+CIn/FQYbVn/MV6Vgt8idCg9aYOh0QUsL1Tl16hTn1P/IkSM5B79mzZpxBi6ao6SkBJ999plgoeDt7Y0VK1Y4zJq2EPLz8zFu3DjBwqBZs2YICgoSJYb4xIGHhweGDRtm9n+9evWS5KySs1SSRcLolaH4YlscyitsJ/ZyijRY/NcFye0btzoM6XninxsTGo2GdyZhxIgRMvaWQqEAsguEyvXxU1e/t0okbAp5F2HX18PIyFfutlh9H0FRSyTPGpgsuzhBsjN9+umnzQ5uQ4YMwcSJEzkHv+bNmwtabjBBCEFpaSkWL14sWCg0bNgQX375pUMLBaPRiDFjxsDDw0Nwv8LDw0XPkixYsIB3uSIyMpJTnNy+fVtS3wgh2Hw62SqRMGZVKL6UWSiUagxYsvGCqPTJ5izieo7V95ZKpULz5s05f5eRI0fK1GsKhQLYQCAAlYPdvvOfWOWITbYl9D3cyY5GhU4FYibfABcGRge1thCRCf4ICJ4iS1uSsyKtui7l5eWczm3nzp28MwleXl68gYtcsCyLDz74QFSMwrp16xwqj0JRURHefvttwTEGTZo0weHDhyU5pHnz5vH+BpmZmahXr57Z/69cudIqJ0gI8PP+m1Y5YpO9/XUYjl1MR3GZDoyZfANc6A0Misp02BJ8B+Ml7LAwZ0ER9yRfk+pUVFSgWbNmnL+Rn58fXW6gUGTCJgIBAAhhsTtK+lS+OQsImYK90csQmRCAG2knkZwdiYyCeCRnRyI5OxJX7x1CSPw67IleigArZwqq25WU/bJcl6CgIM7BTaPRYPr06Zz/b9CgAe8WSD40Gg3mz58vOMK/Xr16WLt2raLBjGlpaZgyZYrgpYQOHTpg586dkh0E34xL8+bNkZ6eziniHn/8cVkKaBFCsGLbFVkcs8nGrgrFvA3n8evBm9gflYqz8TmITS5A+PUcnI3PwaHz6fj5wE189OcFyfEFXPb70USrr0l1LImEmTNnUpFAociAzQQCUCkSDl1aIaujVsIS74fJeE0I3njjDbMDW5cuXcCyLO9bbJMmTVBQUCD5/OXl5Vi7dq3g/AwNGjTAsmXL7BrMmJGRgdGjR4vKfLh//36rotktBSSmp6cjKCiIU2ClpclXzpwlBCt3XpPVUSthm84kW8x3IBWdTscbkzBhwgSbnJdCeZSwqUAAAIY14ETcN4o7eal2JydK9nX58vJyNGjQwOzA9scff4AQggULFnAOfi1atEBJSYnk85tiFFauXCl42t7LywsLFy606ZYyrVaLESNGCE5w5OJSWSvBWvGycOFC3uuQm5uL0tJSzrfWH3/8UfZ7hBCCDUcSFXfyUi0o4p7N41ksFXiiMQkUinXYXCAAlYNd2I31ijt7MRYYOg2FNtx2yZVAycPDo2oZYdq0abwOW0pMQnVYlsWiRYtE1Xr44osvoNfLF0Cq0WjwwgsvCBYF9evXR3BwsCzn/vDDDznP4+HhgcLCyi2Eb7/9ttnPtGnTxmaOkBCCA1Fpoms2KGljV4XiRqqwrblyYDAY0KZNG87fcPz48XS5gUKRiF0Egon7RQnYEvae4s7fkh26uAIMa/sENAMGDDA7qA0dOrTqTZ1vJsHT0xN5eXmytEWn02Hp0qXw8vIS5KTd3d2xZs0aq2Yy0tLSMGnSJMGzGO3bt8e2bdtkG/A/+ugjznM1b968KtlRRESE2eWOunXryrq0wMW9nHK8+0Ok4s7fks3bEIMyG2615MJgMKB9+/acv+WMGTOoSKBQJGBXgQAAeqMGZ679pLgI4Jo1SLwfKmq3hDXodDrO3QUbNmwAUPkWuXTpUs7Br0GDBsjI4C58I6VN3333neBdD/Xq1cOCBQtEBTOmpqbinXfeERww2bZtWwQFBck2yLMsy1tboVGjRlWOn2EYTtFki6UF7jY77pLD2FWh2B1xz2x1RnthNBrRuXNnznvo7bffVqxtFIqzYneBAFQ6vYKyVASGvKu4KDDZibi10OrL7J4H4Pjx42YHtDp16kCtVlddL76ZhEaNGiErK0u2NplqPfzxxx+Cgxk9PT0xbdo03qWHkpISvPzyy4KP6eXlhcjISFl2BzzYt4kTJ/LOWjw4K/PKK6+Y/UyfPn3snoWSEIL7BRrMWS8tzbEt7KM/L6KoTOcQ+TM0Gg2vSBg6dKjSTaRQnApFBIIJQgju5kQpKgx2R30EvUGt5GXAa6+9ZnZAa9KkyUOf49sC6enpKSqZklBYlsXKlSsFOXQXl8oYhXnz5tU4Tv/+/QUvJbi7u+Pq1auy9wUAxo0bx3vuB6/hnj17zC4tuLq6Ck6BbQsIAW6mFSsqDKZ+H4nsIg0cQBc8hMFg4N3d8NJLLyndRArFaVBUIJgghMXdnPMIilpst6WE43Ffo0Sd7RBvPmq1mjOv//r16x/67Jw5c3hFgpi0zGIwGAxYs2YNGjduLMjJ16lTB59++ilef/11UTEGBw8etMlvQgjBu+++y3nu1q1bIycnp+rzJSUlnH399ttvZW+fFFhCcP1eMRb8YX2mQyE2bnUYPva/hKRMlUM8N1zo9XrewMVx48bJOitFodRWHEIgmCCERbm2ALF399ogydJUHItdjdtZ4WAJ43AD3OHDhzmd/oOVAS3FJHh4eIiqJCgWg8GAH3/8UXAwoxDr1q0bDh48aLNAMpZlMWvWLE6hUl0cEELw1ltvmf1sjx49HC7gjSUEKrUe+6PSsPBP6fUSuGyZ/2Ucu5SJCp3jPTdcGAwGdOrUifOeGzNmjNJNpFAcHocSCP9CQAiLCp0K2cW3EHUrELvOfSRKEGwKeRcn4r7BtdSjKCxLg5HRO/zgNnjwYLOD2TPPPPNQ2wkhWLRoEefg17hxY5uKBKAyZ8Hff//NmXZYiDVr1gyhoaE2fZsjhMDPz4+38FL1xFOnT5/m/Hx6errN2mothFSKhTKNAUmZKmwLuYO5EkpJLw+Mxa6zKbibVQqt3mizZEe2pqKiAl27duW8/4YNG6Z0EykUh8ZBBcKjC5dj2r59e43P8mVcNO3htzUsy2LTpk2ihIGbmxtu3bpl87YBwJtvvsl7jcwFGnLt4PD397dLmynyYTQa0a5dO857YODAgUo3kUJxWBxaIBDCQq0tQkbBVcTc3oag6CUCZxAm41jsalxJOYCi8gzojcrVExBLcHCw2YHM1dUV+fn5NT7/wQcfcA5+tgpcNHH//n1RMQbVRcLMmTOtShvNByEEkydP5p29MHc9n3/+ebOff/LJJ51m3ZolBMXlOiSklWDLmTtY8IfwWYRlAZex+cwdpGSXKZLTwBbo9Xr4+vpy3gujR492mt+WQrEnDicQWMIgLT8WIfHrsClkqmwxCEFRSxB7dy9K1PJtB7QFhBCMHTvW7EDWqVMns59fsmQJr0i4f/++rG1MTk7GuHHjBNdKsCQUZs+eLatQIITwxhz4+vqavSYHDx40+x13d3ekpqbK1j5bcS2lCOsOJWDS2nDZ4g/e+yUK/idvIyWnzOF2LIjBYDDwziSMGzdO6SZSKA6HwwiEUk0uguN/xuawGXbY2rgIsXf3gGVtV1fAGvjq3q9Zs6bG51mW5RUJjRs3liWZkmnGQGiCo5YtW3LWnDA3QzJ27FirMjMCleLgvffe4xQHDRs2NJt9sqioiLPWgilplSOiUuvxx7EkTP3e9pkW3/slCn8dT4RBwYRI1qBWq3ljEugWSArlYRQXCDqDGrtFBiDKubMh8tbfdsucKAaupQY3NzezU+OEEN7lBi8vL8lpmfV6PXr06CF4xqBhw4ZITk4Gy7IwGo04ceKE4O/WqVMHL774InQ6naS2jhkzhvPYHh4enBkfuRIidejQwWGDWxf8EaNInYaxq0Lx1Y6r0BscU2DzodVq0aFDB8575MUXX1S6iRSKw6CYQNAZ1PgncqEiwsCc3cw4DZY41oDHtauhf//+nFvtZs6cyTn41atXT3CBJ0IIcnNzMWjQIMHLBa1bt0Z0dLRZh0oIQWBgIBo1aiR4RuHNN99EUVGRIAfNV1DJNIvCldyIa9dCnTp1kJubK+h62QutnsGqnVftLgq4bHvIXUVTLEvBUkzCqFGjbFq1lEJxFuwuEFiWwbXUIwgInqy4KKhu/0QuQJ7qDggc442RZVnUr1/f7CBmKgttDr7lhnr16iE7O5v3vDdv3sTrr78u+K2/Z8+eOHLkiKD8ACzL4rfffkOLFi0EC4Vp06bxLpEQQniFka+vL2cqaoZhOLdq+vv7O9TsQei1bIxbHaa4KKhuE9eG43JygVPFKFgSCbQKJIViZ4GgN2pE7ERQzs4nbbHnZeElNDSUcyqey+kRQvDVV19xDn7e3t5mHW5SUhJeffVVwcKge/fuOHnypKS3LZZlsXv3brRu3VqwUBg/fjzu3btXo698MQdNmzblnQXgqqg5ePBgh4ls1+oZLP37kuJCwJJ9t/c6GNZ5VIKlPAn/+c9/lG4ihaIodhMI93IvwN8BZw24ZxPmw8Bo7XV5OCGEYMKECWYHsFatWvF+7/PPP+cc/BlqFo4AACAASURBVLy8vKqcbXFxMZ566inBwYePPfYY4uPjrX7DIoTAYDDg9OnT8PDwEHRuNzc3PP/88yguLgYA+Pn5cX7Ww8ODd5vnjh07zAoLDw8P2cpoW0tKdhne/vqs4s5fqE3+NgJqrWMIKyHodDr06dOH8x6iyZQojzI2FwiEEMTc3q64w5dim0KmoVSTq/g0s0aj4Vy7X7t2Le93P/nkE15ny/cGZW6q/vLlyzarlXDy5EnOnQTmZhS4dnq4uFQWuuKLtygvL8djjz1m9ruOsmvhzJUsxR2+FBuzKhR3skoVf26EwrIsevbsyXkvjRo1yu6VOykUR8DmAiE6MVBxR2+NBQRPQZ7qjq0vk0UOHTrEGUhnKc/BihUrBIsAc9atWzccO3bMLmuyLMsiICAA7du3l9zeli1b8pa/5ss10bFjR4dYez4Ynaa4o7dWJETeUF5cC4VhGHTs2JHznnrttdeoSKA8cthUIJyI+8YmTntv9DKExv+GqMTAKou4uREn4tZiZ+R8m5wzo/CaLS+VIEaNGmV28OrduzfvQGwpJoHL+vbti+DgYEUcJsuyOHDgAG/BHXPWvHlzi4Jp7969ZuMs6tSpY7PMjmL481iSTZz2h79G45td8fjreFKV/XEsEf/bfhXvr4u2yTnPxDl2YrIHYVkWvXr14ry3hg0b5jSCh0KRA5sJhOD4n2Vzzmeu/YzsolvQ6FRgWRaEEF4zGHUoq8jH7awIBEXJFRQ5GbklSba6XIJgGIYzgPCHH37g/F5mZiaeeuopwU62devWuHbtmuJv0oQQGI1GhIWFCS4z7ebmhsGDB3MWq9JqtZyVKB1h18K+KPlmDj7fHIurdwtRVKYFI+C50RsYFJZqcSExH0s3XpStHRcTa+btcFQqKirwxBNPcN5f/fv3V/weoVDshewCgRCC2Lt7rXbI285+gHxVStXgZQ0sy+LynT3YFPKulcsNk6FS828RtDUJCQlmBy5XV9eH3pxNeQxatWol6g380qVLCvaOG5Zl0bdvX8H9cHV1Re/evaFSqR66f7p37875dqjk3ndCCKIT8qx2xn7fVm45NAlpa9t04nKGLEGSSRnWZci0JyzLokePHpz31nPPPecwO1woFFsiu0DILk6wygnvif4YBapUWYRBdQhhcSXlIDaHTpfcvp2R82Bk9LK2S1wfCN555x2zA1e3bt1ACEFiYiKGDBkiqYhSnTp1LOZJsDcsy3IurwgRCi+99BISExOxd+9es5+pV6+e7PUqxFJUprPKAc/8+Rzi7xXZ6LkhOBWbianfR1glXEo1yj03YmEYhnd569VXX4Ve7zz9oVCkIKtAYFgDAkOnSXK8m0LeRdL9cLtMazOsEcHx6ySLhJD4dTZvIx8qlYoz2n/w4MFWF1Hy9PTE3bt3Fe2jCYZheDMkCu2rq6sr5zZOR9i1MFFigaWxq0Kx71wqjHaY/TAyLP44mihZJHzsfwmME2VdZFkWjz/+OOc9NXz4cLrcQKnVyCoQ/olcIMnhBkUthkansuvDRghBau5lBARPkdTmezkxdmurOU6ePClZALRt2xYxMTH44osvOD/j7e2N5ORkRftICMGYMWN4Cy8VFRUhPDwcbdq0kXQtOnXqpHisxf9tiZPkcCeuDUduscbuz82dLBUmrJGW0XHX2RS7tVUOKioq0Lt3b877hy/tOYXi7MgmEBIyz0hytCfi1ir6gBkZg6TYhE0hUxWv3TBixAhRzrBx48Y1sgpaypPAt13Q1gwZMoSzbQ0bNqwRM5CSksIZgMhl5gpf2ZNrKUWSHO0H66IUfW4MDItZ66Iktd3IONdbN8uynLErLi4uGDBgAJ1JoNRKZBEIBkaLwFDxTjYmabtDqG9CCHZGzBPd/pNX1tp9YCCE4Pr163j66acFxxj06tULMTExnG3ly7iohEhgGAYvv/wyZ5s6duzImSGREIJLly7xZserbr1798bVq1ftfi8aGRYzfxbvZL/dc90hpuoJIZi34bzo9k//6ZzTOVRLyZReffVVyRVIKRRHRRaBEHp9vWjnGp24xaEGCb1BI0kkFKvNb6ezBRcvXsTQoUMFr7s/+eSTiIqy/KZJCMH//vc/XpFQvQaCrWAYhjO1tGl5pLCw0OJxWJbFyZMnRcUovPDCC7h48aIdelnJkQsZop3rN7vjwTpQvQOWEMxdL14k3Exznl0NJiztbnj11VcdakyjUKzFaoFQri0QXZkxNP43sCzjcA+TWluErWdnierLqavf2bwfcXFxGDhwoOjgw65duwo+hyWR4O3tjaQk2+aBYFkW48aN4y28ZKrBIITNmzeL3snh6uqKwYMH48qVKzbsKaAzMKIrMy7+6wKMjOM9NxV6Iz4QmWhp7oYYhxI6QtFqtbwxCQMGDHCIWVEKRQ6sFgjnbgWIcqg7IuaAccBBDqh0koWlqaJnEVQa20zBFxQUwNfXV9J2RZN9++23ovr/3//+l/NYHh4eSE9Pt0lfAeCll17iPHfDhg1FTeGWlZVxlsoWKhR8fX2RkmKboLqjFzLFr90bHfm50WLcKnH9ibtjeSbIEdHr9by7G2gyJUptwSqBoDdWiHamRqPjr9NF3RJXP+LElW9kOzfLsrhx4wZ69uwpWBg8/vjj+O233zg/L3aPP59IcHNzkz1nAMuyeOGFF3iXFcrLy0Udb9iwYWaP1bNnT1y/fh29e/cWfH3btm0re4yCWHFQXO74z82ZuPui+rTor4tOOYsAWI5JGD58OM2TQHF6rBIIt7MiRDnS+NQjTqGsCSHYevZ9UX2TY0dDbGwshgwZIirGICIiospxce1q6Ny5s6gsgYQQfPPNN5znrVOnDhITE63uL1AZczB+/HjOc7Vr105QzMGD/PPPP2avoZubGzQaDYDKAf7s2bOCU1C7urpi0KBBiIqKsrrPN1JLRDnSXw8lOM1zM//3GFF9y8xXK91syTAMw1sNddSoUTTjIsWpsUogbA6bIdiBbgv/0KnW5gpL00QJhJRc6XkRLl68KEoY9OvXz2zwodFo5EwGtHLlSlFtIoTg559/5myDl5cXrl2zroAVy7J4++23Od/kmzRpgqKiIlHHLCgo4CzjvHPnTrNtiImJwaBBgwQLhWeeeQbBwcGS+z13g3AnOnFtONRag1MIBAAoKReXEXLzmTtO0zdzGAwGDB48mPN+ef75551q3KNQHsQqgSDGgablxcnVZrtACMHBC58J7t+mkKmiz5GVlYWuXbsKFgYtW7bEvXv3eAfUzMxMzrf+27dvi74GfCKhfv36uHHjhuh+m3j99dc5j92wYcOqt30x9OvXz+zxXnjhBd5ZFJZlce/ePcHVI11dXdGhQwdcv35ddBvFBCcGnEpyOgf61Y4rgvs3dnWY0y4zmNDpdHj66ac575XevXtTkUBxSiQLhNi7QYKd59aw98GyyiYVkkJOcZIoEcSwluvFsyyLO3fuoEOHDoIckYtL5W4ES8LgQWbPnm32OL6+vpIGKj6R4ObmJjotM8MwGD58OOcxW7VqJUkc7Nixg1PIiCnjnJGRISoGxNvbW3D1y7D4HMHOc8LXYdAbne+5Uan1omYRVGrnX6tnWZZXJPTv35/mSaA4HZIFws5I4TkDYu/uc7q3IKDyDXrXuUWC+5lRcJX3eGfPnhUVHDdkyBDExcWJduoajYaziuPq1aslXYtffvmFs91ubm6C36T1ej1nAKHpbaukRPwe+fz8fNSrV8/sMbdv3y76eIQQxMbG4tVXXxU8o9CzZ0+cPHmS917/Zne8YMe5Ztc1p31uPgm4JLifxy/ZL5eILbEkEp599llotVqlm0mhCEayQAgUXBFxMjRa50uKYuJ80jbBAuHU1e/MHuPcuXMYOHCgKGFw/vx5q6YlQ0NDOY8vZasiIQS//PIL5zHr169vMSbBaDRi5MiRnMfo0KEDZ4ZES3CJDmv3pbMsi7i4ON4tmNWFQu/evXH48GGzzv29X4RnTswqct4AvrPx2YL7OfX7SKWbKxssy/LGJNDaDRRnQpJAKCwTHsAXFLXEKd+CTJRV5Avu6+6oRWDJvw//zZs30aNHD8HCoHv37rh9+7Ys14sQgnHjxpk9T5s2bSQNUpZEgpeXFxISEji//+KLL3J+t0WLFpKWFQD+hEhSBUd1CCFITk5G//79Bf2WLi6VKaHDw8Orfk+xJZ2d+rnRGDBGRF8ZJ49DeBCtVouBAwfyzpKJ2VVEoSiFJIEQn3ZUsNOMuLnRqQc6ANgcNlNQX7eEzQTDGnHv3j14e3sLdiTdu3eXPbcAUOnU3N3dzZ5z6dKlkn8XsTEJLMviiSee4PxO27ZtYTBYjt8wR2FhITw8PMwe99SpU5KOaYmysjJRMQr16tXDtWvXEH+vULDDXLLxotM/Nx/9eUFwf40OUFtCTliW5c24+OSTT0q+5ykUeyFJIITErxMsEArLbJd5z14ERS0V1NdPf3kFvXoJdxyDBw/GjRs3bOoIEhISOKfC+d72LcE3k+Dm5laVJ8FgMPCu4/fq1UtUEqTqDBgwwOxxhw8fbtOpXEIIUlJS8Morrwj+vb0aNcNAv9V463/BFh1mQprwlNKOysYTSYIFQmaB8y6ncMEwDO+M07PPPksDFykOjSSBcPjiF4IFQm1Yb4tO3MrbxyXfvYS2nRvDxVXYjMFLL70kKfhQKnPnzjXbji5dukh+izEtN3A5R3d3d8TExOCVV17hnTkpKyuT3K+//vrL7PkbNmyI7OxsyccVg2npYfz48YKFQoPGrfD0+M/x1lchPFPuzv/chImIQ6gtgYrVYVmWt2x5//796XIDxWGRJBD2RAt7o/YP9nP6aVIASMm5YLZv/9s4Ar6dGgkWBk888QTi4+PtLpq0Wi1atmxptk1ffPGF5ONaikngy+/g4+MDtVr6W2N5eTnq1q1r9tiBgYGKlOFOSkrijbMwJxQGTlppViiwteC5uX1fJVggBJxOVrq5NkOr1fIGLtKYBIqjIkkg/HNuwSMlEMoqCmr0q66H8MqK7dq1E50RUG7Onz/P2T5rHDXAv9xgzlq0aGH1+ivX1O2AAQMUv+d0Oh2ef/55wdfDtY57rQpQNFGmEZ4P4fu90hNuOQOWYhJoMiWKIyJJIGwL//CREgiEkBr9emtaX1FOkRo1LvNu2aVWCgRCyEN94ltS+XTTZaWba3MsxSQMGjSI5kmgOBSSBMIWgVH9tUUgADXTSv9+9G3FHQu12mGdB42tlQIBAMav+TetdL9Ri9Gi6wAMX7i5Rn8X/3VR6abaBZZl8dxzz3HeCwMHDqQzCRSHQZJAEFPpsLYMdA/2ael3L8Gznvn1b2rUxFq9x5rV2NlQW56bsasq+/Pml6fh0aBRVZ99uvTHax/vrurvZ5tjlW6q3dDpdHj22Wc574enn36axiRQHAJpMQiRj1YMglpb9FCffFo3VNypUKtd9uqSXbVOIJRXGKr603/8Z2b67QrvFp3w5pensXIHf5ry2obBYMCTTz7JeT/QmASKIyBxF8PHj5RAuF9446E+/XlyouIOhVrtspbdB9c6gZCeV14Ze/C/M3B1459x69XvGaSmpirdZLvCMAxv4CKNSaAojSSBcPDi/4kQCM6vgi8m76zRr/c/454itGTPP/88Ll9WNigrJiaGcxui0IFar9djxIgRnP1s06YNb4GnqKgowe3lGkhfeOEFh3rTunXrFt555x3BORFcXd3Q5dkJGLXiZK3b5hh5IxejV4bihffXC342XnnlFVy5ckXpptsNhmF4c4XQLZAUJZEkEM5c+0mwQCjV5MrdZruz7/wnNfr195lJ6NbXx6q3xgEDBgiugig3hBDMmzfPbLuaNWtm0ekajUbeAkZt27ZFeXk5b50ET09PnD171mJbf/rpJ5vXWrCW27dvY+jQoahTp46Ie8AVw+ZsNBvVn5orPYGUo7D5zJ2q3QtDP9iARq26Cr42zz77LG7duqV0F+wCwzB48803Oa9Fp06dYDQalW4m5RFEkkC4lnpYsEC4cHuH3G22O1zbOtcdGAe3OsLeFLnfICur/+Xn59u9X0ajEU2bNjXbrgULFvB+ly8Su0OHDlVTo4QQ7Nixg/Oznp6evFUgs7KyUL9+fbPfPX/+vKzXQwppaWno0qWL4BmDB63jgNGcW/++2u78a/Kfb46rsc3x5Y+2oq6nl+Bno2/fvpLKfzsbBoOBN8lW586d6UwCxe5IEgj5qhTBAmHf+U+dej1Vb9Tw9m/GskFWCYQHrV27dsjJybFr/1JSUsw6N1dXV1y9WtNJGY1GdOvWjbMPffr0MZsEKSgoiPM7bm5uSElJqfEdQgjnvvGRI0fa5HoIgRCChIQEdOjQQfJv7dmwKd788jRv8iBnfm50BqZqB4M5e3nhVtRvbD67pznr0qULcnOdfzaSD5Zl8cwzz3Beg549e6KiokLpZlIeISQJBEIIAkKmChIIASFToTc67019Pe2ExT526dVMNpHg4uKCIUOGIDbWftu+PvzwQ/NvuB07PhQkpdVqeTMEPvPMM7xBVVu2bOGNSbhw4cJDn9+2bZvZzzdq1AgFBQU2ux58nDlzBp07d7b6N35t6S5ecTB6ZShKNXpF+igHV1OKBGVQfGHWb/Bp31PwdXvppZcUW5azByzL8j5jffr0gV7vvPcFxbmQJBAAYHvEbMGzCDfTTzvt29BeM/EH1e23wxPgKqAeQ/369dGvXz/Bg+EzzzyD6Ohom/dRp9PB19fXbBuWLVtW9ZmhQ4fyDlyWIq4JIQgMDOQUCR4eHlUxCQUFBZylqvfs2WPX+4kQgq1bt8oiDFxcXPD4y+8Jcp7rDyc47XPz1Y6rgtMs7zuXhujoaDz11FOiRHRtFQpGo5E3JqFbt240JoFiFyQLhIiEPwULhD1RS51yoFNpcgT3ccGqFwQNbO3atcOFCxfQvn17QZ83rcPeu3fPpn29fPkyp+MuKiriTRHboUMHwW81hBD4+/vziqjY2Fj07Gn+rXLIkCF23bUQFBTEuxtDrDVt0dbi0oLJpn4f4ZS7GSp0RozhWV6obkVllSWPWZbF1atX0bp1a8HPxoABAxSbTbIler0eL7/8Mmffe/XqRUUCxeZIFghqbaFg5+kf7IfC0jQ5221zCCEIjf9NRB8no0+fPsKcRNOm0Gg0yMvLQ7t27QQ7Fx8fHxQUFNhMbHGVheazrl27Siq8tHv3bouDf/W/eXh42GUN1mg04p9//oGHh4csouDBPsVcEv5mPXplKE7FZjqduN4RekdUHw3GmsF3GRkZaNGiheBr27JlS5s+G0rAsiwGDBjA2efu3bvT5QaKTZEsEADAP3iyYAd6IOZzp3p4K3QqUQIoPvUIcnNzOSPuq1uzZs2g0WgAAPHx8by7Aqrbk08+idjYWNmvJ8uygt/eXFwql0Cscdhbt24V9WYeFhYmY29rolar8eeff3KWkTZnYj67fPlyEEIw/adzgp3nrF+iYDA6Tp4HSxgZVtTswbpD/MsoUVFRopYeBgwYgCtXrjjVWMMHwzC8IqFv3740cJFiM6wSCHEp+0Q50ayiBLnabXP2nV8uqm8MU6nk+bb0VTcfHx+Ulf273/3KlSu8W53MDYbnzp2Ttd+JiYmCnHa/fv2szvJmKSbhQZswYYJMPayJWq3Gp59+ioYNhafQHjNmDMaNGydY4LRp06ZqpiX0WraoN+wD0WlO4/BW7hQ3Q3IrXdgWxpiYGAwZMkTw7zNkyBDExMTYuLf2gWVZvPHGG5x9ffzxx+lyA8UmWCUQtIYyUU7UP3iyUwx0t7MiRPVrX8ynIPi3X8OGDRM8kDVr1gxFRUVV3yWE4M6dO7xr/tWtZ8+esgZsLVu2jPd8nTt3lm1q0xQAyHe++vXrPySk5GTs2LGCZ31cXFwwduxY3L9/H8uWLRM1+5GZmflAnyHKiY5eGYoKveM7gBupxRgjok+z1kXByAifHSGEIDk5GT169BB0zU05RpKSkmzYa/tgMBh4RUKXLl2oSKDIjlUCAQCOx30typnujXbsvAg6g1rU0ol/sB/ySpJrHEfM1HODBg3MOkCtVgsfH+HZGn18fGSZbuSLi2jWrJlNErZs27aN85xubm64e/eubOdiWRZTp04V5eBff/31KlE0e/Zswd9zcXHBt99+W6MN6w7fEiUQ3l7j2HkRdAYGk9aGi4yvuC/5fFqtFs2aCd9e3LJlS6eva8CyLAYOHMgr3KlIoMiJ1QKhqDxD5CyCHy7d2e2Qg52RMWDXuUWi+hIUtQSsmXoTe/fuFeVEvLy8zIoEQghu3bqFp59+WrBD69GjBy5fviw62l+n01mcuXB1dZXVWZuwFKxZp04dJCRYt0SVkZGBKVOmCL6O9evXh5+f30OD7sKFC0X9rh07djQrqNRao6i37dErQ/HdnusO+dwwLMH/bYkT1Zcp30eImj3g4vr166K2Dvfr1w83btxwyOsoBEsxCX369KmKbaJQrMVqgQAAR2NXiRYJt++HO9RDyrBGHLn0leh+pOfHcR5TTOChi0vlTEJhYaHZYxFCEBcXx1v/oLo9/fTTgmodAJXiQOjSSKNGjWTdarhy5UpB53V3d0dERITo4ycmJmLs2LGC6yR4enris88+Q2lp6UP36Ny5c0XNOri7u/NObweeERftP3plKHaG3XWo5wYAvgu6LrofR2IyZG3DpUuX8MILwrYau7hUFvm6dOmSrG2wFyzL8m6B7N27N51JoMiCLAKhXFsoelreP9gP93IvynF6WTh86UvR7T9w4TPewbqkpIQz2Q+XNW/enFMkAP+m+eVLyVrdevbsyRvMaDAYMHjwYFHtnDlzplXX20RSUhLq1asn+LweHh44duyY4GMPHDhQlFPfuHGj2ZmcOXPmiM6FsGrVKt77Q601YsKaMNHONSjinsOIhG92xYtu//g1YTbJ70AIET2j0Lt37xoZPJ0BvV7Pm0yJxiRQ5EAWgQAAkQkbRTtY/2A/pOYqW/YYALaefV90uwOCJ0PPWF7vP3bsmCin4uJSOZMgpECNVqsVtS3xscceM1vroW3btpzfadu2LadjtDYdNMuy6N69u9lj8621urm58RZqyszMROvWrQU7dDc3N2zfvp3T6c6YMUP0b9i2bVtBA/SpuPuiHezolaE4GK18XpFPAy5Lant5he0dV0VFhag8Ct7e3iguLrZ5u+SEZVneWb+2bds6fdwFRVlkEwgAsDl0hiSREHb9dzCM+GQ71lJakYetZz+Q1ObYlL2CzzN8+HCzDzBfIGODBg0ElTImhCArK0tUjEKbNm0QHx8PnU6Hvn378r5d6XQ6TJ8+nXMAsiYo8u+//zbbZi8vL6jVapw8eRJubm6cTv3BKpCEECQlJfGKnerWvHlz/Prrr7zLJfPnz+f8vqurK+c1f3DXgiXmbYiR5GiXB16GVoHdDaUaPeZuOC+pzT/uv2m3dpruiV69egm+J7p16+ZUMQoMw/AuO3bq1MlhSqJTnA9ZBYJGVyTJ2VYG+y1GQWmqnM3hJT71qKRlEdPSAiB8AFGpVJxb6bhqIJhEwoNbIPkghODGjRt47bXXBA+GfNv7Bg8eXOX8CSGc7Zw3b56kwbSoqIhTIJ0+fbrqvPv27eOMHXBzc8OJEydw5MgRztTM5qxjx47YsmWLxd0YfMsKXl5e8Pb2Nvu/H3/8UdS10OiMkpzt6JWhmPZjJK7cLbSbQwu9ls1bpZHP3l8XDa3e/iWLCSGi8yjYIseIrWBZlne5oXPnztDpdEo3k+KEyCoQAILbWeGSRYJ/sB9C4n+FwYbVH/NVKdgtcqfCgxYYOh1aQ7no8546dYrTSY8cOZLz4W7WrBlvTEJ1TLse+IKYLNnAgQNrpE++efMm59v8zZvi3wq7dOli9ljjx49/6I3eJBK4zi3GOnfujJCQEEEBlnziwMPDg3Nqt1evXpICOJOzVJJFwuiVofhiWxzKK2w3C5dTpMHivy5Ibt+41WFIzxP/3MgJIQQ3b94UFcz41FNPOUXCJYPBgKlTp3L2w9fXl2ZcpIhGZoFQ+RCeufaTVSIhIHgKTl/9EUZGvjzjReUZ2Bkxz6p2+QdX5jyQ+rbGta4+aNAg3ofb29sbKpVK1LkIIVCpVOjYsaMoJ9q3b1+zDo4QglWrVpn9jqenpyin+Omnn3IuLZjbokUIwYkTJyQLgzZt2iAxMVFwG2fNmsV7vOjoaE7xkJKSIvg6VO/j9tC7VomE0StD8UnAJZTJWCZapdZjzvpoq9t1PiHPYabtCSEoLS0VVTCtVatWSE9PV7rpvDAMg3HjxnH2g8YkUMQiu0AA/v9bn4AyyUJsS+h7uJMdjQqdCsRMvgEuDIwOam0hIhP8ERA8RZa2JGdFWnVdysvLOQsA7dy5k3cmwcvLS7RIMFFUVIQ+ffoIjlFo3Lgxbt68WcOhsiyLTp06mf3O5MnCsmSmpaVxXoPw8HDO7+l0OixZskSUMGjdurXoKpjz5s3j/Q0yMzM5d12sXLnSKidICPDz/ptWO+PRK0Px9tdhOHYxHcVlOjAi8g3oDQyKynTYEnwH4yXssDBnQRG2rUQqFUII8vLy8Pjjjwt+Ntq2bYu7dx1vq6kJlmV5YxK6du1qs6yklNqHTQQCABDCYneU9Kl8szMLIVOwN3oZIhMCcCPtJJKzI5FREI/k7EgkZ0fi6r1DCIlfhz3RSxEgMb6Ay66k7JflugQFBXE+vBqNhjMg0MWlMiZBaqR1eXk5b0CiOevRoweCg4MfOs7169fNxgS4urri4kX+basGg4FzC9ro0aPNfketVuOXX35BgwYNBL/tvfjii5IK9ixevJjzuM2bN0d6ejqniJMrHz4hBCu2XZHFMZts7KpQzNtwHr8evIn9Uak4G5+D2OQChF/Pwdn4HBw6n46fD9zER39ekBxfwGW/H020+prYGkII4uPjRcUo9O3bV3COEXvDsixef/11zrZ36dIFXRKzoAAAIABJREFUarVa6WZSnACbCQSgUiQcurRCVkethCXel6+KICGEM6d6ly5dwLIs71tskyZNUFBQIOqcWq1WVN6E6ta7d2+cPHmy6nhLly7lfLvim8L84YcfzH6vYcOGNdZHjUYjFi1aJKqAkotLZXzA4cOHxf0osByQmJ6ejqCgIM6AybQ0+bYdsoRg5c5rsjpqJWzTmWSb5DuwFYQQXLlyhXPXkTl74oknEBISonTTa8AwDCZMmMDZ7vbt29OYBIpFbCoQAIBljTh19XvFnbxUu5d3UfbpRK1WCy8vL7MP7rp160AI4XTCJpEgZiaha9eunMfy9PQUPBi2bt0aMTExIISgcePGZj+zaNEis9dLr9dzOtfw8H+zahoMBvj5+YlqV3Vzd3fHmTNnBF+f999/n3eKuaioCCqVirPPv//+u+z3CCEEG0/cVtzJSzVnqkBZHUIIsrOz0a1bN8H3XNu2bXHlyhWlm/4QBoMB77zzDmeb27VrR0UChRebCwSg8oGLvPW34s5ejG0Jm4miMtsFJXElUHJ3d0deXh6AyrdaroebLy2zCZ1Oh+bNm3Me47nnngPDMCgrK8OQIUME7xRo0KABDh06xOnwqydQIoRwbgk0xS4UFRVh0qRJgtvg6emJV155hTdPgpDoc74kSA0bNkRRUREIIRgzZozZz3Tq1MlmjpAQgqMXMmSf9relTVgThlvpzpVwiA+x8TsNGjTA9evXZU1Fbg2WSkV37NhRUFI2yqOJXQSCiftFCdgS9p7izt+SHbq4Agxr+wQ0XEVXhg4dWrVHf8GCBbxO0iQmqqNWq/HEE0/wioMHSzYTQpCamipqeyRXHoP69es/NECuWbPG7OcaNWqEhIQEUZUVPT09MXPmTJSXV26Z4xMqbm5uvHvZP/roI87zNG/evCrZUUREhFkhUrduXVmXFri4l1OOd3+IVNz5W7J5G2JQZsOtlkphSm/+7LPPCn42evfujejoaIeYRWFZFq+88gpnW7t06UKTKVHMYleBAAB6o8bqbZC2ssDQaUi8Hypqt4Q16HQ6zqn0DRs2AIDF5YYGDRogI+PhwjcajYY3VfGAAQM4E6cQQpCYmMibeEWIvf322wAqCyVxJWTq1q2b4BmDOnXqYPXq1TUGMkII9uzZwykSPDw8qhIvmWBZFosXL+YUJY0aNapy/AzDcC4H/fjjj3ZzACxLsOFIouIiwJyNXRWK3RH3ZKnO6MiYYhRGjBgh+Dno16+fqOUuW8GyLMaPH8/Zzo4dO9LlBkoN7C4QgMoHraAsFYEh7youCkx2Im4ttPoyuyv+48ePczpEU6QxIYR3JqFRo0bIysqqOiZfatn+/fsLirYnhCAjI0NUwNaD5urqisjISFEZDs1Z3bp18fvvv/NGXRNCcOjQIU6H7+npWRVkSQjBxIkTeWcsHpyV4Xrz6tOnT41kUraGEIL7BRrMWS8tzbEt7KM/L6KoTOcQb8r2ghCC9PR0UQmXunTpgsuXla07YzAYMHbsWM420pgESnUUEQgmCCG4lxuDwNDpigmD/TGfQm9Qtn461xph48aNHxp4+WISPDw8kJeXx1ugZuDAgZLWRhmGEVXr4UGRIFUY1KtXDwEBAaLae+bMGc5zmmIS+GZGPDw8HtojvmPHDrPHc3NzU7SwDyFAYnoJ3vnmrGLC4P110cgtrsAjpAvMotVq0a9fP8H3upeXF27cuKFYjALLshg1ahSvSKBbICkmFBUIJghhcTfnPIKiFtttKeF43NcoUWc7xJuPWq3mDOJbv379Q5/lEwl8Nnjw4IdiDsRCCEFmZiaGDh1qleO3ZC1btsTff/8teQDlW27gs9atWz9U6bKkpIRz18K3334r+TrKCUsIrt8rxoI/LmCMHQIZx60Ow8f+l5CUqXKI58ZRIITg7t27eP755wXfb+3atUN0dLQiQoFlWd6Zwe7du9OYBAoABxEIJghhUa4tQOzdvTZIsjQVx2JX43ZWOFjCONwAd/jwYbMPq6en50OVAS3FJJizQYMGyVasxVQhj+8tRIp16dIF27Zts1hASUj79u7dC3d3d8nigBCCt956y+xne/To4TAR6iZYQqBS67E/Kg0L/5ReL4HLlvlfxrFLmajQOd5z40iY6qDwJSmqbr1798bRo0ft3laWZXmXGzp16lQVCEx5dHEogfAvBISwqNCpkF18C1G3ArHr3EeiBMGmkHdxIu4bXEs9isKyNBgZvcMPboMHDzb7sD7zzDMPtZ0QgkWLFgkagJ5++mmbrJWb3prEBGxxvUlFRERYLQyqty04OFjQTIKHh0eNxFOnT5/mnCVx5Hz8hFSKhTKNAUmZKmwLuYO5EkpJLw+Mxa6zKbibVQqt3uhUyY4cAUIIkpOTMXToUMHPQdeuXe2ecMlgMPAmU/Lx8aFpmR9xHFQgPLpwOabt27fX+CxfxkWTOLAHDMOILgrl4eHx0MyILbhy5QpvG9zd3c2KJ66dJf7+/jZtL6X2wTAMb9Bwdatbt67kgl9SYFkWU6ZM4WxPs2bNaEzCI4xTCASGMaBcW4j80hQkZJxGdOJmhN/8E4cursD+mP9if8x/ERz/M8Jv/okrKQeQVZSAovIMaHQlDj9rUJ2wsDCzD6qrq+tD0+BqtdriwOPp6SmqVLRYysrKsHHjRs7iRZasSZMmCA4OlqWGQXUIIbxvR6ZrWn0L2qBBg8x+dsCAATZppy1hWILCUi3uZpci9Go2Ak8n49dDCVgeGIvFGy9i8caLWPXPNfx6KAHbQu7gyt1C3MspQ0Gpls4ayMiD8TtCt/U2b94cYWFhss6s8bVv0qRJnG1p3bo1ioqKbN4OJTGqy1GRnQ3VrVvIPHoYib/+goSffkDsko+qLPHXX5D46y/IPHoYqlu3oMnKgtFM9dnahMMKhKLydFxPO4Yjl7+yKvZge/iHiEj4G/dyL0JncHwlTAjhXBvs1KkTgEpxILS2gqenJ+7fvy9rG/V6PdauXSu6TgKXderUCQcOHJBNzBFCMGvWLEHBlK6urjh06BAA4ODBg2a/4+7ujtTUVFnaZmuyCjU4fikTX+24alXcgd+34fhp/01EXM9BYak88SuPOqYcI2JiFB5//PEaeTxs1Ta+mYQ2bdrUqpkEwrIojr+Gu4EBiPngPYSPeVOyXV60EKm7dkJ186bTvZBawqEEgt6owblb/tgRMccmuxcCgifj4IXP/38yJMf9IVUqFWeK5BUrVuDxxx8X5YAbN25cI5mSFHQ6HRYuXCi4sqJY69ixI3bt2mVlyWSC9957T9ROC3d3dwQGBqJZs2Zm/29KWuWo6AwMtofexfvrom2Y7+ACDsWkO/Rz4yyYYhS4AmHNWY8ePXDs2DGbtothGMycOZOzDc2aNXP6mITS5Nu49uUKRIwfY5Uo4LJzfu/gxjdrUC6yzLyj4hACobyiALsiF9g1/0FAyBSE3fgdLGv7KTwpBAcHi3awXA7OxaVy/zVXWmYhTJ48WdTOAGvsscceQ3h4uKR2ctVMcHHhTg3NZx06dHBYp6jVM3bb4miyMatCsXzTZegMjvncOBOEEKhUKlHbI729vXHhwgWbtYlhGN4CTz4+Pk65uyEnLASR74y3iSjgssh3xiMvijvVuzOgqEAoLr+PHeGz7SoMzFlw/C8Oufzw0ksvCR44Ro4cCZZlMX/+fM7PeHp6iioVnZOTAz8/P8l5D6wVFKYMiEJ2YfAVVHJxcUGLFi1QXFyMmJgYwUKhbt26VokqW5FbUoF5vyufTfHzLXEoKZeeW4NSCSEEhYWFGD58uOAYhUaNGtksfodlWUycOJHz3K1atbJpbJNcsAYDss+cRvi40XYVBjVs3GjkhoWCONj2aCEoIhC0+jIEx/+suDB40DaFvIvbWeF2q8MgBJZlOesYPGivvvrqQwPFkiVLOD9br149ZGdn8543OTkZkydPlpRwyGSurq4IDQ3lTLUsRjy0b98ehw8f5nyTJ4TwTo36+vpWpaImhODo0aOCzu/v7+9Qswd6A4O/jicpLgyq28Hz6bW+DoM9IIQgJSUFr732muBno1OnTjh+/Ljs9ynLsrwzCW3btoVKpZL1nHJSmpSImFkzlRUG1ezCh7NQ7iSxTCbsLhAS74dgs4KplS3ZvvOfQm90nHzkZ86c4R0gXnzxxRpvEYQQfPXVV5zf8fb2NhuTkJSUhJEjR4oquezh4WH2f35+flVV8Lg+s3HjRt5BqLp17twZO3furJETgi/moGnTpsjNza1xfU6ePMk7kyC0ZoW9uJhUAL9vIxQXA1z23i9RSMtzvqlnR8QUo8CXyKi6devWDUFBQbIKBUsxCT4+Pg6ZcfHG2q8VFwOcNvYt3P59PYiDLm1Xx64CYV/MJ4oLACEWEDIFKbm2W+cTg6+vL+cD6ubmxpnVjxCCzz//nPO7Xl5euPf/A2lycnLQu3dvUTMG/v7+nBkd3d3dH9qetWrVKrOfa9y4MSoqKpCXlyeqKJSPjw9OnDgBAPDz8+P8nIeHB+cARgjBihUrOL9bt25dnDp1SuZfUxo/H7ipuAAQYmNXheJIjPXBsJRKCCHIzc3FkCFDRD0boaGhsrWBYRje3Q0tWrRwmMBFXUEBoqZOVl4ECLDo6VOdYoukXQSCWleELWHvKe74xdrZG38otuSg1Wo5dzI8aGvXruU9zieffMIrMHx8fAQPPo0aNcKmTZvAMAzu3LnDKSiuX79eox1c55k0aVLVW095eTlGjRolOEaALzaiSZMmvFOg5eXleOyxxywe397Z7R5ErTXig19ttzPBVrbM/xIYuuQgK6WlpRg2bJjg2b169erh3LlzssyCEUJ4i5y1bNlS8TwJeVGRijt9KVZ6O0nR62YJmwuEorJ0BIZMU9zZS7VTV74Dw9p3qrm4uFhwmWQ3NzeLe/S//vprwSLAnHXu3Blbtmx5aFagZcuWZj+7aNEis9OcGo3GrKAwJSsyfYcQgvz8fIslmfnM19f3oaRS1SGECK4l4erqigMHDkj7Ia1ApdZj4lrlqjVaa4s3XkRZhX3LYdd2TGWmxdRB8fX1lSXHiKWMi23atFEsJiF9/17FHb01lnXqpEPFOj2ITQVCnuoOAoInK+7krbUDFz4Da6eZhLKyMvTu3VuUQ+zduzfvDWYpJoHLOnbsiN27d9fI5rZs2TLOwYhvC9RPP/1k9ntNmzaFVqut0easrCxMnz5dlFDw9va2mMJ57969gt/EXFwqlxv27dsn4NeTh8x8NcatVt7JW2sfrItGuZaKBLkxFUybPHmy4Hu4ffv2NeJ3pJx3xowZnOdo3bq13Zcb7gZuUtzBy2Fpe/c4pEiwmUAoLs+U1UlvDp2B80nbkK9KgUqdiwp9GfSGiirTGdRQa4tRUn4fKTkxOHX1B1nPv+vcR3ZZbuCracA3xfjDDz9wHnP79u28sQzVrVWrVrh48aLZ6Um+pQVL+7MNBgP69u1r9rujR482+x1CCLKzs3m3XVW3li1bYtu2bWYfOK1WCy8vL7PfW7JkCef1dXd3tzqJkxCKynR45xv5Zg7Grw7DhiO3kJRZgvuFapSU66DRGf41rQFFZVpkFqhxISkf6w7KG+8w5fsIsKzjDXy1AZOI5tvea07EWxPMaDQaMW3aNM7jt2jRwm6Bi3cC/pbVSV+Y+yGyzpxGeVoatIWFMGg0MD5gepUK2vx8lN+7h6wzp3Fx/hxZz5955LBdrpsYbCIQNLpibAqZar0oCJuJpPvhYFlW0g1NSGVVyLM3fsemkHetbs/hS1/abCbBYDDwpi5+9dVXwbIsEhISzP7f1dX1oZTKBoMB27dvF52L4PLly5xtZFkWXbt2Nfu98ePHC+pnSkqKJIFBCOGsk8Bl7u7uOHny5EMzIN27d+cUXwzDIC4ujlMkuLq6Yu/evTYTCRqtEX7fhlvtlN/55iyCIu5Z9dywhCDw9G28/bX1YmXq95E0JsHGaDQa/Oc//xE8M+bu7o6QkBBJtR4IIRg9ejSvSCguLrbZc0IIqcxvYK1THjcaFxfOgyYn+//7CnHtNX1HfT8TF+Z+iPCxb1ndprzoKIeaSZBdIOgMamyPsC750bHLq1GizpY1Nz8hBAkZwfgncr5VbYtK3CT7D1hSUsLpeF1cXPDGG29UPciEEEydOtXs5zp37gytVov169dLTofs5ubGWdKYa1dEo0aNRAVDce0e8Pb2Nvv2wTAM/vOf/0jqj4tLZeGbf/75B5s3bzb7/wYNGjyUGyIsLIyzoqOrqyt27Ngh+z3AsASzf7Mu+dEy/0u4namSLAzMQQjBxaR8zFlvXdtWbL3iUANfbcQUvzNmzBjBy3ItWrTAnj17RAczsizLu4OoadOmFvOtSEV1K8EqJxw5cQKS/vwdjEEv63PCGo24te4XRE6cYFX7SpMSZWmTHMgqEAghOB63RrLz3Ru9DAWqVJsOJIQQJN0Ps0okZBZck609JSUl6NGjB+eDNmLEiBoqv6ysDC1atDD7ea6cA2LMw8MDSUkPR9devXqV883/xo0bovrMsiw6d+5s9lhjxox5aOsmwzC8OesbNmwoOZjRZNXLOBNCEBERwZmkys3NDRs3bpT1PrVmK+PMn8/h6t1Cmz830Ql5VomEveds+2xTKpESv9OmTRsEBASI+n0IIZgzZw7nMZs0aSJ7JlJGq7XK+Sb9vh5Gnc6msxuG8nIk/PyD5DZGTZkEg4NsHZVVINzKPCPZ6V5JOQiGZewygBBCoNGpsO/8cklt3RQyVZYaDgaDAd26deN8wMaNG8c5BXjy5EnJDnHMmDG4e/cuvvzyS87PeHt7Izk5uep8XDEM8+fPl/SbFRQUcAoOU/4BU/pkrkGuYcOGKCkpQWZmJuesiiXr1KmT2VwSJpHAJbjq1q2L7du3y3K/XkzKl+x0Nxy5BZ3eaMfnxoBVO6VVihy7KhQZ+Y6X0ry2Ytr1ICYZWfv27UXFKBiNRixcuJDzeD4+PjUSlVnDpYXzJTndiAljobp9W9JSghQIISi7c0eySLj62XKHENOyCQSGNUh2tiXlWYpcDEIIwm78LqndOyJmW31+vn34Y8eOtXhNuNbTueytt96C/v+xd91RVR3b+9ItUUyMJrbEHhM15qWaFxONMc2ogBWw+2I0iXkaNWo0DUvsJbEmiAVUDPZuRBCwICpFugUUAZEOt8At58z3+4OHP8o55545t5P7rbXXcskpM3PPzP5mzy6a2rnz9eVJyM3N5d0ltGnTRlSdBD4EBARwPtfFxQUVFRWCCWKeeOKJeuRJq9VSpamVyWTYu3evYBtv374t6JNw6tQpyf0HAB3DYuRSaef8t3JKLTZvTsQ8kNTmkUsvmL29dlTNDZraLi4uLrhw4YKoZ+uLbnB3dzdK7Yb7IfslKdvLkyfwJpQzNRi1GlcmT5TU7uK4WIu0uSaMRhD2SajGGHjhc2i0KosyJUIIkrLOSCIJd/OuSHqnXC4XjFbw8fHhtRxkZWXBx8dHdNZDV1dXjB8/XjD8UCjjoqOjI+cO3tHRETExMZL6Xw2GYfDKK69wvlcoSVTHjh0FMyQqFAp4e3uLTrjUrFkz7N27t16oZTXi4uLQqFEjXpIQEiI9RGn1wSRqJTvm1wvIK7b8vLmSmg9PCSTh6JX7Fmv3PxmEEOTn52Po0KFURaH++usvvRsBlmUFoxtatmxpkE+CprREkhPgzSV+khwxjQlCCOIXfS+JJLAWTvduFIJw5+FFauUaFDEdOsZ4TiKG4u7DK9R92H3hP9AxdNXsHj16JLjz5yMHiYmJGDVqFFU65OnTp4uuhLh8+XKqnffUqVON8ttlZGTwKl8+clBSUiLq2aWlpVQ+GS1btsTGjRvr7TYIIYiKiuL1SXBwcMCff/5JPR6ZeXJq5eqzIgJ5JZYlBzWRfL9EkiVBpbaeOhf/NFSHDk+YMIHKmXHr1q2CO3FCCObMmcP7jKeeegoFBQWS2nvzl5+olWvqhnUgRnTYNQSEENz0+5m6Dwk//WDRdhtMEAhhqaMWdoVPhrLSdGEwUlBlSThNTRIS7omPXVUqlYKWAy8vr3rkICsrCwMHDhS9G64pXbt2per/zz//LOq5Li4uRi1ktGTJElHvfeqpp0STAwDYuXOnJAfGNm3aYMuWLfWKQglFNzg7O2PXrl2iv2lCCL7efJVKqQ5fEo4HBQqrmjcAcP12ITVBWHMw2dLN/seDEIIHDx7g888/Fz032rVrJ1jllGEYzJw5k/f+p59+mtonobKwgFqxxn0/H6yFLQd1QQjBjTnfUvdFq7Ccw6LBBOFuHv3Ou0SebXWLHFD1A15I2kLVlx1hE8Cw4s7h3d3deSfO8OHDa41JXl4e2rdvb7CH/ooVK6j6v2DBAr3PvH/fuCZiQojeuhNPPPEE1Gq16GfK5XJRpbL1vXP37t212pmcnMxrnnV0dMSRI0dEte9hSQW1Uk3Jsi5SXQ1CCP6OzaFzWFwSDmWl3YpgDag+lhsxYoToudGsWTPs37+f83ksy2Lq1Km89z755JNUloQrn1OWbR7hCYYxj8M7LRitFpfG0xWUuvmz5awIBhEEQljsjfqSSqHevHfSKn+4ahBCEBRBZxFJyxEu6FNeXi5YFKnmsUJsbCy6du0qmhi0atUKf/zxB06fPs17T80ESmIwf/583vfVTchkDLAsi3//+9+872zdurWgDwXX8/r378/5rB49ekAul2PMmDGik0g1btwYwcHBjwlKcnKyYJ6EU6dO6f3GaXMe/HE6zernzY+BsVR92noy3ar79E+EXC7H0KFDRVssmzZtigMHDtRzfmZZFuPHj+e9T2yeBJ1KRUcOhntAx+NLZC1QZN1H5AhP8X3yGgZ1UaFF2moQQShWPKBSpH9d+tZi3qQ00GhVlFaEibwLXWFhIbp06aKXHJw8eRIdO3YUTQy6dOmCwMDAWkcSfNnNnn/+eSpHnWnTpgm+28nJCQkJxskFwTCMYKU4mawq5LK0tFT0M3fv3s3rWFlRUQGgSqGVlJRgypQposf86aefxubNm8EwDC5evCjokxAQwJ9QS1mpo1Kkk9ZehM7KzKVcUGsZqsyLI5aGQ2mv1WCVKCkpocqj0KpVK+zcubPW+k4IwZdffsl7T8uWLfVGN8Qt+I6KIOSGnrMJ0nnvQAhVv+5sp/dxMgYMIgjHrv1IpUi1OutmdjURe/cgVd8qNPUVWGlpKTp16sQ7QcaMGQN/f38qYvDcc8/xpkhlGIbXifGHH8SZqeLi4kR5ODdu3Bg3btwwaIxZltVLDqrl448/FvXMgoIC3pTVXAWXCCF49OgR/vvf/4r+Ddzd3eHn54fIyEheS4KTkxNvMiXayIVb2ZYJZ5SCsIRcqr5FJRsvRt4O46LamVFIydeV1q1b47fffntMFBiGEbRIuru7C/okRI0aLlqJ3pj7rcW9/sWCZVlcmjBWdN8u+o4Ba0BIuVQYRBBoFOjF1B02s8gBAMPqqOo3nLj+c71n8GU7lMlk6NWrF1q1aiVaKbVv3x6JiYl6xzA7O5tXYd26dUtvv2mKOjVu3Jg6i2JNfPLJJ6LfJZPJcOWK/rDSPn36cN777rvvClpRCCEoLi4WDNWqKy1atMDXX3/NS6icnJw4QyB9VkSKVqALd96wqXlDCMGoZeGi+/f15qs21b9/IqpTOHt7e4ueGy1btnycoZRhGEGS0bp1a86Mi4VXLlPtskvTUm3qW1LlZFP1r/xWuv6HGhmSCUJO8U0qgqCoMDxRhrmRkHmcqo8sW8VelUolWrRowTshaBwPu3Tpglv/ywAmFnxHBO3atRM84uHzPhYKQ3R0dMTdu3epxpVhGAwcOJD3mc2bN+dth1LJn4lvz549vESmsFD8GZ5KpYKPj4/oEElnZ2fe39TBwQGnT59+/PvdfUgX2phqpY6JQki4W0TVR5X9mMFmoFAoMGTIENHh1o0aNUJQUBDUarVen4S8vLxa33rCj4tEK8+Yr6fbxPF1XUR5jxLdx5TVq8y+FkgmCMeu/SRacf4dv8bmFjkA0OoqsSNsongSVFmEwsJCwWMFsTJw4ECkpqZK+uhVKhWeffZZzucuWbKE8564uDjeSZ+dnY3169fzKkFHR0ckJiaKaptGo+F1IJTJZOjZsyeKi4vRs2dPzr8PGjSIc0wKCgp4iUxQUBD1GAJVzqXTpk2TFGJalyRUh4ZtP3tbtOL8alO0TS56DMvCl6Iq5Z1c85QHtsM4IISgqKgIvr6+VAmXtm/fLhhS+fTTTz+2JBCWpSp6VHjDtixt1ShLT6NywCRGSPFPA8kEYfeFz0UrzpyiFJv88QDgTNwK0f08c3WjoEOiGBk9ejTS0w337o6KiuJ9R2ZmZq1r1Wo12rdvz3ntwoULAVQtClu3bhXcKQiVigaq0r1+8MEHvM/o3Lnz42iFgoICXsUcEhJS79nvvPMO57Vvv/22wUq2pKQE8+fPp0pSxUWiVq9ejW//iBGtOM/HWyYFuTGwO/SO6H7+FGS84md2mA/V/juzZ88WPTeefPJJPP/884J/z8/Ph/zObSrzuy0SaQBgNBqqDJHmLuIkiSDoGI1opRkY8YVRChtZCpmPYkT3tUVL6XH3Hh4eePDggVHLjw4fPpzzXW3btq01ofiOJDp27Fgr/TAhBOvXr+ftQ9OmTZGSksLbpgEDBvDe27p1a6hUqlrXBwYGcl7brFmzWlENQgmR+FIySxnPgoICzJo1yyCS8Mqw2Rj2y3lRitPSKWINwd3ccqpjBpa1TSJkx/+ncKZJuCRkeXjyySdxdctm0Uoz8delNkukCSG4uXSx6L4WXLxo1vZJIgh38i6JVprHr/9isz8eUPUDbj8/TrCPW0+Pgasb/e7S0dERnp6ej0PvTNF2vlj/2bNngxCCzMxMTuXq4ODAG6Wwbt06wT7V9UlgWRYvv/wy7z3t27fnTAlNCEHv3r057/n0008fmzr5fAWqq0IaG2q1GhO/dp+cAAAgAElEQVQnTpR89PDayB/0kgTPxWE2P2/GrhR/zKBjbHMHaEdtqNVqeHt7G2Rtk8lkaOLsjJCPBuGCxxC9SlNjpE2ApVAQfUU0QUj6lfuI2FSQRBAup+8STRDu5kUbu81mx55I/mRQ6w8Nx1Otm9B9/E2aYMqUKfWSi5gCKSkpnG1wcHBAfHw8b6TF7NmzBZ8rZElwdHREWloagKpjhQ8//JD32pdeekkwCdL9+/fRpAn3+IaHh+ONN97g/NvAgQNNbnYsLy/HxIkTRSdcqimveMwVJAkNoaDRr/tvUjgq2kZ4mh3iUF5eDl9fX4P8d5o4O2P/Rx/oVZrERo8XqlFZWCiaIESNGWnWtkkiCKdil4kmCLaU+4APZ+NWcfZtccBgtHha/LGCi4sLli5ditJS88a184UYNW3alPP/W7VqpbfWQvVxA59p38XFBdHR0Rg0aBDveHTv3h1yEWdqmzZt4rzfycmJ8/1PPPGEQZXjaFFeXo65c+fSLYYODnjpo2m8JKEhJBA6cvm+aIJwNZ2+iI8d1o/CwkLMmjVLMlFo7OSEvz4axK80vYbZtKUNqFpLadIvmxOSCMKBK3NFEwRCbJvdAUBS1tl6/Zr/G/+uWEgh9unTx+zy0ksvUbWzQ4cOop8tVO9AXzhnjx49RL3j5ZdfFu0tLZNVeUxbYpyFCnHxyROtnkfvT7+ufyZv44seAMTdER/uuPdChqWba4eJQAh5TBSkkIQmzs74i8eSELtgnqW7ZxRcnz2r4RCEfRdnUBAE21/oiuXZ9frl4ipeYdnFLoLi4IBPvjtYS2E2hHlTVFYpmiD8fizV0s21wwxQq9UYO3Ys9Rxp7OyMAx/XtyTc2bXD0l0yCpKWL+MkA44ODvXEycnJbCKJIOwVOJNviARBq6us1adR0/5leaVilwYjjk4u8Khz1NAQ5o1Gx9Tq0wsDxGeptItduGRE5061FOiD40ct/ZkbBam/reckCJYeb0kEgSYHQkNY6ID6aaXHfGknCXYxjjz3r0/r7agbyrzxWmwnCHYxnjjIZLUU6KOICEt/4kbB7T+3NRyCsDN80j+eIMxdw58q2C52oZEmT7ZpsARhxNJwO0Gwi9Hkk+fa1yYIkQ2DINzdtaPhEISgiGn/KIKg0VXU6tOCDfye+XaxixQZ/P3xBkcQ1Fr7EYNdjCtjunaufcRw9IilP3OjIG3DuoZDEPZfmvmPIghF8qxafVp3wAtOzuILLslkMjzzzDNITzd/Na5qREVFiYoE4KvVwAedTod///vfVGPh6OiI5ORkqveUlZWJCpXq16+fVXxzeXl5GDdunOjCXM9079vgCEJhHSdFO0Gwi6HS88knaynQu4G7LP2ZGwV8TopdmjevJ+aMzJJEEA5Gz/tHEYTU7NB6/Vq931NS9sTevXsjLCzMrO2vqKhA27ZtRbfx3r17op6r0Wjw6aef8j6nbdu2ggWeLl26JLoPfMWbuCQgIEDiSBmO1NRUjB49WjQxcHRyQZe3R2LID2caXJjjzcxi0VEMu0LpKoLa0XCgUqmwbNkyPPHEE6LmzLmhgx8r0Pgfvrd0842CG9/NbjhhjqduLP1H5UE4Hbucs28r9gyDayNpKUV79uyJyMhIs7R/ypQpnG3gq37YsmVLvVkIdTod3n//fd7+tW/fHgqFQrBOgpubGy5cuKC3/WvXrqUqkd2sWTPk5uYaafTE4datW3jvvfeoUsy26z2w3tFCQyIIhy6JT5R0/Zb4ctx2NAyo1WpMnTpVsJx8XXm/XVucrUEQIkd6WbobRsGlsT4NhyBcSd8tmiDcyjWPEjQl9kV9zdu/tSFeBuVEaN269eO0xKYAX60FmUyGlJQUtGzZkvNvU6dOFXzuK6+8wtunzp07P66tQAjBwYMHea91dnZGbGws73uys7Ph5ubGeW9cXBzefPNN7oXk/ffNYr3KzMxEq1atqAiMTCbDCwPGC6Za/isiU//LrRxrDiaJJghqre0WprKDDlqtFiNHjqTKrvh0o0Y4MfhjztoMtm6l1pSWUlV0NCckEYR7+ddFE4QT1xfb9A9ICEFA2ATBPq474AUnJzoFUVdatWqF7Oxso7Zdp9PxsvM5c+YAADIyMniLNcXHx3M+s1u3brz96NWrF2fhpb/++ov3HkdHR2Rk1M+kRwjBa6+9xnnP4MGDAVSlcuXL5miqYk2EEKSkpAiWrRWSbv3G6FWYI5bYth8CIQRT1l0UTRB0Otu3NNohjJKSEowZM4Z+E9W4MUKHfcarMLUK85ZANjaKblwXTQ5u/vKjWdsmiSBUaMpFE4SgiGk2vdDlFqeI6uf6g8Ml+STUlR49euCikUp68mUsa9euXa1aC1988QXndXXLPVdWVuKdd97hbfvrr79e6/q62LVrl6BPwtWrV2tdHxgYyHm9u7s7Cgv/3yQdEBDAeZ2Tk5PRyj1X49y5c+jcubPk37f7uz6iyz3b8jFDTqESniLJgYefvdxzQ8bt27fh6+tLbWWTyWTo8ERTQXIQ4TkUyWtWWrqLBiHt9w2iCULRtRiztk0SQQCAXRemiCYJD0tMZ0I3Nc4lrBPdz4Pn1wg62vBVJeSSl19+GSdPnpTc7oiICN7z8LpOiGq1Gu3ateO8du7cuY+vee+993jb26tXL0FyAFTtKnfs2MG7ULi6uj72SSgsLOStkhgSElKLdLIsy0tc+vXrZ3BVR0IIdu/ebRAxkMlkWLBgAWZsjhatNCMTzVdwytgIjsgQ3c+lwTct3Vw7TIC0tDS8//77VHVUakrn5s1xZsinohSnrW5CWa0WkSOHiyYIOoHKt6aAZIJAU7ApPHGzTf6ADKtBwPnxovupVJcgJydHsIDRpEmT8Pbbb4ueJG3btqXy9geqdvqtWrXifN5vv/3GeU9CQgKv4i4qKhIs+FTT50AfCCEICgrifZarqyuuXr2KLl26cP59wIABnAq/rKyM11fhzz//pBq/mggMDMRTTz1lEDGQyWSYN28eCCHYfCJNtOKcue2qTc4bliUYveyC6H5mPLRtE7EdtZGZmYkePXpIJgYyWVW0198ilWaE51CU3b5l6W5LgjwzQ3QfIzzNX9paMkG4XyDeD8E/1AeVGvMyH2MgPecCVR9ZUuVopVKpeEspy2Qy/Pjjj5DL5ejZs6foSdSiRQvEx8eLUhiTJk3ifEbHjh0Fd9MzZ86knsh8Pgf6cOjQIep3NWrUSNBKsWfPHs77GjdujEePHolum1qtxvbt23ktGLTy008/PX52+oMy0YrTwy8MOUVK6rG1NDIfyan6qFILlxa3w/rBsizS09PRpk0bg+dLt27doNVqEb9wgWjFeX3WNzZJpi9PniC6jymrV5q9j5IJAlA//bCQJGQeM1abzQKW1WFXuPhjlGMxtZ1HlEolmjVrxjsJVq6sOjfLzs7GBx98IJootG/fHpGRkbwfSlpaGqclwNnZGSkpKXr6zFJN8Ndffx0VFRWSx3j37t1U55Lh4eF6n8kX1TBo0CAwjLCnvFKpxNatW6m8qzt16gRXV1fev8+fP7/ebzX6V/G761/337S5hW/86kjR/fty0xWb658d/w+WZXHhwgWDj9+qpXPnztBoNACAnFMnqXbXKjOHNhuKiryHVP0rTzf/Ub1BBOHw1QVUJMGWciIkP/ibqm9yVUG9Zzx8+FDQPL1o0aLH1966dQteXl6iJ1KvXr1w/PjxWu9jGIbXB2LRokWiFmI+glFX+vTpo9fnQB/0+STUlJEjR4p6ZkFBAa/1Jjg4mPMepVKJefPmiU7UIpPJ4OnpiSNHjqBFixa81yxYsIDTYvPrXzepdtj3HtmOCf5aegFV38IScmHnB7aJ4OBgvPDCC1TK/+mnn+b9e+/evWttOAjLIHKkl2gFGjv/O5sim9HTp4ruW9SYkWD+R5zMCYMIQqkyh0qJBkfNtIkfkGF1VP2qOl7gJj/5+flwd3fnnRRffvllreuzs7Px4Ycfip50zz333OPMjMOGDeO8pm7Ugj7MnTtXNMs3FNUOgELva9y4MeRycUqSEIL9+/dzkg4XF5d6pMbLy0vQZ6SueHl5IScnB/fv3xckB/Pnz+c9zqlQM1RKdOKaKIMdLc0BHcNSWUc8/MJQqjD/omeHYQgICMCzzz4res60a9cOV69exVtvvcV7zYsvvggFhwNe7NxvqXbZ+Zcv2YSOeXD0CFW/0jass0i/DCIILGGxQ0+OgLqSdP+MVf+AhBAEhosvZ+0f6oOUB+cEn6nPJ2Hu3Ln1xkSj0eDll18WbYJv1KgR77XFxcWi+88wDG9Eg0xWlWVRn6leCgIDA3nf6ejoiKSkJNHPIoRg0CDuglrdunWDQqGgS4fs6IgRI0Y8JkXFxcWC/gk//qg/Vtl7eQSVIg04e8vq583iPfFUfdp0PNVuPbARaLVaBAUFUWUKbdOmDXJycsAwDN59913e67p168a74dCWlVIp0gjPodBVqMw8OnSoyH+EiOEeVH2qLKxvoTYHDCIIAHArN4JKmW4/Pw7lqkdWu9hdTttJ1Z+A8+NQqdG/u1UqlYIkYeHChZz35efn491335XsEbx69WrRfVer1byJiarFwcEBd+8aP29+hw4dBN/r5OSk14eiJkpKSnjDSsUSg8aNG8PHx6eW9SUrK0uQHMyfP19U++49UlApUw+/MGTkya123oQnPKTqi+fiMDwslu6/Yod5oFKpsG3bNqp0yK+99hpSUlJACIFWq8XHH3/Me22HDh30WiOjP59MpUwvTxoPlrXOzJysTofoL/5D1Z/Y7+aYPXqhGgYTBIbVIShSfPln/9Cq5EkVGuMmsDEG7uZdoT5aiL4VJHrRzs/PFzRLz5o1i/M+QgjS0tLg6elJRQ6efvpp0W1Tq9Xo37+/qOe6u7sb1eTt5+cn6r0uLi5U9Sv0HV3wiZubG77//nuUl5fXGr+bN28KHhcJHSvUBUsIvqLIieDhF4ZRyy7goRVGNaQ9KKVKiuThF4afAuOsluzYUVXgzc/Pj+r47bPPPkNCQkKt57z++uu814uNgFI9zKW2IiQutc4Mvskrl1P3RZWTY7H2GkwQACAp6zS1Yt0b9TUY1nrCm6oyJvpS9WFX+BRodHS7oJycHEGSMG3aNN57CSHIzMzE4MGDRU/aTp064fDhw4Jt0mq16Nu3L5USnTx5MlW/+ZCenk61O3F1dRWdQCo9PZ3KJCqTyfDHH39w+jukpqaiefPmvPetXLmSmjSlZpVSWxHGroxEsdww51BjIq9EBa/FdH3w8AtDucrue2CNqKiowJQpU6iSuo0cORKZmZn1FLJQvZaePXtS+RXdmD2LWrGmb7Wu/DuJyxZT9yFuXv3jZ3PCKAQBAIIivqAmCf6hY63iB8wpTpbQdh/cfhgl6X0qlUpwAvJZEmpCo9HgX//6l+hJ3LhxY1y/fp3zWe3bt+e9r3379rwm+Rs3bkjqfzVYlkX37t05n80XriiTVfkEXLlyhfe52dnZaNOmDZWPQVAQvyWoqKhIMJRx48aNksdg8d4EauXquTgMKjV97gljI/NhOXXbPfzCcCDqnqWbbgcHPDw8qMKOP/roI14LwMsvvyy4aaHNnVKZ/4hauUZ4DsVt/z+tQsck/PKTpPZb6mihGkYjCJVauSQlu/vC5yhR5FjkRySERVzmEUnt3n9ppkFhm0qlUjCsbvbs2XrHxMPDg2p3LJNVlUIODQ0FwzBQq9WCGRJfffVVqNVqTJ8+nfPvbdu2hVIp3eT9+++/cz63efPmUKlUOH/+PK8FoC5JYFkW169fR9u2banGY+3atYI7/3v37gmSg99//11y/wGgQsNg5NJwSSThdm65heYNQWRiHvWxgodfGHxXRtp0jYmGhnv37mHs2LGifZwaNWqEKVOmQKXidgTUarWC0Qq9e/eWlFgNADL37ZGkZG/6/QSdgSHZUqFTqXBj3lxJ7X4UccEiba4JoxEEALhxN0SSst0eOhapD86bNU+CWqvEyetLJLbXF1rG8A+upKRE8Ez7u+++4733zJkzBqUy7dSpE9544w3ev/ft2/dxTDIhhDey4auvvpKkpIqLi3kTEv3999+P33vw4EFBknD69GkcP34cPXr0kDQOvXr14iUISUlJgiRu+fLlRlHQ5+JyJe3EPf3CEByRAcaMuwyGJdhwJFlyezPybCenQ0PG7du3MWLECCpi8M033+jdEAilkX/99dclkwOgaj24Ou1zScr20sRxUNyrfwxiSpSnp+Gi7xhJ7Y2d/53FrQeAkQkCIQTHr/0sSen6h/rgcPT3qFCb3nkx5UEodoZPktzOrIJYo7UlOztbkCRMnz693j1yuZy31sKSJUvg7e0tmTjIZFXm/boTOTk5mXcxSU5Opu43X62FESNG1FLY1STBEDKkT7Zs2VKvfUlJSXp9Doy52Py6ny55Uk354vfLyMo3fSrzy6n58FlBF55ZU4IjMqzC3PtPRmpqKlUBJVdXV6xbt44zR0Fd9OnTR3DDwWd1oIFWLpekcCM8hyJiuAfSt2wCa4Iw7ZpgNBokr14puZ0XfUZDU15m0jaKhVEJAgBodRXYETZRsvL1D/XF0ZgfodUZ3ySUV5KOoIjpBrTNB5HJ24y+yJWUlAjuVGfMmFHr+nHjxnFe16lTJxBCQAiBQqEQrL7IJ6+99hrnjpoQgsWLF3Pe4+bmRuWgN2/ePM6zzqZNm3IuIoQQnD59WjIBaNu2LdLS0hASEsLb/prlo3NzcwW9tzds2GD0b4BliUHK18MvDFM3XIK8wvi+CfmlFfjit0sGtW1+wHV7SWcLorCwEM8//zyVj8Hu3buh0WhEfetC5KBnz55Qq9VG60v5ndvSSYLnUESOHoF7fwUbfQ4TQpCxJxCRo8RXZ+SS0hT6DZepYHSCAAAlimwEnB9nkCL2D/VByOW5yCu9Ba2uUvKPqawswc17p7AzfLLB7Tl+/RfejImGQqlUCjouLly4ECzLIjY2lrfWQg5HOAzDMPjggw9Ee/M3atQI4eHhnJkXWZZFt27dOO8bNWqUqN/ozp07vGf6QlUrlUolvvzySypi0K1bN9y/f7/Wc/jORwcOHAidTofc3FxBnwOavBK0KJGrDSYJHn5h+M/6S4hJL4CiQit53pQqNDgfl4uxKw1vz5R1l6BjLG8u/aeBYRjExsYKJj6rK61bt8aOHTtEE36NRiPoUNyrVy+qLK6iQAjuH/jLICVcbVFIWbcGqtxcEIlWBVangyo3F2m/rUeE1zCD25R77m/jjpWBMAlBAICcoiSDFXJNH4WjMT8g9UEosgtvolz1CFpdfUaq1ipQrMjCg8J4XErbgcCIqaANXeSTfVEzTB6WqVQqBc3aCxYs4N3ZrlmzhlcZEEKowwnbtWuHw4cP18uamJiYyEk2HBwcEBMTI9g/rVbLu9Pw8PDgHZP169eLDrtycHDAgAEDEBfHHWevUCh4E1YtX75c8D3G8jkQQlaBkjpdMe+Z/+IwfLMlGkev3EfsnULkFCqhrKxvYahQ6/CgQIn4jGIEht7B1A2XJTkgcsnYVZHQ2smB2XHmzBm8+OKLoud7hw4dsHPnTupQ3XfeeYf3mX369DE+OagGIUjf+JvhJKFaRngiZc0q5F+MQvnt21CXlNSb64QQqIuKUJ6ejkeREUhctgQRIzyN1oa7O7abZqwMgMkIAgA8LEkxGkmoewzhH+qL7aG+2BP5Jbb/79/GIgN15a9Ls6BjjGciE4K+PAlc0rt3b8GJWFlZKZiwREg6deqEvXv31nre7NmzOa9t3769YAGn1atXc973xBNP1KsKqdPpMHPmTKoCSjJZ1ZnpsWP8lUMJIQgODqYytZqLHFQj4yFduWTRhOF/pMFrcRgmrInCiCXh8Fpc9X/GIgQ1ZeKaKBSVm2fe2FGFffv28Vr5uKRz5844evSopPTpQpaDt99+2+BibvpACEHa+rXGIwk1xWsYIoZ7IHLU8KqSzMM9qsQIVgJuchBgFU6JdWFSggAAheWZJiIJ5pHDV78Hw5o35rykpITXCbGuODo6IldPmdOuXbtKIgc1pVWrVo8TLhFCeEnMzJncBbk0Gg3vMUdERMTje7RaLXx8fODm5ia5rS4uLjh3jr8+BsuyVFkp165da3bnujKlxiQkwVzyn/WXoOCwVthhGgQFBaFly5aiv+mnnnoKiYmJkjOiCiVBMkalV7EghOBu4G7TkAQzyf2Q/VbrvGtyggAAZao87DKCD4C55dSNpRYrUa3RaERZElauXMn7DLVaLVhe9d///je0Wi3efvtt3pDDuuLm5oaoqCjcuXOHV+HXTaBECOE9OvH19QUhBMXFxfD29hbtXe3m5oZBgwbxXu/o6Ijo6GjesVEoFILRIzXJgaVQptJg0tqLFlf2tDJ94xW7z4EZoFarsWPHDtFk2sHBAd27d0dGhvRoEq1WK1ivpWvXrqY7VhBAzulTJtvdm0y8huHhubNmHysamIUgAICOUeP49V8srvTFSnLWWYuzOo1Gg2eeeYZ3Mjo7O/O2US6Xo2fPnrz3Dhgw4HEoIyEEJSUlGD9+vGii0LJlS94oiUaNGtUyWf7444+c1z355JNISEjAyJEjqapW1ozHPnXqFG+bHR0dBS0JK1asEHyXKaIVaKHVsVhzUFreAUtIUPhdeyIkE0OpVGLVqlVUVrZBgwYhOTnZ4O9Z6Fjhtddeswg5AAAQgvK0VFyeNN7yil+ERH8+GRX5+ZYZKwqYjSAAVYoo+cEZiyt/Idl/aSbKVA/NOSyC0BfeN378+Hr3qFQqwYn8xhtvcIYdEULw4MEDTJgwQfTCwyejRo0CAKSlpfE6Vnbr1k20xcDJyQlLlixBeXl5vTaHhITwWjNcXV0fJ16qiZSUFEELzQsvvGC5xa4OCCG4mJxvceUvJGNXRSLpXn3HLjuMB6VSiUWLFlERgyFDhiAxMdEov4uQH1Pfvn2NGsooFbqKCiT6/WxxAiAkKWtWQ2eEnBDmgFkJAlC12KnUpTga86PFyUBdSbx/yuz+Bvogxklv7Nixte4RSp8shuUTQpCXl8ebb0GMODg4ICoqSnKGw2pxdnbG5s2bBTO4EUJw9OhRXiuEm5sbzpw58/j6hIQEwWiRatm1a5dVKTxlhQ4r/kq0OBmoKzvP3UGlxjrL6zYUTJw4UbBcfF3x9PREbm6u0b5foTwHr7/+ulGSIBkLhJCqLIbeoyxOBmpK5EgvyDNtK1mY2QlCTZQosrHToKRKxhBfHI35AQxjXcQAAN59913RC8LUqVOh1WrRunVr3mvefPNNaqckhmHQv39/SZkMaSMFakqjRo2wfft2qvaeO3eO953VPgm5ubmij1GcnJzw6NEj2p/N5Cgoq8S4VZEWJwYzNl9FhRUUjWqoUKlUGDFihOh55OTkhFGjRtWLCDIE+orCWcrnQAwIy+Lurh2IHOFlcWJw/+ABq4xS0AeLEgSgqmBSTlEiDl75zqzEIOD8OJxLWIMKdZlVMrqzZ89SK1ihGP7+/fsblAe9tLQU3t7ecHFxkaz0xUiHDh0QGBgo2bv66NGjgj4JtOWfu3fvLrktpgRLCDIeyjHH/7rZicHCnbHIKVRa5bxpCLhz5w58fX2p6iR8/vnnRiUGQBU56NWrF+97e/bsabXkoCYIw+De/n24NM7XrMTg8oSxuLd/H1gbGCM+WJwgVIMQFoXlmbiSvsukEQ8HLs9BanYo1FrrXeBKS0t5wxxXrFhBlRlNJpOhX79+0Gg0BreLEIKHDx9i2rRpRicGPXr0wKFDhwxWxoQQHD9+nIrIODg4YP369YJjbq1gCUFOoQp7wjPgu9J0VoX/rL+EI1eyUK7S2J0QTYSkpCR88sknoolB48aNsXjxYqMTA6DKcvjCCy/wvnvgwIFW4XMgFoQQMGo1Cq9GI3GJn+mIgdcwJP26BMXxcZKzM1oTrIYgVIMQAobVobA8A7F3D2Fv1FcGk4KTsUuQ8Sga5apHFgtbpAFfjH6nTp3Asizy8/MFjxJqyquvvmqQ5YALhBDk5ORg7NixRrEYREZGSkrUItS+0NBQ0daCP//887EfA9ffXV1dkZ2dbbT2mQKEVFVazHykwJErWfh6c7TBpGCu/3WEJ+ThQYESDEusllDbOrKzs/HOO+9QWbc2b96MsjLTWD8ZhkHv3r153/3BBx+YLc+BKUAIgU6hQEl8HNJ+W49IA7MhRo0ZifRNv6M0OQmacsuUYDcVrI4gcIElDBhWi8LyTFy/sx8nrvvhwOU5dY4MxuPEdT+cjV+J27kXoWPUYFitTRCCmoiIiOA9WsivERajVqv1xvG/+uqrJm9vda0HWmLg5uZmcqUbFxentx0hISG17unbty/nda+//rpRSYw5wLIEGh2Lh8UqHLx4Dwt3x2KO/7VaJMBzcRi+3xWLn/fE41xsDtRaBloday+sZAY8ePCAKrmRTCYz6PhNDBiGEczE+Morr9jcPBADotOB1ahRHBeL29u2IH7hgnpOjlcmTUD8wgW4tXULim5cA6NWVx0fNCBCUBc2QRBqQqNTQVlZDHlFAYrlWSiS30eR/D7KVHmQVxSgUmO7DE6n0/GGMG3fXjtPt1Kp1Jtr/auvvjJpe+VyOf744w+qGg/V4uTkhCNHjhjl6IMPqampgrsyBweHenkSdDodmjVrxnn9pk2bbPbbqtQwKJarkV9agfv5CmTmyZGZJ0dOoQr5pRUoUajtpMBMuHLlCrp27Srax6ht27b4448/TO4LU1lZKZg7paGSAzv4YdUEgWG1eFAYj+j0QJyO/RV7IsWWavZFyOXZOJewFklZZ1CqFE5FbC3o378/58R85513ai0OcrlcMOyopkyePNno7VSr1Vi0aBFV2BWfPPPMM9i8ebPRF57o6GjBks01ScL+/ftr3csXDeHq6op79+4ZtZ2mgI5hkXSvBLvP34XfnnhMXic+G+PU3y7jlz3xOHTpPjLzFJbuSkJtpkEAACAASURBVINCcHAwVZ2E7t2748CBA2YhpQzDCG44Pv30Uzs5+AfC6ggCy+oQf+8IDkXPx/bQsUZzTgyK+AJn4lYiryTN0l3kxPHjxzmVkpubW60yzpWVlVRV2mSy+nkSpEKtVuObb74RXVmRRtq0aYPff//dKIthQkICrxWAS1xcXB7XmQCqajV4eXlxXturVy+rjGoAgFPXsjHH/xpGLjVONUgPvzD4rIjEwl2xuHarsCFbUk2K4OBgdO7cmcpicO7cObMpZH0+Bx9++KFNOSTaYTxYDUEokt//n0OiaSoy1vVX+Dt+DVgTl28WCyF/gs2bN9e6Vqi2gpBMmDDBoDb6+vqaPMRRJqsK1dyzZ49konD37l3JRx4nTpx4/By5XM6bTGnDhg0GjaUxUVhWiTn+1+G1ONzk4Y3Dl4Rjzp8xUOvsO0kx2LVrF5o3by6aGDz77LO4e/euWY+xGIYRPFZ46623jO7kbIftwOIE4VHpLQRe+NysORBqytn4lVBUFlqs/4QQDB06lHNydujQ4fF1CoUCbdu25Z3IgwcPhkqlEnRc/Oqrr6gWn7y8PPj4+EhOeGQIoXByckJISAjVzuXu3buCSZACAgIQHR3Ne42DgwNCQ0MfPy84OJgz5MzJyQkPHjwQ3S5TIKdIiYlro8yeA6FaZv0Rgwf2XAj1UFFRgZ07d1J9+y+++CJSUlLMPpb6fA769OljP1b4h8NiBCG/7DYCL3xhMWJQVyJT/oBGZ/x4Yn3gO1pwdHREWVkZgKryz0Ilm4cMGfJ4IqvVakEiMXXqVL1tSk5OxvDhwyVlT6ypbKOiogQTrYiRFi1aYOvWrXp3MTExMXB1deVty+bNm0FIVaje33//LXhtzciGTz75hPO63r17W2RnlV2owsxtMRYjBnVlWfBNyFX2HWZZWRlWrFghOkunTFZ1rp+WlmYRksUwjGBK9gEDBtjJgR3mJwgMq0XozXUWJwRcsit8Cm7lRoLAPBNWrVbz1lrYvn07CCFQKBSC5OCjjz6qN5FLS0vRpUsX3nuGDx/O2Z7k5GQMGDCAKoMbn6KdNGkSCCG4desWb2RG//79RVsnWrVqhTVr1nAupjExMYIOkzt27Kh1HyEE4eHhvLs8Z2dn7Nu3D0BVNjm+I4tVq1aZdXHfdDwNnostTwrqyoil4QiOyPxH+ijodDpMnTpVVM2UahkzZozZjxJqQl8o45AhQ+w+B3YAMDNBqNSUY6cJsyQaS45f/8Us4/HWW29xTtB+/fo9TmEqlDWxf//+vA5zCoVCsFT0uHHjHl+bl5eHnj17UiVq8ff3x+zZszn/5uLiUou0LF68mPO6Fi1a4OHDhxg/frzo97Zo0eIxeQKAzMxMwWiF3bt3cy7EhBBERUXx3ufs7IyzZ6tqtUdHR/NGNZgjgZKyUodxqyx3nCBWvtkSDR1jnQ6cpoC3tzdVZUVvb2/k5eVZ9FiGYRhBq16/fv3s5MCOxzALQSCEIPH+KYsrfhrZETbRpL4Jx48f55ygbm5uKCoqQmVlpaBD4scff6zXBMgwjGDVwqFDh1KlbXZ3d0dAQAAYhsGdO3d4CUViYmK9tvClMfb29gYhBFqtFiNGjOC1SHAp8H379gme9e7atUvv73Djxg3efjg4OOD8+fMghMDb25vzmu7du5tswSeE4NqtQosrflrJLuSvvGnrKCoqgre3t2grm4uLC4YOHWoVjn6VlZWC1VXtPgd21IXJCQLLMjh/c4PFFb4UCTg/DrnFxnceKikp4XUm3LZtG0pKSgQn8meffSa6SArDMHj++edFkwAu6dy5M3bt2lVr8eCzTsycOZNzvFQqFacirk5WVO0fUF5ejunTpxvk4Ojg4IAtW7aI/t3OnTvH+z4HBwccPnwYJSUlvCRnzZo14n54Suw8d8fiyl6KePqFISrpUYNyYLxz5w5Gjx4t2srWtGlTzJgxw2p24/qiFfr162cnB3bUg8kJwonrfhZX9IaJL249jDTqmPBFLfTo0QNlZWXo3r0770T++OOPqSuoyeVyQZ8EPunSpQuOHz9e7xjj66+/5ry+Q4cOgnXhN23axHlfixYtahWcIYSguLgYP/zwgyRHSRpyUP2+M2fO8FovnJycsHfvXl6HUgcHB2RmZlL9Jvrw6/6bFlf0hsqe8AybJwmpqan48MMPqb7D1atXo7S01Gr6rs/nwJ7nwA4+mJQgBF/8xiRK+/i1X3DjzgGkZZ9/LIn3TyEqxR8hdWo0GEtSc84bZUwOHz7M65inVCrRsWNH3oks5HMghKCgIEF/hLry7LPPIiYmhpOICB0tXL16VbAdWq2WNyGLh4dHveuricKsWbNEt93V1RUrV66kXpyrHRf5FIGLiwv27duHwYMHc/69d+/eRit9+3NQvEkU9qxtV7Hj71s4eyPnsZy+lo3NJ9Lw361XTUYSbBEZGRl45ZVXRBMDJycnbN68GZWVlVZDDAD9JZsHDBhgkmqQdjQMmIQgEEJw5OpCoyjmHWETcSVtNyrU8sdmaDHvJ4RFfukdHLv2MwLOjzNKW+4XXDdo8isUCl6npqCgIEFP6A8//JCKHGi1WgQFBVGZ6ps0aYKMDP4FnWVZ3oiKESNGiGpXRkaGJIKh0+l4lTOXODs7Y9euXdRKOzY2llcpVKdl5sskuXz5coO+D0II/jxzyyiKeeTScKw+mIii8krKeUPwsFiFJXvjMWKpcZIvnbmWY1VKUwj37t1Dp06dREfXNGrUCDt27LDK7JoVFRWCG44+ffoYjdTa0TBhdIJACEFU6p8GKeLtob44dWMpShUPRS9uwm1ikZ4TgeCL/zX4uCGvNF1yOwYOHMg5UV977TXBI4DPPvtM9PmgWq3Gxo0bJadD9vX15R3vhQsXct7j7u5OtdD88MMPnM9p3rw5ysvLOe+5fPkyVZRFtTRu3Bh//vmn4NFHXYSHh/MSOQcHB8yZM4dTgTg5OeHu3bui31MThBAcuZJlsDKeF3Adt3LKwBpl3hDEpBfgv1sMty5cSn5kUFtMCUIILly4gA4dOoj+rjp06ICAgACrJAaAfnLwwQcfWG3b7bAeGJ0g3M27bJASDk3YAEVFkVGIQV0QQvCgIIGi6FN92X3hP1Br6b20g4ODeWstPPvss7wTWWyRFJVKhTlz5khKM1xXPDw86o19fHw8r4JOSkqiGguWZdG5c2fOZ3l6etZbuEJDQ6nCybjkqaeewooVK0QtioQQREZG8oZPOjg44LnnnuP824svvihp4c3MkxukgL/fcQM5/8tsaIp5k5JVghmbo6VbNJZdsLroBkIIQkJC0L17d9EWg86dO+PQoUNW7dCnVqvRvn173j4MHz7cbjmwQxSMShB0jFpygaUdYZNQLH9gFlbLsgwSMo9JJgkHo+dRvU+pVPLu6IXC+nx8fPSOh06nw+TJk0VVLqyWMWPG4Pbt24LRDcOGDaulaPh8GL799ltJCqm0tJSXcJw8efLxdZcvXxYkB8HBwVi0aJHoBd7d3R1Lly7VO66EEMHsjI6OjrzHN8uXL6cej+FLpJnzRywNR2JmsZnmDYvIpDzJJGHKukvQ6qxj17plyxY8++yzor+b559/HrGxsVa/61ar1bzkVSaTYfTo0VYRcmmHbcCoBEGqwj0cvQAsy5r9nLJEkYPt56URmqT7p0W/56OPPuLdifJNZC8vL73j4enpSeVdPWzYMGg0msf368uTMHz4cBBCMH36dM6/t2nTxqDFJiAggPO5Li4uqKioQG5uruCxQkRExONn6XQ6jBs3TvRYODs7Y+3atXrbePv2bUmRFCUlJaLHYdrvVyQpXN+VkRaZN4oKLUb/Kq1i5JYTlq2meuDAASq/HHd3d2Rk2EY0hlarFSQH/fr1s3qCY4d1wWgE4dqd/ZIU7ZX0QIt+tAyjkxRtsf38WKi1Cr3PP3ToEHWxIx8fH14TZlZWFnx8fESfx7u6umL8+PFQKLjbyjCMYITDiBEjeGtFxMTEGDj2DF555RXO9w4ZMoS3j46OjrXqJdSEUqnEjBkzRPtgODs7Y+PGjVAq+c3fcXFx1Ec3nTt3FkWeopIeSVK0S/fFW3Te6BgWC3bckNT2EoVG/wuMCIVCAX9/f9HEwMHBAa+++ipu375tE8QAqPruhfyY7OTADikwCkGo0JRJihRIzwm3io+2KupiEXX7j137SXABKS4upsrRLkQOEhMTMWrUKKpELYsWLRKlpBQKBXWehKlTpxpl8czIyKBSvo6OjggKCtL7boVCgQULFoje/bu7u2PJkiWc41WdlpnmGEcmk+GXX34RbGelhsHYlZHUCnZ36B2rmTe/7ImTZvkwg+LVaDT46aef0KxZM9G/mYeHB5KSkmyGGAD6jxW4/HrssEMMjEIQTsUuo1auqQ/OW9UkZFgtDl6ZT92PvFJ+kylfrQU+8fb2rjeRMzMz8dZbb1F58G/atAlyuZxqfMvLy9GpUydRz3dxcTGqk9PKlStF9y0kJIS6X0uXLhVtxWnWrBnmzZtX73cghODKlStUZMbV1RUpKSm8bdshIVPiznO3zaJcxYIQgh92x1L3IzLJdFEN1cdNNJE8Y8eOxb1796xqTRIDMeSg5rGiHXbQwGCCUKLMoVaqMbf3WSWjZVkd9kTQRTgcu/Yj56Jy9OhRanJQE7m5uYL+AVxy9OhRg8aVYRjB+g/VkpeXJ/kdfOBLY1xTLl26JPn5DMNg0aJFosfSyckJy5Ytq/fbZmRkUPkktG3blvM3Ual11Er1x93W6STHEoKZ2+hCIaesuwSWNa4y1mq11GXKhwwZYrNOexqNRrC0+8cff2yV34sdtgODCUJY4m9UCvXAlblW/dGWq/LhH+pL1aciee00u0qlkiosr+axQmxsLLp27UpVBvmPP/4wWtgVwzBo2bIl7/teffVVk/x+0dHRvO+srodgDGi1WkybNo3KR2HTpk21fBSSk5Opft/169fXa0dQWAaVQvVZEWHV80au0sB7eQRVn6KMlBshLy8Pvr6+VGXKfX19bZYYAFVHaHyhwjKZDP/+97+t+nuxwzZgEEFQa5XU1gMdY/3mrqSsM1R9OhrzQ637+RIiCZGDkydPomPHjqKJQZcuXRAYGGiSeOypU6cKvnvUqFFGNcWGh4cLOpA1bdqUKipAHwghkMvlmDNnjmil0qxZM6xevRoVFRUghODixYuifRIcHBzqJVCitR6UV1j/vLlxm67y5LSNV8AYYEVIS0vD6NGjqSorzpkzB+Xl5TZ3lFATGo1GMER56NChdnJgh1FgEEFIuEeXS+BBYZxNTExCCIKj6CIbWFJ1Jh8UFCRayY8ZMwb+/v5UxOC5557D+fPnTZaoJS4uTtSCO3DgQKMsQuHh4aLO9T/++GMj9K42qonCkiVLqIjCN998A4ZhcPHiRdGWhOeee+7xjvVicj6VIt0XYRthdoQQzN9xnapvdx/Kqd+TnJyM/v37i/7NXF1d8fvvv0OlUtnEOApBrVYLZnwcPny4TVtG7LAuGEQQaEzx+6K+sSlWq6wsoSIISVmnkJ+fL9qJrU+fPlTe1c8995xZnKiEsjoamyQkJiZSxaRHRUUZsaf/D0IIKioq4OfnJ7otbm5u+Pbbb5GYmChaUc2dOxcAMHndRdEKdOyqSOgY8+c6kAodw1IRhN+PporuW05ODjp16iR6vB0dHbFnzx5oNBqbGT8haDQaQXIwcOBAe4ZEO4wKyQSBYTVUCjS3mN+b2xpBCMHJG0uo+ti3b19RCxdNXoQuXbrg1q1bZlngZs6cydkGZ2dn3vZ98sknkqwZQkWb+KRRo0aC+QqMAa1Wi+nTp4smes7Ozvj2228Fx6hanJyckJScCs/FFNaDC3dtTrmtO5xMRRJ0DD/JZFkWt2/fRrt27UR/J+7u7tixY4dVp0OmRUVFhWCUkd3nwA5TQDJBuJK+i8J6MAMsa3uTtaj8nug+fvVzPyplp08GDhyI1NRUs036uLg4XoWdlZWF7t27C5IEmnaeOnWK13Lg7OyMPXv2oGfPnpx/HzRokMnHhBAClUqFuXPninZmFEt22nXshqE/nRXtmKi1QSWnqNBSEYQSubreM1iWxdmzZ6nqJDz//PPYuXNngyIGQJXlQMghkXb+2WGHWEgmCHsivxStPG/eO2lzuyDgf8VcLs/R27+Nx0bC0YkuWyKfjB49Gunp6WYdL6HiLgsXLgRQlU+gT58+goRGzCJ19OhRwfoGx44dAyEEBQUFvLtyviyKpoBKpcLKlSsFa2bQygsDJohSnOsOJ9vsvPkxUHxuhAMX79W6PygoiCqSp2vXrjh58mSDVJLl5eWC1hO7z4EdpoRkghBwfrwocrA9dBy0ukpjttmsuHHnoN4+dn6JPyxQrIwaNQoFBQUWUQgTJ07kbFOXLl1qJVmpqKgQtCToIwn6ohWioqJq9T8kJITzuiZNmhg1qkEfCCFQKpVYtWqVpJLTXPLR7GC9ilNuA5ELfLiaJt4Rc/iScACAv7+/qDwc1dKuXTvcvHkTDMPYJJHSB7lcLugTNHr0aLvPgR0mhSSCkFeSLtp6cODKdzY9eSs1csH+TZpLly2xpri4uGDs2LGorLQcgUpNTeXcqTk5OSE+Pr7e9QzDCJaS/eSTTzh3NDdu3OB1LnN0dMSNGzfq3UMIwWuvvcZ5z4cffmiR70qn0+Hnn39G06ZNDSIIjZq1xJAfhY8abHveMPAS4Wsx5Mcz+NfwBaItNA4ODujWrRvy8/Mt3UWTorS0VLBGyvDhwxukxcQO64IkghCfeUQ0QYhO158339qxK/w/nH1bf2g4XFzpd5RNmjTBlClTLJ4CVaPRoHXr1pxtnD17Nu99DMMI1m749NNPay1e4eHhvDtvZ2dnnDhxgvcbuX//Pq8fQHh4uNHHRCwqKiowZ84cg4hC13dGY9gv5zkV589BthESLIQ5f8bwEoPPfjiF3p/9F06u4utbvPvuu0hJSbH5cdGH8vJywQyJXl5ednJgh1kgiSCEJqwTTRDKlA+N3Waz48CVefX69ec5b3TpKd4cWm0xWLp0KUpLS61ikfviiy8429mqVSu9pku5XI6XXnqJt6/Vxw1Hjx7lzRXg5OSEI0eO6B2LTZs28d4vl9PH0RsTCoUCy5Ytk+Sj4ODojP7TtnEq0IyH5RbtlzGw4+/b9S0GP5xGt34+VMRg+PDhNldASSrkcjkvaZfJZJgwYUKDc8K0w3ohiSAcjflBNEEgxPaZ7tXb++r1y2PSy1TKIDAwEEql0moWuatXr/Lu6nNyckQ9Qy6X48UXX+Ttc7du3QQVZ2hoqKjxIITg5Ze5x7tv375WMaYKhQJr1qyh9lFo7P4MZ1QD0wB2iDVLWQ/58Qye+9cncHQRn6J6zJgxyM7Otorf1xyQy+Vo06YN73j4+vrafQ7sMCskEYSQy7MpCILtT+6s/Lhafdp8cpSoBc7R0RFr165FUVERSktLrUYKCwvh7u7O2eY5c+ZQPauoqEiwdgOfnD17luo9jx494vVh8Pf3t/iY1hzbb775hmos3Nu+gGG/hDYY/4NqZDwsh4dfGJ55oS9kIiMSnJycMHbsWIsfv5kb5eXlgpYDeyijHZaAJIKwL2rGP4og1M2q+Ex78RkQ7WIXMVI3qqEhzJvqfAjPv/aZ3v67urph8uTJ1GXKGwIUCoWgz8HgwYPt5MAOi0ASQQiM+OIfRRAIIbX6NGvF+2jcVHyKYLvYRUhad30DQ3/6u8ERBEIIPP/nd8DXd0dnV3Tr541ZWy5aurkWgb5QxvHjxzeIb8EO24QkgrAzfNI/iiAAqNevTSfEHTPYxS765KkOPRtUiGNNjFgajmG/nEeHVz6u1WcHJ2f0GTILny08gWG/nMesbTGWbqrZUV5erpcc2H0O7LAk7BYEkeDqm6UVi10ajgz+/niDJAie/+vPR3P+etzX10f9iGE/1/a5+DEwztJNNSuUSqVgUqjBgwc3mG/ADtuFJIIQfFF8KeSG8JHLKwrq9euPv70trlTs0nCkdbc3GxxBKFdqavWp/7St9YhBtSzbn2Dp5poNpaWlgpaDESNG2H0O7LAKSCIIB0TUJ2hIBCGrIJ6zb6v3e+K19zrAwUGcEmjXrh2OHz9u9vZXVFTwOkH5+fkZ9OwzZ85QlWyuljfeeMOgeO6ioiLeWg0BAQEG9ckQpKamYvTo0aLrCDg6uaDL2yMx5IczDY4gZObJRadb3nQizdLNNQuUSqXeUEY7ObDDWmDPgyACl/VUrly+ZyjeGPCcaOXYqVMnHDp0yGztnzJlCmc7unXrZlChl2PHjvEmQXJwcMCBAwd4UyXLZDK8+eabBpGE/fv3cz63WbNmyM3NlfxcKbh16xbee+890XkQHByd8NKHUzF44QlOhck2AIIQfvOhaIJw5rq43Bu2jPLycsE05RMmTLD7HNhhVZCWSfHmetEEoUh+39htNjvE5n3YeGwkPvxooGii0KxZM0RGRpq07ZmZmby72bQ06bu2S5cu8e7gZTIZYmJiQAiBRqMRzLj4xhtvSN4xEULw5ptvcj73/fffN8suPDMzE61atRJtMZDJZHh99M8Y+tM5QYWZfN98xahMhe1n62dS5JMHBUpLN9ekUCgUgnkOvLy87BkS7bA6SCIIyQ/OiCYIUSn+Nm8u3X3hc1F93Rk+CSyrQ0VFBQYMGMCb2KeuuLu7IyIiwujt1mq1vDv877//XvJzT506xds3FxcXXLt2rdb1LMsK1m7o27ev5J1TUVERbz2EY8eOSe6jEAghuHbtGjp06CCaFLRu3RoLl27grb1QV+b8ec3m581c/+uiCYJWZ/uWRj7oK7xUt3aJHXZYCyQRhCL5fdEEIeTyHJte6FTqUtF9Db74X7A1jlQePXoELy8v0UShVatWOHPmjNHaPnbsWM73tGvXTrJCPnToEG9/XF1dERYWxnkfy7J45ZVXePv+zjvvSF4kAwICeCtSlpcbt6bBuXPn0LlzZ9HEoGPHjti+fTsIISiWq0UrTFv3Q1BW6kRVc3ycWpqx3b4KobS0VNDn4PPPP7eTAzusFpIIAiEEAefHi1Ka20N9UaEuM3a7zYYbdw+KJgjnEtZyPuPevXvw8REfFtm1a1eEhIQY1O6IiAje8/B79+5JeuaBAwd4HRKdnJwQFias1JRKJV5//XXefr/11luSzKwsy+Kdd97hfGa/fv0MXoAJIdi9ezcVMWjXrh1OnDhRqz+EEIxfHSVaaeaXVhjUbksiJr1AdD8nr71k6eaaBAUFBXjqqad4v5EZM2bYyYEdVg1JBAEA9kR+KVpxxmces9nd0P6LM0X380FRvOCzCgsL8dln+tPOVstTTz2Fw4cPU7e5srISrVq14nzmb7/9Jmkcjh49KuhzEB8fL+o3rqiowAsvvCBIEqQsmmVlZbzHKX/++aeULgMAAgMDBRf5utKhQwfcuXOHdywW700QrTiX/3XTZufNvADxxwunrzU8B8WioiLB78ZuObDDFiCZIMTcDhKtOPdEfmmT0QyF5fdE99E/1AcMIy4ioLKyEv379xd99NCkSROEh4eL3l1PmjSJ19wtZVEKCwvjbauTkxPi44WJUV0wDCO4G5fqk7Bnzx7O5zVu3BiPHj0S/Ry1Wo3t27dThW92794d6enpep99LjZXtOIcszwCOsb25o2iQgtPiuOFMlXDKsxUUFDAWwxNJquqUmmrxM+OfxYkE4RKrZxKeT4sSTVmu00OQghOXl8qun87wydRT/qysjKMHTtWcGdeU5o3b46QkBBBJZ+QkMB5Hu/s7CxKgdVFcHAwr4e+m5ub3mMFPjAMI3jc0LdvX0nHDf369eN8Xv/+/fU+r7y8HKtXrxb9e8hkMnz44Ye4c+eO6PZVqHVUyvPAxXs2p0zWHUoS3b+RS8NtkgTxoaSkBC1atBC0HNja72nHPxeSCQIAbA8dS+XAZ0sTQ1FZREWAbuVIj0J48OABb64CLnn++eexb9++euPJMAyeeOIJznsWLVpEPf4hISG8ytLZ2RmhoaEG/aYqlQpvvPEGbz+lJFMqKCjgjWoIDg7mvEepVGLevHm8Y8clnp6eSE5OltT//6y/JFqBjlsViUqN7cTGa3Ts4/TKYuTPM7dsal0QQlFREZo3b877zcyYMcMeymiHTcEggpDy4G8qJXon13Yqtu2JmGaS4wUhFBQUYPz48aKV1LPPPov9+/c/vn/YsGGc10mJWjhw4ICoPAeGQqVSoVevXrzvoXVcJIRg//79nFYPFxcXVFZW1rrey8sLjRs3Fj3mXl5eyMnJMajv128XUkUz7Pz7ts0o0VnbrlL17U6ucaNMLIXCwkJevx+ZTIbp06fbyYEdNgeDCIJaq6RSov6hPtAZQZGaGvGZR6j6dPz6L0Z9v06nw+DBg0X7KDRq1AiLFy/mvb64uJjq/WFhYbzHCg4ODpKOKoTAMAxvKmiZrCrjIg3BIYRg0KBBnM/q1q0bFAoFXTpkR0eMGDECGo3xzspplKiHXxhKldZ/Tn8lJZ+qT19tjgbL2gbxEUJRURGaNWvG+/14e3vbDMGzw46aMIggAMCF5M1UyjQ46r9gWetl0oXlGdSkp0ieZZK2aDQajBo1iupMvK78/vvvVO88cOCAYJ6DCxcumGSxYxhGME/C22+/TbUDKy0t5T1qEEsMmjZtiqlTp5ok/W1wRCaVMh2xJMyqz+oLyysxatkFqj5dSsm3dLMNRlFRkaBD4sSJE+3kwA6bhcEEQVFZCP9QXyqFGpa40SonjVqroCpl7R/qg6MxP5o0QoMQgry8PHzxxReiLQrV0rt3b6pxDgoK4iUjrq6uBvsc6ENlZSVvPgOZjN4n4a+//qIar2pxc3PDsmXLoFAoTNZftZahSiTk4ReGeQHXrXLeaHQMvtp4haovU9ZdAmPj1oPCwkJBn4M5c+bYQxntsGkYTBAA4GzcSupdd1zGYata7HSMBvsvic95WW6MwQAAIABJREFUUC15pcY1t/OBEILc3FxMnjxZtKJ75plnsHPnTlHPP3bsmGBY36VLl8zyeymVSkFLwmuvvSba1J+eni66eFK1/PHHH5DL5SbuZRUOXrpPfdTw29EUq5o3ADBrWwx1Py4miQ87tUYUFRUJ1lb46quv7D4Hdtg8jEIQdKyWKqKhWlKy/jbG642CwAt0lgNT+B6IhU6nw0cffSRa6bm4uODIkSO8zxPKcyCTyZCVZZojFD4wDINu3brxtufFF18UNPtnZ2ejTZs2VD4GQUFBZle8DEsw+lc6s7yHXxg2HU+1GpIw/ffL1O0fteyCpZttEEpKSgSPFXx8GkaZezvsMApBAID4zMPUCtY/1AcJmcctmkSpQlOOXeGTqdu9/fw4aBm1xdoNAEOHDqXaHTdp0gTHjh2rpVyPHj0qWHjp0iXLpMFlWZa3UmP18UnNfrAsi+vXrws6O3LJ2rVrLWoGjqZISVxTtp1Ms6iDX4VahxlboiW1XaW2nbDNuigoKBDMc+Dr62snB3Y0GBiNIADAvqivJZGE49d+RqVGYcymiEJWQRx2hk+S1OaMR9Fmb29NHDt2jNonoVpatGiBrVu3Yvfu3bwmeDc3N5P7HOiDPkvJiy++iMrKSuzfvx9du3aVNBY9evSw+Dnx9ztvSFK0X268gsKySv0vMDIy8+SYuOaipDbvvZBh9vYaC/ocEr/66is7ObCjQcGoBEFK2GO1BEV8gayCOGM2RxAXkuiiL2rK2fhVACy3EMjlct6Ya75cCDTi6OiI6Ohoq1jsKioq8N577wlaRcQeJfDJli1bLNpHjY6RpGw9/MLgvTwCp689MNtv5X/2FlUipJoyc2uMzZZ1LioqEsxzYE+CZEdDhFEJAkCQXXRTsuL1D/XB/ovfQq01nTUhu/AmdpyfKLl9O8MnQ8dYNiZ93LhxnItUp06dQAiBSqXiLfUsRu7fv2/R/tWFVqsVTKakT9q2bYu0tDSEhITwWksKCwst2sdSJV0p6LoyYXUkShWmO/LKzJPDd0WE5PaNWBqOUoX153LgQnFxMVq2bMn7fU2fPt3iVig77DAFjEwQqnA5bYdBJME/tCp8sEieBdYI/glqrQqZj2KwM4ze16CmBJwfjxJFthFGSDpiY2N5ay3k5NSuiscwDD777DOqokMbNmyAVmt9yazkcjmaNGlCRQy6detWj+y89dZbnNcOHDjQJPkOaHAq5oFBJMHDLwzTfr+MtAel0OgM381WaHRIvl+C8asjDWqTp18Yku+XGmGEzI+HDx8K+hx89dVXlm6iHXaYDCYhCIQQnEtYazBJ8A/1wY7zE3E5bSeyCuKosjCWKR8iPecCTt5Yiu2UeRq4xdfiBacYhkGjRo04F6rffvuN18ysUCgwbdo00SF/TZo0wbZt24yaOVAq5HI5lixZIjodsoODAz799FMkJSVxjodSqeTNerd582aLHqsQAuy9kGEwSfDwq0qs9NvRFFxJzYeqUvy8KSyrRGRiHpbuS8DwJYa3w8MvDJdtNCFSdnY2b7ItmUyGefPmWbqJdthhUpiEIAD/q4Z4Y7FRSEJNJR0UMQ1Hrv6As3GrcP7mBly/E4LzNzfg/M0NOB37Kw5emUed7EiMZBXEmmqoRGPw4MGcC9Urr7yid/e7ZcsW6pwATz/9NFauXGmm3tWGTqfDlClTqK0GXbp0qVdvoSYIITh48CCng6ezszNKSkrM2Evu9m08nmoUxVxzBz9uVSS+/SMGv+yJw6oDSdh9/g7WHkrGqgNJ8Nsbj1nbYjBxTZRk/wI+OXnNshY3qbh3755g8a6FCxfajxXsaPAwGUEAqha7vxNWGV1Zm1vyStJMOUyicOjQIU6l5ujoiNzcXMF79+/fT00Oaoq7uzv8/f3N0k+tVgsfHx+4ublJbm/v3r0FrR8sy8LT05Pz3o4dO1rcOZMQgs0n042qqC0hJ2LM5zxpTOTm5goeK8ydO9dODuz4R8CkBAGoWuyiUv0truSlSMD5cXhUesvUQ6QXKpWKN7xK3w6fr7KhTFaV5+Ddd98VTR5cXFywf/9+k/goFBcXw9vbW3ToppubG9q0acP79169ekGt5nfaUygUvGMqdFxjThySkGnRGsTTLwyRiXmWHj5JyM7OFrQcfP3115Zuoh12mA0mJwhAFUlIzDphcYVPI/svzoS8wvJnp4QQjBw5knOxeuGFFwQV2bZt23jJQePGjXH16lUAVQRkxowZvP4NXMo5ICDAKD4K6enpGDlypOhQxUaNGuGbb76BUqkEy7IYMGCAIEkQauPBgwd532Hu7JFcIITgSmq+pGyLlpIJa6KQlW/+nCbGwMOHDwV9Dr777jtLN9EOO8wKsxCEapSq8iQnUzKnXEnfZZToCWPg/PnznMrTyclJ8GhByOfAxcUF0dG1Ez0RQlBcXIxFixaJVtatWrXCqlWrJMV/JyUl4YMPPhBtMXB2dsaGDRugUNRWPmq1Gh9//DHvfb179+a1JBBC8P7773PeR1s90pQoKlfj681XLa789cmy4JtQa61jzGhx//59QUfYRYsWWYVVyQ47zAmzEgQAYFgtrt7ea3ESwCU7wycjrzTdqhYCPnPn1q1bedu5d+9ewWODhIQE3vdVE4X//ve/ohS3TFblzLhhwwZR/bl9+zb+9a9/URGDzZs3Q6lU8j6zsrISffv25X2GUIEntVrN6++wa9cuq/kWCCE4EZNtcRLAJcOXhONKar5FUz8bgpycHDz55JO838/8+fPtPgd2/CNhdoJQDbVWiSATRBtIke2hvohM3gqWta7dz7vvvsu5YL366qu8u9sTJ07wWgAcHR2pkiCxLItx48aJ9lGoLnpUN6KCEILCwkKqOgmNGjXC9u3bRS/MLMsKFnh66aWXeEnC6dOnea00jx5ZV9XBCg2D7wKuW5wUePhV+Rr8GBgHHWO7yjM/P1/Q58Ce58COfzIsRhCAKsXxsCQFh6MXWIQYBJwfjwtJm6HVmT+fvT6cPXuWU2m5uLjUS4hUDX9/f0Gfg2vXrklqC8Mw+M9//iM6F4GTkxO2b98OlUqFc+fOCSruutKhQwcEBgZK2rGxLCtoSejduzdnCCTLshgyZAjnPd27d7e63SMhQFa+AvMsRBQ8F4dhyb4ElMjVsBIDiyTk5OTw5sSQyWSYNWuWpZtohx0WhUUJQjUIISgou4vQm+vMQgx2X/gccRmHoVKXWY0JuSZKS0t5875v3LiR857NmzcLFl66fPmyQW0ihKCkpATz588XfTxAUyOhR48eOHTokMHKuLKyUtAnoWPHjlCpVPXuKyws5B3zFStWGNQmU4EQguxCJX47morhS8JNTgzGLL+A3efvIK+kwirnDQ2ysrIEc2wsXLjQ5vtohx2GwioIQjUIIdDoKvCwJBXHrv1kVFKwI2wCLqUFoESRDUJYq578n332Geei1bVrV852+/v7Cx4DJCUlGa1thBCUlZVh0aJFopW/kHTs2BGxsbFG3aWr1Wpei0D1OHL5NJw5c4bzehcXF6uIauADIQRqLYs7ueX4ZU+80Y8RVh9MQkaeHDrGuueNWGRlZQlWZZw3b57VWY3ssMMSsCqCUBf/196ZB1Vx5XscQUkcTExmXk1mkomaWDMZ36t5maqXqbyqvKn4UqmpqakkuKHikkSTGbM40Uk00XIFUYwxDAqu4IYLxiVRYhKVXQWCqOyLIAioIIssl8vd+vb5vj8YfMK93XT37Xu7G36fqt9fXLp/p+895/ftc37ndxjjwTltKKr9Dsezl8oUBG8hvXg76lsL4eQ5wwxsGRkZgm/eTU2u2y7Fcg6E/kcteJ7H/PnzFQmDhx56CLduea/KHs/z+P3vfy94/6efftrt7gahJYoXXnhBN7saBoLnGewcj7SCBnwcd1m2IIg4WoiskrtwcE7D9BupNDc3i25lXLhwodYuEoRu0LVAcIed64bZeg8mSzPumerQaqpFq6kWHd2NMFmaYbV3GnZQ4zhOMKM+Pj7e5fOHDx8WFAdBQUEoLCz0qr8mkwm7du2SXD+h1wICArBv3z7RkshqwPO86FHR48aNcxEJHMcJrkvHxsYa9rdltTtxz2RDU7sFtU1dqGk0oabRhNst3Whqt6Cty2bYXQhSGagIEokDguiLrgWCk3egviUfORUJ+P7qBhzKfE/iDMIsHMv6GOcLvkRx3Q9oN4uXItYLL7/8stuB66WXXnKZ8hSrcxAUFIT8/Hyv+Wmz2bBixQrRNzEpFhQUhM2bN4tWPPQUh8MhuGTj5+eHMWPGuOQknD9/3q3wCgwMxM2bN73mq1pwTh7FN9twIOUGwg7lY17URckzCH/dkoW1h/Jx8lItahqNWfDIHfX19aK/1xUrVmjtIkHoDt0JBCfPIe/GUXyV9Q+VTmHsTUx8B0l5a3Hnnnrr8Wpy4sQJt0Hp4YcfdtlqFxUVJZpzUFFR4RUfrVYr5s2bJ3vGYCAbPXo0li1b5rW3c5vNhuDgYMH7//rXv+4jEhhjmD59utvPPvfcc7pdn/46uw4Lt+VgaoR6CYszIjPw8e7LyC5rMuyOhdraWjz66KOC339kZKRhZ4YIwpvoRiC0dNZgf/o8n21x/O7KevC8+AmIvsJqtQpOffZfWoiJiRENtv0rDarFpEmTJO9e8PPzw9SpU2G327F8+XLJ/+Pv7481a9Z4ZbDmeR4vvfSS6EyCxWK5/3mLxSKYyLZp0ybV/VNKc4cVH/iwyuIHsdmGqpbY0NAguj13zZo1WrtIELpFc4Fwt/06EtLf9Zkw6G9n8z9Hl7VFs/YzxvD666+7HbyefvrpPp/dvn274EA3cuRIVFdXq+pbY2MjQkNDZZ2TMHv27D6BFuipo7BgwQJZdRR2797tch1P4XkeL774ouB9x40b1+eeiYmJbkVRQEAA6uvrVfVNLrdbzXjryws+Ewb9bfGuXNS3mHX95l1XVyd6KuiqVau0dpEgdI1mAqGpoxIJ6fqopBiXHIrM0l2wc+oGJCkkJSW5DcD+/v7o6Oi4/7mNGzcKBupRo0aJlk+WS0lJCaZMmSJ5xiAwMBBLly6FyWQSva7ZbMaSJUskL1GMGDECkZGRomWW5cJxHP7yl78I3nPs2LF9lhv+/Oc/u/3c7373O6+cajkQt1q6sWhnrmbCoL+tTyyEqdv3z2EgKisrERgYKPg9b9iwQWsXCUL3aHIWg68KIsm1/Wnzcf1OJhh881Zks9lElxZ6387ExEFAQABKSkpU8aekpAQTJ06ULAxGjhyJqKgoWcsavQWXIiMjJc9MjB49WtXCNTabDVOmTBG834N1Eux2u6Cg2bRpk0/foGOTyjEpXHtR0N+mRqQhMaNGNzkKpaWloiJ048aNup75IAi94FOBYLF3YE/KXM2FwEB2MmeZT57H888/73YAmzhx4v0999HR0aKBtLm52WM/7ty5g7Fjx8rKMTh8+DAcDofigZYxBpvNhrVr10q+50MPPaRaMqPT6cQrr7wieK9nnnnm/jbMq1evuv0Ohg8f7pMCSmYrh+kbMjQXAgPZ37ZkaX4uQ2Vlpag4CA8PJ3FAEBLxiUBgjKGo9jvNA78c25v6lldzE5KSkgSDYGtrKwBg9+7dggNdYGAgKisrFd+f53mUlJTgqaeekhygR48ejT179qheMIjjOMyfP190vbj/rMmOHTs8rqMwUDGl8ePHw2LpKSs8c+ZMt5/5zW9+47WAwxjD5estmgd+uXarRb0lITnU1dWJLiusXr1aE78Iwqh4XSDwvBMphdGaB3wltidlDu7cK1U9ALS1tQlmyO/cuRMAsGXLFtGcA0+KIJ07dw4TJkyQPMX/7LPPYv/+/V6vJGi1WrF8+XLRYjb9hcK6dev65GrIhef5Ac9usFgsaGtrEzyrYfPmzSo+hf9n3/kqzYO9EpsUlooLxXd9+qZeW1srKjAjIiJ85gtBDBa8LhC+zQvTPNB7ZrNwvSFT1WcitGvht7/9LRhjiIyMFJzuDwwMVCwOEhISMHbsWMnCYPz48UhKSvLpvn/GGEwmEzZu3Ch5yWPUqFFYunSpyzHTUrHZbKLFlMaPHw+z2SyYUDps2DDU1NSo+hw2HC3UPNB7aofSqn0iEsrKykR3yFDOAUEow6sC4WCmd3YpfJu3DgU1SahquHTfym6lIKt8v+wzG6RaSf0PqjyTY8eOCQZoq9WKqKgo0QCu5PyC+Ph4/OxnP5MUbP38/PDkk0+itLRU07MHGGOwWCzYunWrZEEzcuRI/P3vf1ckaBwOh+COhV6R0N3djTfeeMPt3ydMmKBYoPRn+b6rXgnYn+zOxaHUG8goarxvaQUNiPvhOhbv8s7OiL3nq1R5JkJUVFSInsoYERFB4oAgFOIVgcAYj69/XKZKYE5I/ytyKxNhtXeBMSaps/d8jkdzRzW+vxqJfalvqeJL9d1sjwabzs5OwWnQ48ePIzY2VnCgk3u4kcViwa5duzBixAhJwXXYsGGYMGECamtrFbfPWzidTqxatUo0EDxoAQEBWLlypeztkQMVU3riiSfQ3NwseFaDpwlwjDFsP1OuSmAO3ZiBmNOluGeyyuw3DHfbuvHF8SLMjFQnMfJ0dr1XgvSNGzdEcw6ozgFBeIbqAoExhgtluz0KxPHJs/DdlQi0dzVIHtzEfeJRcTsDiRc/8ni5obFdeRljoaz5iRMnIjo6WnQKXepWRpvNhpiYGMnB1M+v56yH4uJi3b9pORwOfPbZZ6Jlc/sLhc8//xydnZ2S78HzPF599VXBa/7iF7/A2bNn3c5qBAQE4MaNG4raxhjDN9l1HgfjT/fk4frtDvCq9BuG3IpmfLTd80qNl0ruDnxDGdy6dUs05yA8PFzV+xHEUER1gXCjMcujIJxcEI0uS6sqwqA/jDHUNxfIOPTJ1Q6kvwObQ36WdmJiotugEhQUhEWLFglOo48cOVJSEaTu7m588sknss5JCAkJQXl5ue6FwYP05ihERERIzlF45JFHsGzZMsmVGe12O2bMmCF4vV/+8peYNm2a279NmDBB0RJHTaPJowC8fO8V3P5XZUNv9JvSujYs3Jaj2L9p69NV291QXl4uOnNAOQcEoQ6qCgTOaUN88mxFgXdv6tu4Z6r3SUIczztRUHNasUg4kfOprPuZzWbBN/pXX31VdI19oDdSjuMwb948yWWM/fz8MGPGDNy+fdvQgyhjDGazGbGxsZKFQlBQED788ENJvzGHw4HJkycLXuuJJ54QzOuIjIyU3Z4p65QdsDQ1Ig1FNfd81G94ZBY3KhYJ86MuwcF55md5ebno7NiGDRsM/bsmCD2hmkBgjCkOuEmX14DneZ937PauBuxVmJ9QUHNa0j0YY4JLC0Jr2X5+PWWG29raBK/b3d2N1157TXJwDAgIwMyZM2G329V6fLrB6XQiPDxc9K2y/7N47733BpxR4HletCzzqFGjBMVd/xM4hWCM4W9bshQHXC36jdnqwJxNmYp83nqqVPF9q6urKeeAIHyIagLhctVRRYE2uyJB0+NznU4OiRf/Lj9PImU2bI6BSwyfPHlSchZ+rz366KOCRzbX1dUhNDRU9LjnBy0wMBBz58712imPeoLjOCxevBiPPfaYZKEQFhaG9vZ2wWvyPI/XXntN8BpCAu3ZZ5+VdFbDheK7igJtxJF8TfsN5+SxbO8VRb63dckXqfX19aI5B1FRUV5oJUEMbVQRCD0llOfIDrIVt9M0HeR6YYzhmx9XyPb/9OXVom9v9+7dk1z050FxUF5e7nKtoqIihISESBYGQUFBWLFihSYHCmkJYwxWqxUbN26UnI8xcuRILFu2TLDgEsdxgpUUxWzt2rWivw+r3YnZn8t/Ez+QXKWbfrP20DXZ/s/6PBO8jFmPqqoqUXGwfft2WlYgCC+gikD47up62cG1rD5FV53ayTtwIvsz2e1obHcN5r2IHS0sZDdv3uxzjZqaGrz44ouShYGfnx9iY2NhMpl09Xy1wGq1Yvfu3ZKXYX7yk59g/vz5bus/OBwOwcREsdmb0lLhKfW9Ciol7jtfKSu4ehvGGFYekF+3IbNY2hJMaWmp6FIciQOC8B4eC4Q2823ZQTW38ogu3oD6w/McDmXI2+Fw+vIqtwPUqVOnZIuDB48ZvnPnjuTtfL126tQpXT5XreF5Hjt37pS81OPv748FCxa4PEue50UrLrqzJ5980u130m3jZAfVVQeu6vL75RnDop3ytkL25E+IB/aioiIMHz5c8Nlu27bNRy0kiKGJxwJB7tHNJ3OW6XKQ68VkaUF88ixZbWrurO5zjY6ODskJc35+fnjsscfuzxxkZmbimWeekRzMfvWrX+HAgQOaVj00Ck6nE+vXr8fjjz8u6dkGBARg6dKl9w/PAnpEgtjuBnfmbleD3HMW5mzK1HW/6bLYMWujvMJK6UWNgtcrKioSLfJF4oAgvI9HAsHmMMuePeCc+s+iL677QVabTuWu7PP/YscI97fRo0ejvLwcZ86cwbhx42Sdk5CQkEDCQAEWiwURERGiU9f9lwpWrFhxP0fB6XSK1knob8OGDXPZrip39qDTov9+c6VS3smTC2Ky4XQzi1BYWCgqDrZv365B6whi6OGRQCi4Ka+WQH3LNUOsFzLGkHhB3s4GnvXU4T948KDkID98+HCsXLlSljAYM2YMUlJSSBh4CGMM3d3d2LFjh6zEz3fffRccx8HhcMgSCWPGjLmfMHqxpElWID2S4ZtDjzyFMYbP9ubJatuNBlOfa+Tk5IjW9KCcA4LwHR4JhDgZU/FHLig7REcrzNY2WQKhuO47NDU1yapkKKe40ZgxY3Dz5k0aHFWGMQabzYZt27bJEnYhISFwOBz405/+JPk7XLJkCQBgXtRFyQF09qZMcE7f1zpQCufkZQmErafK7rctPz9fdLfCtm3bDPMcCGIwoFggOJxWWQG04Z5wtr8eYYzh+6sbZLXxhRdekBwspNrzzz+PqqoqGhh9AMdx2LBhA0aPHi3puwkICMDChQtFD3jq//mr+YWYFC49gH6VaYzZgweJOV0qSyRwTn7AnIOYmBitm0UQQw7FAiG7Yr+M2YOF4HnjTYm3dt6U3MYP1vyPqsLglVdeQVlZmaFmXQYLNpsNERERspIZpYqKp8b9Gq+vPispcIZuzIDDgEtJXRaHLIGQk1cgmtRLRZAIQhsUC4RDme9LDp6FN88Y7i0I6JlFOJb1yYDtizk9Df4B8qolCtn06dNRUVFhyOc12LBardi1a5esZSMp9tzENyUFzqivSwz5O2CMYVWCtNoILy/YgeEjhMXBjh07DPkMCGIwoFgg7EmZK0kcxCfPgYOzqumzT7lSdWLANj777+4P7ZFjISEhaG5upsFQh9jtdiQkJIhOgcu1P32cOGDwNBlg54IQP5YPnIj58oLt8B9BFRIJQq8oEgiNbRWSZw+OZy81dCe32k2i7Xt7ifxqib02YsQIzJ49G1arcQXUUMLpdGLHjh2yC1i5s4cf+RleWyW+1GDsfuPEZJFci//9IB7DAoSLIFHOAUFojyKBcK3ma8kCIff6EUMPdABwIO0dt22LOj4ZIwKllfF90B555BEsWrRoyJ2TMFhwOByIjo7Gz3/+c49EwrP/PQVvrE1xG0DDD+cbvt8sibusSBxQnQOC0AeKBEJygfTqiR3mBrV99jnHsz91adfu8zMx/j/+TfaMQUREBNrb2w0/+BM9BZeio6NlbVd90IYFDMfLC3a6DaLVDZ1aN89j9p6rdF1WeG/ngOKA+gZB6ANFAuFU7krJAoEx42fh/1h5xKVdwW//p6xgkJCQALPZTIPfIMRut+PgwYOyymv3WtBPn3S7q8E5CHav9D/KeuL7uxAwQjjh8/Dhw9Q/CEJHKBIIx7I+liEQjN/h65qu9WnTjh+kVdDz9/fHl19+idbWVrS3t5MNcmttbUVkZKRskfAbN7saBkO/qW7o7Lus4C9csfKjNbFau0sQRD8UCYQjFxYOKYHQv6riL8d4nqRGRvagvbJw76ATCL31EAYSB38IWY3Ir4q0dpcgiH4oEggJGX8bUgKBMdanTZ988QoCVKp7QEYW9NOn8Prqc4NOIDDG8PLftmGYv3Ai739NXYE31qbgk7jLWrtLEEQ/FAmEfWlvDymBAMClXdFfT9E8sJANDnt5wY5BucQAAK9+uEuw3b3iIDgsFYt35mrtKkEQ/aAZBIm4a5vWgYXM+Pb4rybgjTXJg1YgTApLxauLD7u0+w/T1/Rp76qEa1q7ShBEPxQJhMSL0o9CHgwDncnSTAKBzCv2wvTVg65IUi+dZvv99vzx3a3wH96zy6O/OAgOS8X6owVau0sQRD8UCYTjEs4nGEwCoa75muT2ltaf09pdQqdEflUk+QCjwdBvqhtMfdr0x3e24oWQVW7bG/utsU57JYihANVBkECWjJMrb7XSmxDhnt3fX5csEPhBIBDSChskt/eHvNtau0sQRD+UVVIs/KfkgNlqqlXbZ58jp+5Dl7VVa3cJnZJWID1gltS2ae2ux8Sfda2kKGT1zWat3SUIoh+KBEJJ/Q+SA+aF0jjDT5ceSH9XUlv3pb0Nnue0dpfQKWV17ZID5ie7Lxu+3yyJy5PcXgdn/JlGghhsKBIIraY6yQLhWNbHhh7ozNZ7ktt69NJH4AfBkgrhHe6ZbJIDptHzELosDtHTHPub02ncthLEYEWRQGCMYU/qXImBcxa6be1q++0z8qqOSRYIyYX/1NpdQscwxvDmFxckB83Ge91au6yYnPImye2c/89LWrtLEIQbFAkEADiU+b7kwJlfc9qwb0NHLy6S3M761nyt3SV0TvjhAsmBM/KrQsP2m0/3SF9e+P4yJSgShB5RLBByKw9KDpyHMt835G6Gls6bktsYlxwKp9OhtcuEzjl/9Y7kwDkjMgOc03j9psviwCQZywsd3XatXSYIwg2KBYLVYZIVPBvaytT02+swxnAmL0LlfGICAAAG/UlEQVRy+/alvW3Ytz3Cd1hsnKzgefziTcP9rqJOFktu37SINEOKIIIYCigWCAAQnzJbcgA9cuFDQw10JkuLLAFU1XBRa5cJg/Bu9CXJAXTW5xmw2IyzM8bmcMpKxNxz7rqhxgWCGEp4JBBK68/JC6J3jBNED2UsoOUFwivkVbbICqL7zlUaJogu3vmjrLZV3enU2mWCIATwSCDYHGZZQTQuORScAQJpfs03stqUlLdWa5cJgyEniAaHpaLdrP91+uxS6TsXgsNS8cG2HPC8MYQPQQxFPBIIAJBesk1WME288BF43qmG716hpbNatuhpNdVp7TZhMBIzamQF06nrUnW9Vt/SaUXI+nRZbbpU2qS12wRBiOCxQOiytiAueZasgJpaFKPLKVObo0vWUdZxyaE4lbvKkDs0CG2xOZyyCgkFh6Xi0z15uuw3ds6JD2KyZbVlftQlOGn2gCB0jccCAQDO5X8h+607r+qYrgY7zmnD4Qsfym5HU0eV1q4TBuVUdp3spYbNJ4p11W8A4INYeeIgOCwVOWU0e0AQekcVgcDxDsQnS9/R0Guldfo5GjkhXd7MAeUeEJ7i5Bmmb5A3LR8clorYpDLdiIT3tmbJ9j9kfbrWbhMEIQFVBAIA5Nd8LTvAxiWHoqAmSdMpeou9E/vT5sn2Oz5lDhxOm2Z+E4ODnIpm2QE2OCwVO8+Ua5rgZ7FxWLg9R5Hv3QbatkkQQxnVBAIAHFEwRR+XHIqky2tgtXep6Yok6pqvYV/a24p8rr6b43N/icHJ8n1XFAXa92Oy0dJh9bm/NY0mvLX5oiKfD6dX+9xfgiCUoapAsHPdioJtXHIoDqS/g5t3L6vpjijJBVGKfU0uiAKgjylewvg4OF5RsA0OS8X0Dek4lV3rsyWHmKQyTFLo68e7Lut6JwZBEH1RVSAAQENbmeLAG5ccikMZ73t1NqGu+ZqifIle2582H05e/7UcCGNhtjkUi4QeoZCGNpP3lrxuNHRiWkSaYv+mRaTBZKF+QxBGQnWBAABZ5Xs9EglxyT3bB1tNdeBVyE+wObpRczcX+1Ll5xo8aHtS5qKt65YKT4ggXPkut94jkRAclooFW7NQXt8OO+d5rRGLnUNJbRvmfpHpkU+TwlJRUmvcI98JYqjiFYHAGMP5gi89FglxyaHYm/IWssr3oa75mqwqjB3mBlTcTseZKxGIl1mnwb3NMtyBU4SxYAw4nF7tsUgIDusprLTlVCmyy5rQbZXeb1o6rMgsakTEkQJMWee5H8FhqciigkgEYUi8IhCAf52GeCVcFZHwYJA+mLEA3/y4EmevbUJKYTTyqo4hpTAaKYXR+P7qBpzI/lR2sSMpVtd81VuPiiDuwxhDTFKZKoH5wTf4OZsy8Y9duVh76Bo2HS/GgZQqfHmyBJuOFyPscD4W78zFW5svKM4vELIzl2nGjSCMitcEAtAz2CUXKk8G1Is1d1LmNeE7GGPYfbZS1UCthZ29els39RoIgpCPVwUC0DPYXSiL0zzIK7E9KXNwt/26tx8RQbjl5KVazYO80hmLzKJGrR8fQRAe4nWBAPSIhKK6bzUP+HLs6MVFMFlo7ZTQDsYYssuaFFVb1Mre3HwBdU2+r2lCEIT6+EQg9NLe3ai4mJIvLbtivyq7JwhCDVo7bfhw24+aB/+BbH1iIWwO/Z7UShCEPHwqEACA5zlcuXFccxHgzvanzUdLZw2tmxK6gzGG5GsNmosAdzZ1XRquVbWCp35DEIMKnwuEXuxcN45eXKS5KIhL7sk1yCrfS7MGhO6x2p1YlXBNc1EQHJaKyeFpWH+0EE6qjkgQgxLNBALQ81bU0FaKr3OWaSQM5iK9eBscnO/r2ROEUhgD6pq68OmePE2EwaTwVKw7UoA2kw00aUAQgxdNBUIvjDE0d9zw2ZbIA+nv4lr11+i2ddByAmFYGGO41WLGllNlmLJOeRlkqTYjMh0HUqrQ2GahfkMQQwBdCIReGGOwcxY0tJXh9OXVqoqCvalv4lL5HrR13QJjPA1wxKCBMQabg0fVnU6sPZSv7mxBWCq+OFGM6kYTOCf1G4IYSuhKIPSHMR6c04bS+nM4lbsK+9PmYW/qXMSnzHZbPjk+ZTbiU+Zgb+pbOJT5Hi6WxeP2vRI4eY4GNmLIwPMMdo5HZlEjVhy4ipmRGZi2Ph2T16Vhcrj7XIIp69IQsj4dsz7PxBcni/FjeTMcnJP6DUEMYXQtEAiCIAiC0AYSCARBEARBuEACgSAIgiAIF0ggEARBEAThAgkEgiAIgiBcIIFAEARBEIQLJBAIgiAIgnCBBAJBEARBEC6QQCAIgiAIwgUSCARBEARBuEACgSAIgiAIF0ggEARBEAThAgkEgiAIgiBcIIFAEARBEIQL/wfxqpaz6GeMTwAAAABJRU5ErkJggg==;" vertex="1" parent="1">
          <mxGeometry x="60" y="97" width="160" height="118.47" as="geometry" />
        </mxCell>
        <mxCell id="7LSftpZktqqejji8TjGq-2" value="" style="shape=image;verticalLabelPosition=bottom;labelBackgroundColor=default;verticalAlign=top;aspect=fixed;imageAspect=0;image=data:image/png,iVBORw0KGgoAAAANSUhEUgAAAMMAAADECAIAAACtGAJFAAAACXBIWXMAACpwAAAqpwFeFpSvAAEfqUlEQVR4nJT9V49lW5Yeik27/NouvEl7Mo8p38Vms/uSFyIE6knQs970H/QkQD9GgCBBuIDeLiDo7UKEaJpgu3LHpc8MH7Ht8tNqjLkjs05XVZOtXVF50kTsvdZcw3zfsCL9n/6ffTH2RUmKgsiU81gmsRaeRnFsSew9YYQwJ5SVg+aum3bDoVaPjflSWVGvvr54f52XF/s7+uR4lM32PC8EKQUpGIOfTZ3hVVW9e//mN7/VVjHOmfXGase81Zpo+IPbKcrj6fSLh4/+7EdfPjw55swzKmh4OedIeFFC4UL+r7/77f/lN7/59WjPFhGfHMYRz+I0liKNRCE5fGLBREFIQWnCaGINfEXGEK296odebXp3sVrOl7dT4k+E/D/9238zSRJtTa+0dtYQD5+TiCSKZCw4p5TBhzrf9t2ybd6effju1as3F5dvzi809TLNqZBc8p6Sc0vORbxMi3ZS2nFJ4pwkGRGScEo4o0QyT4nXzOi9ut1fz3/W9ifcHE2nJZeTNIslH4zaqPY/LDcLkdbHJ/rBKRvlI8lH2peExt6kSsm6qt6/vX371m5aVVVDv6aDra0w3P9v//yX/5s/+/nDo6NMxvCZhHjKqfMeP5cxRyiHO/O+J/7V4vb//B//w994fp2M6ajwo5glyUSOhZQJHCQnKWcjKSLnMspSZ4UnEn7VmqmBKqVb1XfDstnczW9X79+MhuEwSUb7x72IFnUlDoi57NoBbjmSxHPL8QQdvIdnBq4C/svhIbpEWdYPmap3W/UZIZ9z8plgNEvZzmwyGLaqb9PKxeM6i0FcJCOCM+cdc6wox3IyS2e7dj2H0xTOW2ON00PXT5OsLLIvnzz5/NGjLx8/nZY5B5mBT8PjgP96EKatJMFTdpTU1tyBRDBOuTTUw4VKeFQgnZwLhl+MCfgBx6kiVHkCXxG8o3Pw/YPwHRu0ZDqSq7bVVfv19V0WyUqrSuneGOvwEeSpzON4msQ7WT6J4pSxN2/evtssf/ftN+8vL6t+ICC/nJEYBIULynJL9j2xoGP94taoxlqaGpc5EkVE4Cl4NlhDiVXOdeL2bnR17b2tkjij3EWRwFtN4PrzKP2J6K8G8/Z6flvmHXN8Z4Y3w+AuuI3jBM5jf19aT1YbP5+bSqhWNfDQiaaTkcxytn3BA8PTgi/4XxCr7UGGP9GgHniY3uE54/+9os4y/A4D/wfhx6OjltKBUhAISSnHq0Blhm8YHGk9GQitmbCZtHG0cCAgRIwn4udJ7Ft9tdkoIX1CiLDOWXgD+GTnifY+SBUYJMuafrZZnSp3xMlIkjiOmeSHk3HR6rzT39+tborClkkvQSQpFRwU3eODFnYyjg4PqR3ceuONdsa1Wqmuf7Jz+OMnD/7iF7/Ym0x3R2OOZggVaitGaIrg3sJvtq/OuaU2mvCICc+YAYmBk2OoefB58FHws5Z6+Mseno9jMWXwlCjjhHFDeUtJDz8iGTzv5ab5v/3XX4HudtRpOCjKBOECbC9rhLZHef757t5Xh0dHRf7v//N/ulTd9Xzea20IE3GCzwNMDsosgUMsrNtD46eJ1fCzrNCqdzqOXSQ8qDm1Dq4AxWETz6+K5dxI0phyLSOQDyHgM2kCdpXzh2leUDCfrb690M3Gl3lPE1CYiDJ4crGQbDzlIvbTOtmdsa5ZrSqw6UOzaGOpvA3yQ+5Pi4b/bWXFB2MLFxteIP0M/mz99mTDb+GH0WzyYPjhV3BIFn7FLy9BSggaFPhW+E7tTWfhY52G55oXfVHCgURSFJEQ/2bvwNyuBzD76yWeVZw5C4fCiXEWz8o7jpJkekPrbjRflSCD0g8J68U4Fkkc5ZIoSbRpNvTuZpFKPdnpQeUoswKuHq7YiTIXR/tcNwbPddM5UztuhMh39p4+evT49DjhUoA04Mfd3/ZWjD7J0Fa5lHWtAYcD34nOBzRpYMSBMNGgbpTBM4Oj1wSUBr8S/JUyykAp4UoGT8DCg/VtnANT/R8vb8Bs0ASseZRxmROReNr7wTXtcrle3S3W8/lBnv769csGBZoI0ByK5g+MIUP/YZ0FrSNgXTPvSlCqInaTwqTZWvKl1zV8hvHU2DqN00GMDXko5ONRWQ9Vb3Td93DAHKSNgQtLizjJonRHcttrtZmz1Wa+v1uVuzJPJCEKfCTY1Qiv1Upp05j0heHgmq2yg3LEKH2ve1tr9NEsfTpBuNCu79brtW57D1oHrgEuHUxF+NXAmTp83B7/DYwJ/jgjHr5LOsdB7MAWwu2CDYDbVXD5A5w4S1Ix3UmiOOe0lEL81ekDIzPALr/r2js4aGsAwhAtiNQu+BmPNsm4RtFVI+Z3yrsq4cTGGbyF4ACqqJR5Tk+scHXtzi4W4Lr2DqkU4FQMgB5LoiQyszF1B0IKJaOhqlQfabD/k3GSZehUUBLuRcihib0/AUq3mnbv4GhwZRTPBWTb4eUFjaNbLBe+ByywBqcGlgkuGuAJwgU4K/gm2sNpghJb34NIUTIZTWQax2mURnLEeeloCgJHxqQc9Op2fnv3t5eXGfUNHio4bEmF4FtJCucBVwpuGvGVVeMkfnh0eHx6Mjs5aZm40fambed911kD1miZARqKDlh5ujc+UOrb96+u6r5p60ELFEiH7wO3LNMC3n+PR+2mjzXtLy42E10fHYI31ehQiSRM+vC8Kdwmry3tQAys5Q7kTLCARMLJ0XtDRO7tFBiI9aZ6e3v18ux9NV+ZJPUiIYggDRhiR7UTzGrAwhzeWlHQD/xxBoYHvbIV1ghjmbHSqJEZlB5ASVqwWDKKCgB7ESiWALv05c4O4NY9gJrff/ebrr4cuiHKSZS6ZEBv6YOBgyuvWjnfkPlNK4S0OTzLJBp6EIaIg6aAkd6nOa97U7f25qaO4jZPB4QSkms2gFFIE7O7y3hs0tyvG7+uwSwPaQSfABIPSr61yEF4EJYFnWDb46D3quVjTgrBWzJoHwu0B9KDnWUexJ4GeSL4iKlmBC0THDpaYzCqZIvcwSZ1lmkDHpDrWMSTUZLERZ4AVJ8IDtg2Q4DqfMOWS3+93vR91zBQvBxUmEbohhgN1xeevQVZNoqoYSfPHh8e/Ot/+S93Z7PRZKq8B+DVqKFVSgFEcnRgQngOWgswMHEuifm3F2e/+e57hjCM4S3AQwIlSwU4zkRmBwnJBOlurm+a9gXAzfFIlSDnFJy1MGhL4PN7xnsvBjdEVoOoZSJGfBtcVTiqQBfgs8NfbZr6d69f/vrVi5eXF11H6MjxPDM6pToBf265JgbcOtxaZEDHPPo1Ry1Hp2fRZRuVazU25mRQT5Tqtb12IMTgKTn4JAH8BHwzZ+Cioq8kkIhIt+3ufPF9291ZD3Z5TQNqBdMHjpraiXaHzpfeqb6vKTwPB+qskgHsM6M5eNc4ljug8YBj2ub89nYJRjgf6TxDkOIBnAoTZ6D7GhwQ0AKSKK97BuoAL7SUJPh1PAx0RhbxEv1onuEqiNMGqIRL4MaJVmhmLWoLSDQDIwrOneOZAQYH+4MqhY8HdGuAPxr4A3hVB+hFO9UNPZhqIhNRFGAskyxNgTkInhGaU5B01bQVN0rAu4OGABuK4PmC0nEwlvChwPUImCJjQE7g6YFh/tGTJ0AafvrFFwhlGBrwA48v+wntBQMRvDc+Y68Vj8WbV697D460QwNAHGgcCLJHI5kXKY+se7Jo87qeX1+tqW4k/HAChwXHCwfhtWscuE3Xmy5SHbAKUAkWyC4emQ8y7wEdAygdrq9vL29v/+Gbb74/P7tar2Q6SfpWdLVJY5+kIJxgagBfOlRdQNdw9B6URjHA0TZCbwYYrBeqOx7Ij7R9Rlgbp+PBLlmzQns82CwxkYBHCfiERZ4cpdm/++z5873m5XL5erlcDcNrG9QODk0zGdHdODnaESkb3n+4aNsGfPymBZQpIhHBmyBjk+DF5AGceNPpxW0F1OLwpOEHALyASqVA44yIwVkw2TDdct4BoZEcxJptKYQPUkODddnaoXu/hhBHe7uqG90MsbYcsK1WJkA4dO7g4lF7TDBk+Agp/NGA6ATuFywSyBggI2o6r+G6loDVpcwoONYkYiBIcPBgNoBsUB5R0iIMg1vm6E5BPsXWLAa2E8wRCKQfFB/Uzs70aHf3lz/56dOT0zxKGDrjez9NAuZDyUFYR4N3vXc3x7t7mrrPnzx5c3t3tdqAC+YSnWjURhxYOYtSJhPOd7NSaPXZ4u61sA0cQjaFyzLegJ0TGsiHMXBLqkXH4AxnW8UD5h1IG56F6LSer5b/9de/ury9+/79+8YaKaOx8GPV15sVeEwXg5vjdgCnxsIFA0QiNHBdivbMeOUjpYAl7gztU80eWTfmIs0yb+yPmvRD19/Mr20shwSDJxi5AQcREfZ4PN5L8s/K/HpnvFHDLaof6rcFSRFsRGjpyGI+7ev6fLlq+o5XXIPWchTpSZHQNM4jVsjoYeR42/F19c6dL5SuH5waz1rQE8ciQxrnW+9rqwejAe9nWQqqj0AmwCC6Jf+IebaeHl1e03XABv7673/93Yd3dFXRUQGm1OqUIOUFU4HO0aBBQ+4FDwk4ozSgYGD/wBbp2AzE9BOtfqTYuKVnlbkUZA7vAZIURyRNEOajLYHvhp+yUVEkRSHShDiDCI45FFZ4oR8CiDvYts8Yf/rwwY+++OJof//zR49HRb71rfSeMeB/2VaegLpxvlWP7UMu8uyE7P6P//IvzN/+/duLS4ucAX4xq00OHAHsN0nSmItxCr9SWg/RfKN7fzkbFjmYEDBFmhrdDZ3tK9G3495WZ1dv8jfys0fTMt9qJZoSO3zz8tV3r1+CG+0UKJAmUsbwP+6PAUsY4zfrKk412HJwbODV4G9A5Tj3yHNZ0AmgaVa2zXS9PmnqHcEiwDVAsWKxn6XJZGdqhheb+jKeWwZ/v4MaZxGSgIMio0SU6eR4F3gGAC5NtkHJoE6SwN26l9fl2eXlou9v1hvaMasACQmDJ+dQJFnCI17E2VPPi7bXN/N11VZZZJISQwzeR9a2Fgyi7vvW9y3KO0H554H+fwTWfhu/8Hi/dtD6/dXl6/fv/5f/+B9fVZUoJmyzBhVoupw6jgqPFt2hpwNCAjaEg0dzEcBQEClq0qEdwYO3wxPr/tLxI5e8ofGviPnWd5xH4OO8BEnyoKADGHrKYkmls8l0Lee3vu9Bk7bXZMEEGAUfA8Azk/HJzuyv/uznP//pT8flCB9O+LZ7s7r1Z1sTtA1QoMem95bC49+M0uz5w8dfv34H3gBEwzTtAJw2aoiGmwZQD/dliwR8j3zksqgxplmqod/MChPFFgxu25umcZtVpvuxFZfn13/vfD4uoihKgdMMet0Oi7r+r7/+zW+++3bVtqAVHNCZiDgADab3wA94MrSdW8xb8MHamTQlwCKN9oFUIMDA/wMnbJPVcu92OWs6UkTrEggjLynLpCynUnYt7xs6X68AWYFZug8rUHxygU9jjARDYvfxZXrPBwKiLdPk+WdPLpr6arNuFUBYMFfCgZPySFMdcAuUAbBTfiejD00LGvzrD2/b0a4qZ5oKpQGvAfbv3NCLYaDL1fpu3o4nUZaHKMA9+fAhEgI4YFltru7ufvWb37w9O++czWMwYNHlAOShJz0QAonocPsQUZ/gOXPQMYYaTjSH596lXXXYDs8BdnB2xO205MYVw9ACHnoL3DTCkJAB5CV5H2wiA4eXWzmeJiPAzivddvjOYJ7VYBRQX7I7mjx78OjZg+PPnzwEUyT4vfC43wO9H9CmrXn6GC0keItoM4DV3d7cgqIczHbA0QKaMb3C8DChgQdxBegzAd30Io1mnj+vTFPXGzu8F2IA3a0GAVJetdT24A2XWr+6m89evwVJPdnZvb6+efHhw9vLq7eXl50xIs+8lETGGOtGc8+FsiPrdpxt/QYsEXBdMxlhXNoMwLhB0vE7KQNkGVWL9PYmXq21tita9BzMlYwsAVBHI5kSeaSF6tXFcjUH6E2CNaKfSJLDu0eSQvgWhH2k5yinoExfPnl8tpi/fv+2aXpwfy16VE9isI1EM7AEnMioBG8qxQNXZl1f3SzPGn/R6LYs4Jko3buuKfruAD4K3se6XIjTg8P9ndnHq8BfjTG3q9XL9x++e/X6d99/v6xry2UZgXUW475f0oqtMx+HBwasykYkijzINLJ0vCCgxoC0s2azVy2PtH7K5AmAUpDzXMyi8fNGTjb19Xq58caUmeJRTzEsZ5EsMmCyfjbLjk+AoPUVMEWwjKbvNcAOMOqPHjz8s5/8+NnDk90yB+qLYJ4GqoSnxAj7fQxsKz34L78n5aiqgG7mq9Xf/cM/1HX7cP8wTpO2qVeLxbIDGAz2ATgJbeH4gA0ImXOZ5tGeNSfr6s26/gBkIUsi7VLnQWliCm4lWTnWAU18+eZ6sXo4mdzd3ry6OD9f3DlQM1D0JLEgHBhGYAB9UVfBZ2k79a7TG9n3WSSue7YCywcYPIopl0j54PsNYfO5v7lRTVMxROAZBi1ZDs84lT4RYMCnRU5YI4DE3NyJreJsQ3toCti9YXAh1oxu52OgEP4lYXwny/bz7LBIl2A0PNI83Q5AJeAQaYzRHpHlPE08Z2menjD+L5Qr2mHdvl/bPZUlYJNY3+VD94RLBiyvbhIptR7SLE5isMAcjZ/1YK1evH7z2xevvn37bl51HrAosERgiIIc6MGKtlsu+9ziPSeRD0yaAOZnzAL4hCPzVA7D7mJ5dHu7A+QuSXpfNBRwAvjfaORp5OnR+ha4JtmbdTJmTMJzt8whYpExLUp2dGw3G7/agD0aHIcr2AAKL8rDB6eHe7PJOAdDjEeDmDyEsij5FAa7d3HbOCHy0HCwARKDVdhsqnc3t7978TIrit29/fF43HVFAobm+hp8uaKklq31yapTZUIBetfUrTlpgfN1gxxcDMhBCvAv6TSJrSZwGUZ1ff/tev3h6mYKb+B0C5REMowsAIXgfBvjBSiEvEFj2gJEKtH6sQBc5PYS8k7Qb6qqAVOOsAYYDZgeQZXLjY63P2lt0zaYsSAEGJYXOQGyRVkUx1OwHlXjm078o1DyvR8jv9eirW75rcMBU6E3FVjZvkyS0VFpe1NXdQ3Mv2/hVmWE2Bljo4gJBPC6JE1OldOqu60rdevnceb0ENXdyLgS/BkwOOveXd+AcYMPeXAMz2jqrbmc19+/evWbFy/fXd0sm9aCfIGuhCA+PL2JJxqo6XK5bvsOPGxZDDr2gJ0FYHA4G4YYHABm1ybzRXwzJwLMYb7GEKWLqUg5sFWeZ9kX9TJum6vrq82ub8YT4G1wgMAGAACDtsflWJw+iOOovZ2zVoMrMa7vi7QL7h6YBt0a7o9C8wcy9OlltwkwinAzBFP9u7MP7y8uGbKNbDIeTSZjwOBRHH1YzesGRAKEFjTBxUkLUKCLzVyrD113rswSg9w8L8sylpkQIyFS7zKwN4AZqup6freuK/DCScQB9IQwTwSclLEQsoWPDqEor1QHoM/6SIqfPn3yxenJ/s70Jkq/WS7nlK+0bfpBEcOkBF47Gpez3T1+eU1qMOGLlrWY0OfUBc+VySiNIvDOkyw1RAnyT7wwaPaDnFcIkfjFZvPrr393dXUFqPPg8AjecrPaXF7f3q1Xtusb2RiN7Bt9rE0lS1kU5WX2aAAGI+Kme7Nu324qNmDoew2mB9AymNC6Olu1N+vmy+Xqwf6uHdqXt+tvX7w6v72te0XjRMDlCrkNVALATj3Z6XupuhmYHQCsnM4tAExiwHGzCG0nKETf07Zy86Wez/vYVxhiAkRpMX+Z52A6oyT5rIgL7en1FXA9eAcz21ce/sXHDqPJsUj43iEdjYZ8TJoB7JNWdevtPFQOME//hAT9E8cIzw0MB5xl1TSrqvru1avbdX14eDgajUAqkiQBpCwjOSlHRpvb5UJZBf6U8xh801pWF8aDU6ujlI7KLI6AoJVgkxibClF4XxKEXT2wOeIUp3GRoZRzQK0RPPJgiwLSt9ZpsAOo80oKn6cuTdP9/f3jBz99+CCW0b8ahrt+WHTtsm0sxqNoQeM84SPON3uXVzd3/+//8p/AagyY/8LcC+DCUZoCRc6BEsbpFBT9v3EKnxKo2xqPdVV9uL755sXLVqliVI7zIpbgKUuOtkrBRQwdIDwgA+A70EcmiEbpDGATSx/qEm6CNvXd3aru/YYlCo2EAXuZCp40w3JY3Gy6afwaCOHdoG4XS+OxskUEABSwasgCAD4wDqsstM/jZJLnbjR65813dVUN2grpkGZSrlWi24nuEq/h3tuud6wB087CGZVZCg8pG2fHnR42nV7cLfqmjaKhmIEKw1vEIJIYEpAiyiuQJDk0lDaV5QGTIjmAZ8P/GXK0RUbARQDXgq29uQExmq/XgHOPjo7i8NqeLRzxbDwZ2hYskB/YwOWiBjNP3zOyTopVOvJw4hlAJpZnQMQxGg5QqnC2QNcOtBXkDo5LgG1jKL1gjSJQ05B1Bc/vLKi4hv/gH/Px2M9GWvAX1bJ9+V0+m/xkPD5N433JdJm0tkCcYF1CBJUU3qiJo7wo3N/8NTBxOF4emAmYIsQzEWo4xucT+U9KEsaePzo++HiAwHd38zcX5+0wwP2PiiKH/0QRTanRu5rY4fyyHhRgcEFkBWaQkSI8NpAFSmLFx/A4+9YwB48CnEyGiSssRXIUEKTq7vqmqm+lGYpIKObBtEkpt9bIh4sJXgIOxQy9BjcfR8njw/1ffP40mk6uvX21WS+0wdSss8hSnCnkzs7efrxY3y6u552pmza4NXgBMIePZnDzsWcPwGk17bJr50UBJsdlM8e4DalfeETSso5GhluA5INBsRhliGnoD33/f0+W0P9Yu1xvPlxevnj9mmMxUJLnwDQwy7A96gGpqB9F8WcHh621FZd3Q3dH+fsosjxyaSGSQmaJjDhPIiEl/Bz4R+rAKGBingUvI3zEAtDcolsa3Ai+uVHKGMopWI/J7qQ8OtJF3ngHj/Llevn3t5eR018dn6SS5sQVIEAUTSjbxsQ8iSaj2vv9w/0VsO62g0/C8h24AhdCZTHmwbP4n5Yk8jHYD69hGKqqOr+4AD5VjMGxF9NRGW4Li5DiLJ7uTPPVCtTYOaDUtqobBU8FkB0gGmAWRiwb/+2aXKjEjPNRPJpGScEJWBDBNJgu29SLDxv4XkBgMUsscLQEUDBcrsToMsJWQIvwbhhhBpTCspTDRRzuPnywtz/bhROq+qEaVK2BGWIWThLQ4SzvvVnV//D6+7978+Hqdm6DRobqCKusPaY7BNlo8kgpp+z3t/MrYzcT7pJkgPuCc7KOa9drwHkKWLrtBsH9GNQHsaX/Z1mkcIZKq03dvH79+uLqqtd6Nh1P8zH4FhKMvda667rNZgNKcjiZHT/97Kau3mvz/as3t0m2LMAH51GeApXjaWwlN2AGwI8DN8Wwk8ZKDer5MMgReGFGrQo5A8wUAUcDbwbK7cC6lmlWFmmeH+7vZaOpZVE96E1TA6d4eXXlAVPmxWEkx2kUMi3k92k7sPGcwyl9+eSzTuk3bzDWoOGofYW1igAEMwOfZkgufMj4/yA0+FGVgkFyIdq0aZr3H86ubm7APM6m03EJhjbBBAMlgxqU0k4ZLAYqyjhJ5/PlZmgGP4A/3bQ96eidEtetvTHxkOVRkk6zYjcSE0ES6UEPJFyY9PXbnnGDQRTQOQa4IcJnGcoWkVGACBmFoUHCip0dUqQ2ieaEnDft/j4HLnkEXNc4DeqJXJ5iuWIsufZmNAGOCJD+1fmlRjALagwvOAq9G41A/cok3ilLaawYhnJ+83VN9M5OlWeaA65yzPbKdB5uBiWpxYojYDYOcQJY0/tgW6AoW66/NQbuYxAOX46sVtXFLfi111XT7kxme+PdIhgk+BGlMA8IWrpcLcdZ9vBg76vHT277vmz1//T2bJ3kZjKRWUGzjMcJgXuMhBYSaJPkVDOmqBiwnA7ckst3dhttWKO5xyg/PDgBj6Xtak74dHT85Mnu/j4As1EeI6F3LOp0qA1ky7r67TAI+eYvDg9+lOyLUJcGhhTzUFuRsgQo5PODg/Vysbm5yYEyOtvVNda+EnBWeOqDICKQsm2q6FNp0KeiKbQHgOVvFvNvXr4ctAbJBluQpgkYWIwgebKp282q7ppmkqQHe/u7B3vvz8++Pzu7BHEyvqFJ20Rzn2x8ZPM8iuUoS0EMwYVlYEsFS7jIuW66TcLg5jgDhyORhqFiIFK0gbd2QHu6bkizIp+Mdx+c6iTaOL0y9reX8zQtyJ4/At0F8dsW5YSIBOY4YqwEOT3Yff7o4a/fvD5f3K6bGmAWqDFghnm5Bj8l5DiK4iJyTwTJqrVd3rxW7e1kZxjNQHiZasGik44ojYFywGeLiw/vGdy6mc6mcZIAEuGBC7CA4bZ4ziNT86H4B2t/vnv9+sX7t3ebVZGXk3I8ycooS7bFWKCHTduuN2uwST/++dPT06Od/d26bkvpVmnepAVNCpJkQORsnBqRuEhqILyCgwxIhvEi0JmYRzy36eHB0DS2bQGPAmZXzndND1wrffyY7e+VX3yRjMZpkgqv8OathyMGNJRwvwJoMXR//fb9Xlp8tge3g/nKkApmAVfARaqqqdfXV2LoHu/twF0MWgEfGowB4g6CZr2pqRPkPmK0rXX9GI29Z/2oNFe3N2cXl+d3N+V4fIjWKBWYJRc92CKtN1W1wrjA8ODw6Mvnnx8fH+7PJnAd6/r1h1pfOLlJfAtwrJzEYMbAx2K2L2UxngSXQgKQkpFO0jjLAR3BXxm8IFR3HlwR1nBZZ4B5CLZ/sPPg0eN8NtWgkm0NlvLtemVeggbq8slnYwyjYho8WNSgHIgMWVkWj4/2f/nV58Nvu+XNHINDTHTWz+tNClw5jgtMR4lRkoH/lLpqlqsb8JOA/KgEv6aaHm6Vd/UusBVtrj98+LoF6Fk/J5/v7nKBgahtSQulH6s4MBAR/tb0/XxTff3y+9fn73cODrJpmRQ5A6gMTgocD2K+frNaAkLkjH726OHu/gzA2+ZuPm+tyhMVAe4BBCCckEYIzZni4PHZQLESVGB1bIj8gfNKUr6zJ9ZVv6nQ5IIYgaZ536fx8+fPxf4uPz0dKK/hVE3I06KQcKDYgPhklg1WLRaLc5BoAMHgKQBP3ttVECm3qDcfrq++/v5bQ8jJ3v54NLZ4t+x6tVx3bUPo4CgQXkHuzc/vKS29lybSAzNcLr/57vt3FxeA6bKyBO8OlBVNn7V9eK3W614PcDifPXn86Pi4LIA5sqEb4IHdvLicr2kF+hLDD+b4gzG4h9hF4O9FcPloSh13LCvz2b5p1yAT3IWkibWhno0AvqZxzHJ5dHJwevpg//DQYUrI5OB4iLvV5nd3V0WZPj06zbiMGb1PTfh77wy/gtCfzMZ/+dMfzdd3/3A7d0q1ocBsWTV9BIKdegcWAjsLyiTLyv4rqgfbvrw51yLtpez6Nm2rqNrsMLYTZ/DOl+tNY9+B4n/52dPT/YOQqxIuZGnZNoAbrgB+31X1ty9eVG2bpdmkLHME2gkwP6xKsQiPlsv5/PYWTvXpo6fAgjMs1yabrrmptEkSn0Recsel5dwIFCOOnAFTQjTUbDMsgSCKegDhvJyI49PYWgq0t25s06i8rAW7wchSBLcWhxg39/AFYBYDTAbEFBxLnDiTtqy+G/qraj2Np8jZQNAC7DHOvT07e31xZoDzFuVsNB6VJccCEDxYc3FetfD5gP+ZwApFR/8AP8J5GYLRo1fv3r0/P1/V9Wx/rygBBiXb0ACcAnj3pmlAKCfT6ene/oPjY3B8QJFlUR7v7T6o+uyy6TetSzMK1khiFsWJWMtI8Qiway8w+xtRC2JBsvHo6OHm6kO7XjAsrzKYvMXCUrvsh9n+QX50cPTVk+lsF2iuHgaihshbCch50Lf18k1dn63WB1ESJ+KTLvzwlTI+S5K9stgF1MlSUNlaDXXVKLBGUYx165SOPFhLIbPyOU34ZpCr2uvVIIUbBt1U4MWtjFtB74Aw9ea27sF3wFMxTX1wfORFNO9aIPcdEAxrGaYyAKiK+e3d7169JiLa2y1nxWQUZRmT8A29c00LcLfarEB5zM5k8uVnz9I42pZeDwD8ux7sMybLwDogfsSMHKfbHD3WAIPZ8KHUXhESIzMXMkrlbBdVqRjZxcpuamY0/PFusKlye1g0gVR5zQXHdDvWeAyAtOBLcCsTcKCVtbdN9WxnLEPSB7xbO/Q3y+Wbsw8XN9dAtGZjIFplBi4SaONsBoS0rup2vgLDocC7WQTeW4/oP9UCY62qGT7cXr94+xZg7hReo0kiE0wmh4gAWH1w7W3b5mn2xaMnX3yGKhUqY7G0orNkpUnHIx0BX4/BRIeK+9iCJLFIM8CJ4NyQlGMhCOVJOs73Hw6D6vsBsJxCvaHG0k1rrgc9OzoZ/fgLsjfukxQEDNAB1rlxDQ8F3o/m5cbTi8XqJ7O90IESGig+tqZsafBqvnj16mW/2RztzPYnu0Atz+5uAUx31q6j1m8Le+GXLItAlJR+yFlD9dV6fdF0ApCQMXywK9IOXqcRz2QECI9SRd58+HBx+TP6yz5Ofv3h7H3TYmNF24JEpILnoOvAJVfrRwcHcHoyyiR4dwBpBoioASlqqgqu7nB//+HJ6dH+HjZSbFMLcHc2lNlSAabNoYvBkmKAd1jS6UL1LXhR/HsyEA/oEBwSWEWg+TwrjSWKCBfnbr3Bsk6Lgclu2wfAaA/qS1wEP825YhjX7cHLMQGC2xgL/HfLb+FTFLE3i+VvX3w/X6/hY4Fzh1g81pRhttH7REr4q3EzrNuGGSLqpr42ttWg6kqjFFOEQVIsrgAcnd1V6zwDmDsZ56WUcpuyaTsQofbu9hZs7FfPnj8+Pjne2ZOoN6HQiJG5Il/fdpeK62RksIcusSx1LLYUYBBThA0+pJuxJgi8NqZ/ZDEtdo+pNdXtpR0I8FcwFEbEPaF6tjPs7Ax52jCGyXvtAW3pfgCpjsTAk6x1/nq5xvp7JBAu9NV8ZE7OwaVeX8+//fZ7eNe92exkdxfEP07Yi3d3cMs1Wngb9AeUn8c8Bn2r3LBUNTB2qeSeyGJpAQJHAKO47cD0k6hz/kKZ5U0jTPee/KYryzddv9CuU8b2NuUs4zbpO4a9GowrLAKhXMooBr0BNtjodrVaAvoDFf/q888fnjzACqd7OUIMlID7gJMJZoeEWj1gEMZhiT5qBg0hFiRVLiYe0FKC/g+FCxyfi+MuM3BuChxHb3gSwzXXDKyXjzH9AHSGxAEbG4zVYruBhvfiAkC6wsRbaM/T7q5evQHy9PY1gNYyLyb5KMOspQQFBYgHlBMUH4R3B+VLsJSLv5nfnbdwbArQHwBM8HNg8AHTXL15PWwqbukoAviQxaG4BcAtvMGm7tarDehWWUafPTzZHY9D6ec29IOXuOr1dzebi45pYGY8VO9yZrA/BmiPGBBDIrjHDDDWtIJs+ZQnYrwXAXel8CTXQGcHalwMVka1PFnCvVJmwXpxrLujVjdSGOTiKIW9NbfNZsDWmm1ax5J7Yk6N8ct19eH2ZrlaJ+NylOUZgJUkzkf5h7MbQ2zXNQ4lGotHORZcg4eiLxvzbUMrVuY5H2ejVLA8YjF8lPSSOTlYPwzg3tYd1mW+/Pq9GyW2SOUUOT48pIwBawR8ECJRSt5p1bddT7nifJ8401brvrpbLWdlcXy0/xSA9nSHY3bMbVvDgj2Dxw1O3sI94f2Ax0QjheYCCL6m+PfbWDPgAAB9PZZDgFe1AKLBeg0YUvcY4fRmMil1mlWEgunqCXpFUJ3YolBasHGeNYT1mIoPYQ2D/ZYYA7Pq3eXFu7MPcOWj0WhnOguEXVDOtLYAg+uu21Q1WLyjvZ0M46JC/D++/bZ3WFeCRSQe2yQFbeEaN80A71cSCk5LRWAJwS77TtumA4Ndr5ebp48e7+8Upwd7eZawbW9HKOOCV993t8tFpVKfFxjF9hqeqcbWNApWUKEkwUc5DbrmOThXOH0Nzk9kNpv5HS7yPZFWQ9XavtNwwYaAc5GolkxjhSHDAm0BtwQXyrAIg/jaK82J26blyceWAowKmrPL69vVHIh3CXg6A58DgsEjm05GiTT2ernxoUaXE660G/r0/Uq/q8nSFCxNMqYnozzlUZmCR6MxtRmcguopCFyfbGpQK3d3/sFhj8OyACCZZ2Uc3UuSxeI4rVI4dOAP53XbKbUGxgK2oq27tpscHz978mhSoqtk2w6b0NExSuO9EVASRcGyaLCkEUZSgWU70BnQJHSQoFU6ZIVDkwLImY2dDQ3HblBGY8G67npgqAZUBxhcYzHDGVks1LZo3vCg8Kl4uqasE67Hf2eJjODCe6uASL09+7BYLAG9jIqyKPIoiXiEzZDAw+oGCO4agCa4r+dPnz7Y3QUtEH+7WIEJSiKZS5lxrOkWINrOASLwklZanZuBN/WuxYJnOL9qvek7gJ7ky8+f7++Mx+OJZHKbPPoUE7dGIQCFGy3wmYK7AUEJ5XTYpw2WCS22AVdFOiAUKEbYL5t4hn4wwZgaHJz3EoyMAd0P3VjSUUOxPyQ0+MERcNC8htEBnKNWoIJ221oTSuJJaMQejFlt1mdXl1Vd51kGYC/PA4UMidXZZAqu/bq/McAeDVWa0kZfJe6ysmtwZWk5GpWxcOkkLzwv0ziXLKW2gHvVGAMHGUnqrumGVTXvK9PXgAl9kUSTosjgNhioiKPOgNjVAGb7YTGoed1U63VC/Y7TD/ZPnj988ujoJI6STzHhbdPsZFQ+jESpB983QP458CQJVpjDBbZMYGU52CWA4YAmwd9hdXToVtNWK0zT9uB7lAKrCewavFxxe+dcNxSRFkXm4gjgD5oibFLR3sAvjdW1B2SrqGRJGgOO3jT1999+d3NzA7YQDm0ymWCXLMMMulIaaFYNL7gRGT14cPrsEXil/VYrwaaHaUxzKYB3YWElsEIHCM51qVZmAOO/6lo9B3FLZ0kmQUDm8zJKDvZ3Tw4ORqOCMX5fhfKDXkdMbgHKxpYPgeEVeD/AhRh1ATvsA3zB5mEAkuCnMUyCiRO4GyvgcFw0ALgBC0FE5/jg6BAaM8AmKULjYDtpqPoHJ9MSrwIUxUpPfA6MfoxheOx73rx89w78iLF2NB6DGAHUgxPBthNgAiJKaH9YjlrPak+v66Hj7MNANMsJWJZsxJMEqJtMcgBfIonhRwEqJUgemCQuAY3IqIgEEBrg1QboS4joITaA72R4jNyhDYlDHQ84wjkhQIfBGh+k2Z//4s+fHuwCiQm5rfsWmoCL6CjPieCPJV8Ow+DWkQDSLYGmzD3bSITGGF8HsIwChAXNAv0appLA71hjAN6BTFE1ZNaUdTt6+dqv8y6mzeTISBHhBwHY1dyA6Jt0QBwBPr5dr8vd40mcAp38sFx88/IVkWQUXiBGcG4YFeoBHA0gR13TAjk92t/98ZfPZ+MCpBuMrsiLaRb7POIFFyPKCvDT2HnpqdC9iWsRrRlv6+qyaTedHsN7LFeHjx8DWQPOn4A+BUtEf9DGD7+BDwYsGdVRZ7A/iFpM4DMGvhhYkOkxYYRVs2BaB+KkIFFo9+SOCDDbhinDWgvczQ8am40APihJG4qNbB12oYN5x7cFeQAzDkwhR2xx3/AVOm4x9wwHe3F19Q+/+Q2oS5bnRVHAiWwzpiBG8IyaUJz1l3/2i6tN/f2i/+58cUvJRsI9jaK4FNgwlGHAiycE+FsIvCOUkei/Iwxqg+xicBXOGggPgO0ByATYRildzANvJNI6BIkMCLLKnW1BQ5zvBw0A7PGTJ1MpwTXZ+36se6PkOQWsID355e50uRxWywpLAGwJCPW90a9Ue2vBvUkwo8BdMfuHqRuLrf3KUBA8g4DXd51s28LpI2OerZsF0IKID4+onvIOC1y0MMNYqz3t9pXXjbnctGeXd3tP6TiKL9+9OlutBm3ANII12maa4YUnrTTgvWpTDW23MxmdHOyd7O8j3AZzQIkA+AD2XmLcFcuiwBqB2IIG5b3qB54l2I6wYHxVVTdtI5Xe2dt7cHr8+OEpkhwEJMG9f5oEEYzTJEueHe9dnzdDX6cugYOMQYhoohEJDgO2ExIk19gCBCgAARN1WoDDg2MxqF4tNiob1yunFDhCQJidAwSLjYZgUiKrhTUUcKhStqqTCHxKjK2g29YghK3+5ubu7OLi7OpqtDMDAANQe2uQACZg4LoB5EDGRf4X/+IXL8+vbt/cNDftnOQuSmWasyTBumYZe06MSLR0WkpAttgUESq3g9KICETAcqDHnRW8tQOLK7g9tF0ATSngBLgXLIGloDosNjovMjCretU0kQDzEArvyVbuEblwgagXLt3qSLlj7ybUVsztSQ9f8L0fOFyf+trYJYsHDBbJUNvrsFbEWgpsqe+An7iuEpsN39S7xBxE9ARsBNiSdxdw9ZtZc7ezD94dsFrRq91eH/RwgJXf9E2vSNXMb27evnm9dKQcj8HhgBglcBRB9/DQ6ma5Xl9f3USc/vzHXx7s7hRJDPaIIOTyQpW8DBNcJPaeYdMKD+WFoHcS/IqCQ8BAKvy27Xsi5U9/9rMvHp6Oy4Jv+yX+sOgUX3tl8stHe5erulrf7BgCD2ckyFoIMG9LO7QAFUN4A/C2BFiK/XrYDodoBX38AJSn7QEldKLv+DCwviVDh2W7WBAJ36YYnLXTMfzsgDJRcjHD0t3Q5x2KkOEaXr19O18uBYA/wMFwInGCkgSQX2k00W0LEG9axLs705umw17AbKRIQQAowFlE3MQCQD346Qj+QDFzEhGAKw7behgZOJJnjO55kkl4d5FmuidsPQBI5lSEBmdEtdhOYDFySIUa4kinMZiRemX127u7NB/tJNnHZCdChNCfDk6kE6uhvbiQnh3tjPdH/CiyOdUH+LY40eAFoUsPgsMdR8ceJMmBO6N967uKdZWsq7RuZ7GdZRE8x1LTR62KX31YXszbzwwcVaGHRPXwSYiomnWkAeZnN8v5b18Pd9fXNCsf75zkeQpihBF5nC3j2hYLFuZ388ury4PZ9OjocFQWwUyH5h6A1yqOAQ5bEVmMUFGcXIFtq9iQg1XKVAHGSRxog1tXjQIp2T+ejmdYwxiASQgKfZxt4O+19WA0/osn7Ozt+/b87ljG08zv5olKmjtqf9vRV4atwaFJwKRdcHBYXAb8HyASwA2D7Se2Hwzv+9R2x9zObs5tNlzJpC0z+JR0GPaG9gurMzBZxM0Z3/fuAOFI6P0LUSRQ7hfv3lRtN8V6l0kmsUwcxcjiBAcgTstq8+TB8X5ZgMHYaHJnmI4K5koqU2zLw69YY2qQDdjYCB4LzAxYKAvAH4cOgAxhmb3EFk2RUOnjJG410E3VMKFFBDiGWA8iH2EXXfg5kYILpzgQSFbK/82799np8e5uLgKBCP3sDiebUHp1fbe+XlLtozTa3ZlMMmzKBcRb+uEzbZq60p6v4cyilGAJCRbLOA02qaddzetlVm2mVb1nfCEwEw74AXz6TsTifthVG//6zYbgsI1lLEGfe+diygdZyKm8cr5dAWU3U2n2Bd+RABMlCIlWQAf9ZtMC37RDk0UcbHmRJAA00fwTrMZFogb+DTBvDz+EbbSYh+Ohc9QNGKrBlDEgRuuFsTzNGm8X7VB1A6CJkGGFf/GhqeAeIZEQjQBNGXF2nNBnJX0w4rtjuVvwKDVrhrAUfrxSwBHgPQeLUw24wYlcjlsFtDlUfIC77xPVZV4/yqNxtere1l0ytXtjHcvdznzeDT8XNiVaR6IelfB08gEua6NImSTRarVulLpZ3DER70z3MIYUA4UV2GekVN02VVNv6s2jk18cTGbgNm6b4Wzd9NiCG+MBgFzQbRAVY/MaZR2nArAtq3AIfSRQbuSqmCTsOMDhHqQO9KJraYut0ALBNzXwPQmYMI+mzPJYcWOkt1G0qvtfX5w/Hme/JA8EBhRDSwF6QwtX/u7s7OziZjyewYVP8lEeIbBXlA66j7p2b7HcAxIrY1JgyIl4jQpkhsgpsl5Fy7sJEO1BHYKHdQy9CJbi0pjxURpnQDjvrt+13SWhzXRGxlO4mKzIYhBzgu2Bcz30KVBVeaa6tI1BXVIBn6vqul+sVgBa96Yls2oKTMuHwQ14c1jIhMNxjOBABzSXivEBi/mRrwOEi7DoHSNhBqcnAXS0JIkBtX9zczFNaFkeytAU6IKDC9V59+3K4GBu726/f/2mq9f7k9H+uJwW+RgzpDzh/HFi3w/dTe9XNOtAy/1AQlAAgbVROFZDKzIMpK2ToSuZOx5lI8Eb0zffv5CLsimzp3x06lkyogl4llgkowxT6tX66sN7engg9/Zfv3p7fnsDeCMD6l6mSRpFsdzG94zWbVVrhcnQ6Q6gxiloZ6P6NfBTsAfYCwC0iJmQyVGhLWNb+RvK7ULhkUf+CH4nAa+PEWfaeTaEwH0PuI7qHutyt4pFccrPduxOmMiDea4weKRyZnN7t3x0HOZh+a05B9sO5Oj8+vr65vZuMd/d2QMsDw4GUwvAOTBIpNu6bjY1wCEmuVDbhk1sY09VC1bHrZfs5nbqzAiQEJYpwVXBJXHwNiwCQokls3tGWc7heXbawN/IIhNZkuN0F7ht67UCmzKo/u1mowd9qEYHRUq1ma/mq83d3mzy7OFnoOkhfbztN/bbLlH4A5hiPjCB2RTO2baXlKIZBobA2TYu43uAM5hBS6q++dXV2VERf3a0l8eYfArFg78vI1CAB1er92dn79+/I0YdTCezoijxPLiwThK15/p9Q8aqr3BkFuD7Ht4DI92AGQ1w184MraxX8DUi/U5KZjHPCSud9M1qbNv6jk9Guz6KDUsNx9QP+HJDad8059cAePpl1X/76u3Z9VWc5hgpzIGCgV3FGlXsX2u7ar3mXBztHWBVdJwg/sJRDcB8EpQkgOTb6CpF4cAqFexv8GFQBQFpM+jdAAPRFBQAY3y0s6QBeUJJ8h0BZoCCB8YCvhMHMuF8JzTUDqc34bSdnrGaAp4BPzJ8PDrUxm5Qlzc3v/7t7xarNUhfCWwzT1GfsXYAqSFgO8z4ds0ek79IZQPsBbRQ8nEc74n8pIjpZFTH8fz8Q9uuHQe9jELyn1qJT8oJcDu0SPgJS3LlN+FOfZoIwIvEFYCVlQOh6eJs1TfranOldHU7v1uzHGcebUaj7NHJ8fPHT8/fffDW3cdaMDoYum0JFf22VAHUD3wZ4EMwlyFxBVQFWabDVN8A7o/jFICKkNXq7mf1PhYv0m17Jf3Y6QWn7Ouue39xcXF93Q59lqWzyXSEoxQjhl3LWFpJ6nXUuLjL4VPhoQAn2M6T9MYIq/jQ0LaO6nk51HsZmyA4QdXLRXQofKFMt26Bwt0WScbGfRZnBCsKiOQ1tTer9s1tnVyuzi7uQIOef/FZnBcywsFpJEBxYP6AGetNdbB/8OThQ7wquh2Vh2msMBQt/DG0Ft1HObHkG6Ql8EE4HPQnDLgPqPmA8gLWFGQFzVKLSVYwQigrOMMJs1pMI2DjwaThO4MkAdBsML4KKufDlJJtGAnTsreL9dvzy29fvEzAhE/GWZ5maRLam4mytg5ztJqqLhPx1bT88f4OgESjaZKnD6ej4/FsmieRdXePb//DX//Hf3hVN34QhgJu4DSMacSBkwQnJGFzr9yTNDZEOWDNFCjFSHJwabmkQttORHkcJULMN9XNanWzrMfE7Uv2o+fPnj9+vLezm4hosIN3nyqRMN+KxnsIFYYshN4NZjOQlfBwHDJUMtDA8eDbBgpHRldDvzEK4fa9WbufcgTvDBTx/fnFi9ev5+u1zLLRdFoW4J1TzBw4nAjYD+1ytagWgKp7h9wmxrAiSJKFUxm4HaJ+46r11DS7Xu8gEmf1oB2PuUyYcDnhqWHztq109w5oXV4AYfBhNFkPktsNXQcI8g5hu6Enno9wmAzgOR5CChrLYLDGj4J8Pzl9kIiYYncegGAhmLifJxeG5mAWx2ybImmAzlihbrcZeIbSwNAIBXnRXoVa79rAPYApYh3YD+cQYDkybN2h9SEI6wYcimZrvGJWZiASUajgDTN9nH/x5v3F1S0RYjKbjjGOmkUCvcKgDWDddV2BsYdjf/b4yf7p/nhnRBSYSWyE3YnEKIZHHwEk24uk63/GIvL1+zdVA1gB7I7eDiLDBhMfGcJBiQFLZ+B54F6cxTEzSQ6mBVx2rAEzO+CXHOc6eSDSldUd8VGRPX/07GR/DwuhsHwQ4yxkW4AcWrclR28bJGl7jFi0Cjbcb6tXJaJpDJuBJGk4CEDhDvOCGtnCfSt84K74AjdxdnH5/cuXN/M7OI4piNF4KmVQYG8BRW9ABJvmarmZL1SjjItBP0JTMqAlpyI/7EZkLE2vq5FpZgIH5VhNK2p8LOGZpGA/mSRlPJrruupv+tbUQ41TVbHawmKNBYNzAKYBnIIn0XULl1zHLJ4lMUjhAMSqruA6jw72T4+O9mZToNQg4HCnWRSVccLXLnQ6B6AHYoORLQ/WCGMPGPKx28MBIyWCERFgnsC9wGFrAw+7UVjVDIik9aR2FvwaFuRjzBDzQRRnooGAa2sMHOCYsYPxbBSl26o4IBhtp9+dn63rzQSs+Aj7BcAr45WA5x36qq7B3QCC3B1Pv3jy2cnBXp5HOEODC4PD/AyOPQr1yjxPv3r+jEiWx+lv3ry7W22UCfOjcLaBgCeY+YxxJyUBOCMlomTwRSZODU7L8gwrNARQ9cLHUzAfOGsMXbPMit2d/TIrAEIF189/H4gOXxweJuZEw9G4YNiBlsttyMwN2L+A5p2HMQSuIgq+OYNP4vJ+vFF4P4MVgOb8+vLt2fvzqysRR5PxdJKVAEM4zi3FMtOqazfr1bKqm04zzyaYtHRDyD5LajKmd6X7cn98FOcfhpuudjgnyIoe6/L5AP7W9ECdsOY3ZqCsAKswG923Kx75uGRxHoMrZT5zSji4RsyHX7bubrO5WlTPDvd2Mm4N2Kw+S6Kf/fTHj05OAWBt/RpAhWkanQKecuuNw9wmzmRyGvwX/OKYAKARYTcK2iXMA+JkT4IFJnBU4F3AAAISBk6kwygKzmpvapBoQgdrOky1CuCBQpnEDFL3TFnZW+A/P97fB3Hwoc+7q7vrq3nbN3BFk9E4B46w7c0CIdOu7TBjWlfVyc7Oj54+P97byROEfmA3WJgPhJ7jvqkDywNGo+Krp08PZztUim9evfv65mpkKPb6SwlIBsw39qfB90eJE5HN8l4mHhuPOFxt8FPAqbWXBI46SzDl0imzBuYYjLXFrCkn973/oVYqVM6DyRUmxCE9Bt1R9cK8G0xiMRfaeVBRsQYQjqk2SO938/E0K3CSQ3BuKAvWrKr69bu317c38LZ5UcBxlBm2TcOdAZDs+n5Vree3d0rb0929w9NxK9OaiN7hmwDPnEb0IONPdsbTiLyKmvfnty/fvcOSBRDyGDQJdAMeIo+dSxhN0ygNeMaC+QLfYg2Y53I0LiIae5XgrDdA73KxXivrr5uG3C4WCejhUAgOcOL04cl4PAp5ZgwRC+f38+TxqCj8zbVtvBE+jI7EuUkUfg8yAO5xW3nGTUg2Y8m8DfMHcTgjmlsMf/VaKCU74+7mcCAqG+G4FecT02fOTXS/B75ba9sO+WI9KflfPn30cFLiqEFC15vmxYs3IBSgDhhFTdNQCgaKazA7gYWpHXivxw8ePH/6tCwy+YPeMn4fgmEfM56Y9NybzWbj8fVy3hv+n65vQtGFiy24ZpBMrEME102zguSFGc9cUVC25Vv4PhINihjA5EoqwWmCJA3VUpvNAM45gY+TONAxEFeHBU4ITtAfeIFNS9Rux8phoy7O3cDDYo6FeYpwtCYiLgEIoHDk5OlkslsU2DiHbhKzSHeLFUDsy2tMHU+m0/GoTNJYSInx5lCnWyN3rcACzIryi6+eT2YzEokOE/ig+DjaCczXKBMpuGCvp+lXu5NduICLxXzZdTgjB943ikjHcbBkmKAIb56XIxIB6bYtPFHhsQQaEBkxCdU4eJLHpaBYHNcmNXz+ZmBm+Op4fzLbjyIAZ1jJhOOaQw/y4aR8cuiORvyyq1oVExmK5bE8W3tNQsEdQIgQBwgRnAB9LJ6kBidogFaRpvNNU5g66Xz04Yy1nTtwOsJ+mbxb7FFzotpTrwvwhXBRdpOJyQn2aXFAjnfV5v3VzYer6xiOLU2zLBPY5QvO0AxYv1HX1Qae38npg5PDw8mo3KYO//svSsvRJN8/XCajBtCDsKVWEtPpwgph49SXYzqdulHpwLPbEPsAi8xIBHrJfS+wkMdI7NtsrV8Z/fbmZk+QSZ6GlBQIh5dopWkwSIhRBLp3giMrLaaX8WRDKSMoOyB/FalmbPWB6neHjmjgWf60yE5ATsCJgNIYdX51/fLNh6ur67bvgXUXI+BqqQiVdQBynXKr5bJpGq3U45PTo939z58+CVXxOHQMy+a9DHUDONoUI+9epIcn42QHxPG7129evH//Dt55GMJUSYnBd4MPNEsSwUWeyEj42hAd8TjDhEVOfcYVJ0NMZQYGWaVVkd6t5M2mHhq4IRC2MqISGye2fVnI+ulOmX9xJP7i8W717uKbu7VmZtt/ilTXKYK55CQ0HhG3HRgeYlPoeMzA9EDrRlSruKuOou4YfvD2POlWC7PW2Tjl+VF9/VAC/LcH3Oc4vIn6/QTYePXhfXV42LfNr1+/vL5btkrNit1gj9Kt42iB82+q+eIOeMT+3s4XT57sTWdRJP5EcuqfeLXEr7jY7O17sEXcNNUqoj5PSjYa+Z0Z2Tsg410a5WBlYmDIGIHGnFhMcWCj4rIHcMmwrxx+P6/b//Ltt9nQ/OzZ04HRQcqa0gi8BBb5hGIwHO4xAPoFm0jCMGvgrMGvwTNWfmz6UbN54vQzaw69Aro9cB53A1+sm2yRH+x2bfv1774+v9t0fTebTidTMDpI7xH248yhHmTo5uYGBHY2nX31+efHe3uT6QShP5rF5J5B3o+83cYUAAlFcicuR8XObALo+Dffv/z6zWsAWE5mYDkNt9upREmEicIU0LTNVZK5JCFpgkRMxDg9FY6HiUgbMkTAXjZO9j3AF499MMYFkLQd4IWhkFSKpxPxv/vqubS63yyv1XoNHEPDqaQ04jQWToX5vKElMox5RommGke5s75l6/moW57E5ElGTmNgJetYry+GuyWNI5GP7ABaUcQSLjWTHPPh071Oudubu3ZVDdS/uboAjLKLQHsEBgn8msLeawOcf1MBrqwfnZx89fz50wenaUim+h9Mmf5vvOCQKquurGomY8NSHdFhugNmNk7zeDxl4xktRiwrIxYJx1bU9zidAx4JzokEy6+xQhpL4TomBh4pzr69upoC3lD2xd3qTnWXv/tNnOVlXuTgHyIBD174oXM+BuQZ5gCGcdhBkgAewvGPqs3U2hJHzgCRkwCrblYbd7PoQaKStK3bV2c3noksHxXAOLI0ktvWUj1oW7ftarVqm2Z3Onv04OHhwT4AlDChNAT+tjUEITy+HbJwP2kHB4b6TEaPT0+m4wlArg4p/tsasbB2uBwAeGiPAzCBRksA9SVL8l5EREYmFDwxGhlqMF7NaeR8EafjjNpSrZV6ubh72B7v0gSHB3umcRYfBbGD+//x4axeH7+7af/hZtnWnY6AEwM7ijyR27F+GIq/nwfkkVWqwSnluypqVjPSPM2yWYThBOnsA+/SdXVe3wwEhzOC5d5kOahpH8c5pgtyTYdeDe+vLtZd4yO6P54CrImiCOcCwk1qDUoIkgS/RnH07MmTL58+zeIojPtyHwcz/fdfofibaHBBSdYWKWgWBfCayigteYJV0REXGQ7jA1jJFbYVYCFhhNVpOC9Y4Y/TzuN6CVCBhVLf3N7dKPOqrq51P7z4HqB3IpNJmgJ1eLqzB5LUI28D34ll1qHsCq23SeslbVq12NwC0Q2XPuDsYDiBrljRF9rtbSp4Hu8HAzgjmU4TJKYCEJfyoMOmDq2lQDkAQh4fYCQQW5glv+cY983PZDvYj20Xt3ysLGA4TQuohpgU+fPHD99ePO08//WrD8CQcBonw50HDXLLNIpyEeeDxClbHJNHpHNglqQlSlBcBAMaAE8nl66P0nW3/Pr6Nn1/noEgKTBW4M1dkkXjWE5lsltOJ6PkZ0eT2+Xt9Qr8MRZ4IJ0HLaVbUEjua+gcTqlmXUf6lg+bMekLPyQOJ323YHRw/w7ZwwZQVWO3a79a0HWtzgtPhAQsjTjCAZbu603Xqn6G3DOhODQC218xxzz0mGNeY6Xuw+Ojnck4CYVmoceXfKor/AEiClcWOkJoqGwMveUu4lEKTB8RHTiapI9zl6QsjWUcCxx+HYoVPMZ6cFONIwnW1OPkbIFxL/AqqONDGKltdKDg1ArddZNSsTEOkvFMoheRrRdn60b4pgMWhc1oOPETLQqCS9X5i6u27eYNdmwAKnECpNvHhEZgAAiru+4SDDs8TimwuKNrszIbh/Dw4M26bVbrZdvWYF9+8sUXp4eHR7uzOArZlY9zCO/vP0xW3FZbfiq5xEQVwYcXgSuYlPtHp9NBNh823XBnrUrRJNgBi/dTSTIaj4Z0YkDdiOxCgDpG+ywi5JxARZ0C3COBWojG8et5Nbw6xwkxRJeYrQavKLDKj7FplABTcptqPFTHtl0auul0o2I/xBinRunc9mU6MmB5Ne3qWLW5rQ4ykhGFQyitQDMgQxuhjHcKng1qqdebzRIcjdexjn0ibQL8IYx41Ty3YMOMuOudXDdfjBJJmOnVuq6xt3UYTvf2f/r8GWBGHDsYSpdISJmSH9QVEvJxlc02gx4GbuHbO9c1qtnUHEf/KpzLBhdvMJwRNhsZLHTH4WZMAyNn+M/E4Dh8+EkOaFRbjWWGGItXYWbhkGYqwal2SYZt+TnjpScFLlsKeVPwWK5vkK0Y9I8he4tJW2r65urWKJwh5eOkAH4FCiJ4yVjOwOp7iQVjADp6E/PX9fq6W01H2QRADs4tdm3VbpYrGsjaT3701TjPcc8V+zhEj9z31G3//6mniN2fi9+WWWy5LUZNZeKisk721vWgdR1TloP/M7z3iY0mJB7ZBO4rDiNYDOabUZLCqHKMfwjFRM/ZAGxRyEXtm+tFPJajaTY4HHZL4T9dT7t2WK5MtUkXa9DfB0lckOZmaID3DzQaROGxbJXjkhzdw4OJhk25uc65m3I75bwA0j547SS2k5OYSQE2JsKENVdaz9e3decp+LRiZCKc8OQ8OHkmtPJ9szFDP+9uKnV0NGZMdoMG1r/ZYKc5gCdw8aHyNSR62SfR+aOZO/cmPhBMhyFq+JTl7WJ9dUOBKkVD8Fc6jOSKQsAM4wAaSy6xbRZ80AB01oZCIwdY1ICXBUvksFls6G2vOJXlrsizMs0KrHLhY8lLapHiwG1bHIgu8vWyxyAuziwINWeAGcGPhRUnwCOSmKQZT5IsicE5TSSGSFOch+xI2ISybGIlG6v6t6uF7/tdCQC/Wa9WfdOBR3v68MHObApej/zxzf/TL+yZo/cd5R5DwLaxZB7vr0vaWpw3UnIpimIop6o45MmMMNBmvh0Pr8OZgaKoEFz2FuwzTnNSTA6ABhgflJqyKC7LElQE2D4oQ7PpOr2+WQx1NTNdlOZTuGniJrh1yYFh6hhoJUZKuOO2a4pEHu6KL58/KpNYEvfyu+8HOG0jsfAzDDwjWJWENcg4lUAUu+ANBKuBsnCSwnOIUlRljoEr1Rfws2DQejP87v3lKOwBq+qOKvs//Nkvn5webYfjfPRiH0t3/sQrIAYsqbCL1er86urq5vb1d+/q+QoYOQOyMtQE2ANP0NQgzcFwRihlAF/LuFe95Xo7Y8/oeBjG1ux5NaEemOS73lw4ZwCqT6dRFANzyDgvJRtxmwLf0S7FfKQT/zaJroxuwvAi5Xw1aGCk1vqoLKM0lciuAdliWVMuoiIyGeWZ97ED6xx7q5M0jbKiqarbatMO8JAaXzelt3vT6fOnT549ebzd9cHuO/b/WVCRbUfJbhfiENIb0yjVctYWYy0mXiRrkcqydOWIpVPJgVxHOKLUejRKDgsawRUlISYNkqQs7Q0WkGtNcScRJYlM8yTfi+IMLixmVV8tVN9bHTMvgddgOAf8nRhxQM9+MEpb1Q6gooYDIBX66eHRFw+O/+z5kywvwOT8z5vNu4vFpjPYP0QUFjVsOV6AegmLTkazWUovFPaSZeAbsvGYKywpBwOhU5xN1Td127y6WUpi4VntRnx3NPmzH/+4zONP0w3+QJ7+yB7hq+m767v5+/PL337z7Yfziw3QVOPHEfd9WzVrgnFzYDMybHPbrljAsfMWWxx6jNVhoNjIYZgM/SGxj317SsmM07ecfG3NeVdbV/J8wpNUAv8XLKE2Y1ZEWKAntRf/xx//7EPbnq9XV5vV+0317XKz8GwALg3PKUs4oNM42Y6/5AIMLc5JAu8GZkmEdY4cKAGLl1RcO3JZLc7Wd2Pr/+rRo7/88ouHJ8cjbPFmH0cz/fPG6eEv/L5AHuAMmlmMAyI4FHJIUpeMmnhMc6BsIApJbGUUyhKVw1DtgG2ERBo4mzDdHSQJHS74ewIGHOB6zFGr0iRLCxEZE8uoA9BgenBQ4IF9lHjcu0XDuHmM7kdYzOhi6sD+SOJPpjv/5uc/+snzZ/uBbWnnv/riK5Zc/MPvXmAk1mDb9QDITGFhSUxJGBgsgDMZ5hWuPGKFBEPDsjC+j0ZcxzRLfBz5SrlFtZjfXD382Y+eHO0XGZz5/ajPH3ZbkNBi9QeSBOC4H9Sbs7O/+dVvP1xd38yX2uL0qVzyYyF4KGwCQoKXI+LtpGNMwQIVRzNKQ6Ml5gljb8q+OR7aLyV96ocxI2Xq5cGIbTxdXC1jzvZ2RSj7tDjOJDA0jmt+eG/Fvzk+WrbdVZG9zOO/of7d9TWVmcsyUeTwqCjg/Bi3wOBuPKw8Edu9hdiNxi3hmuJ4GkCaovLkSrWNX8+ieGc6e/ro0SjPQ75ke7NuS/7/OcK07aDFXSM9eM/25u6u2nQ4eh1blgM7ZxHZdon4++1cYXA4VeEzQAkFkDcbynmtx+Wl2gLWbD3tKEnzjOMXPEwJ8iW1AUYlRAL3CPcE8sO3E7QB9sAhhUkXYPAj4qeT8d6o+OnTx7/4/LNHJ6eoySFr9uMvngFvXa2Wi7rdtB2AM3BjwKG3rf02pRi3wEAODxMwiYgTl0SAejBmD04xEjQG1aZxJTZNW/VKxul0Mg3TxP5UkfwfWCO4UK3BPb+7uABT9PWrl3ebGmtFcMMAZsEPcDOHm4O9igEYRF6qLbUjaMPRJmGWleJ2DqDmiVVZs95tN4eJLKQHNQMmPJqOnwimqvVZ1y3WG5AHnyRDHAH2A7OSYuYXOA0WuPkpjhIp18TEbTvkaZ9kQ5ZFaYwRPhn5KHIyAisWqivtEPYFCZxCibAxjE3GOaupM8UIXKcdYbvrCDkt1jlhTn3bKPrJLtFtX9d2geZ2w+SnFrVQiUdxVy62ht3Ob8/n8zfv3t3MleoAXGfANAim1h0uoaNAJyWO/MX61lAOgITWRtiqbAdwRqHpAtx2i4l92xscwsR3J36n1AlwpoQj9gUbNysnm6FpgaHAZ/NtKkTjmIsBbrdrchnt7u88Pj559vDhF08e7IyLUG0Dd4C1cY9OD8HDE9P/9rvXLz5crtousF9msFiRawzUCGyfkcjcXJppmXoGDI9h6TrHBLrgLPG4jqXtSzveaSlf9IPfRtio/wgYP0bdQg1+OCfkcn0/zBfL1xeXX79+8/LtW+C3Hof/hDknArAbmxCmrFsM/e1m3aOD505H3sQkkrjiCs+fG8woAsjSXNX5Yp7WlcniTRmRDJSSSSZ3itEXh8fAOl8t7sCLGyG6IsMJEh5nvzEcRoB12ggMEhr3llaOd1FmshxMEUV5BLGMTBQpcCs4Jpz3yMBCESBmhdF+4o6QYBISLROQuaLoaVRjg982bHRfWYpyEwLaH336dscFzkkKtppuB+lvYwEA+per9W++/e7F+w9XG5zS3DS2d9hKAagHW1tDFx3H1DWue9K4thQbkxkW7eNWV1B3FpbbwfubwTTGuV4DBSEFiw6mbG+ik6gXMQ745pZNRlkzFcsb04Hl4lgshB/AlSeN7vatOT08+Ks///OT/f39nZ3pZIRzY8IVBzfByqKQQmagdc734KFev9dKg13juPZVAKO2adTC2cWxjkubjqXICO1Dv2iopw+ZcvCoWaKKPBv66e1g3yzW/yrkBcOe55Cm3e6xDXGTMHg3zJKk9G65/M033/765eubVbXcNFTGIaSFXTGYSeAk8WRCyAFOTbm1FTgRHKEMppK4FMxjSNbjDjrCAD0r2i7i5dxu2rXKLZgbKmgKioCzgQ529mhXg+S+uTirjWHT8RDLHhABVjhqy63YFiQANr2r6ru2BVmxMjRTwBkLgaPEBPbrDLi3mPcslDkht4K7smDz4dsw9459toKB3VNqPei7oausLZxHoIDBTnz4WPvjtqPyt4VQYUsHIj+6LcVy2FXYL5fLbhjevj//1bffvr+5q7E92YYEYY+rPc2AiVOLsTMWyhjDcAHMOHO2LQO1YcmUBdfPLK5VNLhxR7t+APngcSRGBSsKhVWwWI4IjlnmmdzZiRYzPfce+LrFvh+nSQ12xuknDx989vizX/zkJ6MsFTTY8BC1CbGxENegLEmSg/396f4R/7Bpyc2gOuDAmbA4pc4xTUQXJaIogS44mXPsF8BxPzg8FgAwBnVCxwCD90lFkl+AWauq//L6qhRU69B1hdWIwL14FIlE8CKJAUWtV8t+GL57+fo33796dXaB8xGwuhv9fiiKxtJqnJtsQazJxGNv1gRAoSS111XvBjhJMIU4KwDcKFB1RXVv19e+mitcQ0FMvR3h4nlK4NpAmiYke8TY5vp2uL2OFkd2NOsyQKRMEKpwrFHoLFLO3VSbedcqgD8gE4AlhcCpIIKL8NXhFmwKhhd7zsKTtxgeBfUHA8jBMgzAdKJYy6Guu/lmvVjNiwlRQqjQC8ksFtTBB0mcLCMwL4DRWEq3+WLnlNHrurm6uXn3/sP53c05oMbNBgOsIG1SJozuWD93QOEboltLY2zEQ7PAcJhasEHsPnpuBUoWACV4OmET3ACq1tq+xbLT2RhH2+K9k46hOQAMgzMnZrP45EEPPERd4XxSrQdrFlZHMf/FL/7sZP8QDQ9u/v4Uiw+e+gfzyuGGKhqdk+RGlBgJZYgeIuDUYdVHH+9E8aHnU4bhBYYzoByO142xGgyts8LBLRxzX1F6tVq9bzb6P/+Og2ducZqWwF2UAO1ikOZpHj+YZeMyu766mC/mL16/XTUdCCt4FiBE7n6bMA2NaNwZjJkCWiudnSZxWpR+t1w6d9H3d0PfuFYRgfVGFPwbk0D7u2qkW4AuwPVw90YoQd5mZ/I4jni0F/PPyy53dn5xtur1cCj7DHA4QuZ7SQIruuq7tdaGByeCK2wFgsowNWtb6g0yFGEDBsMdathLiQvV0DzB5WvWgzhyOXCxcf785vp33qz2DlySvVtvVh08TmA5WAx7WJZPdmePZzv72G8otp3wWP19fvnizdu3H842VTPvKpAqEGKGBeC4ejYn7MSD9QU2vlZDTrESCTurScAqAEf8x+0c2N6MnsVgayFGlkH3BtI28EyS2STbmwxJ0uDaJ1bDjYTM1CBdDK734BgkVtJ0mF8PazYAHAdAIdTh8YNpkX3MElIsp0Re9/thX5/w79z4D07c5Tshxdz3totQTgu3d6BG+1lxyOOJwAlsOB7D4qwfFvYRoE02XmgMIIIBkavBVR28EXDKEC/mYcqA9vHQxZse7vwtbcDoqgFgj75drSgQbSyOQK8REnMoR+DVrUaUaIY+4X5vXP7s8y9PDo753qTxfq71VdefV81dBRgfFBboRzwpRgdyXN5dt/P1txfXgN/C1A56L5cUw3gJ5w/G43Ro6Gpd97YFgHF6yNIUF9UGJUOPA8YDHADW4tDtWjfcGBdQMwqtwOgtq7E2F0wZfGFZN99umA8rhBTBBb8dNk7QD+vmv1TNbNnZ0eg7LDPSqkHblEb80XR8DQLfqccTuKIYuxC1uVuufvvdi29evr68vhNR4uB0MTkb0zBCjoWc7UFsG2vATK27DfWRwQqiKJQxgl0ER4LFRtslk2HGECjjQMCA697gRCwN7Evu5H53NCTYG0JwbhDciw3l6lgozosxQC/PcVKxiSU8aTO0Wtc6mG18TB/nQGwJ1acI4aeQT6vtChhiOjXYBm5bp8JUitLt7NlyouUIZzCF1Usq4HE4EWChMlw3gDrLBIh471lrLBgZGo+AYOD6c9yQSyW2KSvTN9Xi7m512TWbPEsSTNghnMXFyGzbzhCQKe4EAEVgzNlJGs/y+Msnj/7qZz89PToO/c642BRc48VqdQlgom4M4aXIMTFVSjvf++b1h79/d2GxKN6FgZZoSpCBYsUJj1Jwc/rYqqaqrt2ZSqSeTX1e4DGx7Wa+UMTstntUQ73/tpgdF3xjXAdRXhdqmZHchpYBFtA0C2PFth3fuLWYkDPPm84VtAPAtQBRxCq/JIVv47Rm/MVyNW/b73Mw1Pmh15vFYr7evDu/WjStwu1PiC9FFKEVDCvrA10xGXNTzlYEoDPY5Aq7PnGNu8M1u1bg0sjQMIPNMDh7OUiS7kGSbN+JyPNRLo9mdpLhbKgAZnt4oiDdjIFkYR+wkCZKhgkgpwMaC9XrZs1k71ob9kZuJ5bjgnf2w6Hun7yb3479Al0k8SBnBN4BkE0E3L8w8RikJPIxCQQT07Shc9niVmzMVFFcEQlkmraYjQfeiiHDPAWbzUcpTQQrABA4kzDRVWZYWopBPFz3qZ3FOd0cR6bi8D+sEcaII84u1wocTcz5F48fnexOf/7VV4f7u2kab41MBt6Ki6kQD8uix6i3S4FYxlGaUJUl541q4CAHLLgNY2dChSzDiUW4Gwg+LIoOsN+1E33z/va6RmYROnhCSJYkcSTxJwyCcTAxYSgdPBfFybZSECsuAwHHVhPM2DmJU/Q9UTgMEaBh7XivqTa0i3KVyiaNwbkmo7zgorAUPIRkGMciXbvabG7OP0hKD0AyqqrTpgFQzAVLMZEssIRUfFzx7o3WKNVWAQvd59wotyJ2U/c+yghPPO6MCGlpxkPcymBxKUhSV4FVcQCPitQfzeTRhBxM+yyyoa4fZzo5zIYObpvrp8KFMAKgLaBaugT1H1hds21POw+JBRqClC7sSvs4rvleoFCmcPHMdgYQw1V3NkqVzInIvI9Atnuc3O8EjoTA2S095sRNbm1qcFXu4IQeot6q2tIhjGPOkrSIoiwjuWS5BKdoMkGBvq/BpgJHx6nsGK8CAIJRFrbd6UI0Nilo7Acx+vmD06cPTn/61RfTUXF8eCjudeC+JCxGzi6ALeJiJG8xUxm6p4WIir3J6Gjnum55P+i2oeHKMdSJgupzFxeYNCEHOI20sYuFrfqbqr6vCAZFzYUoAd0aBWwIl4aFfh0b5hqGMZlh5TUh266g7UCACP0BBhSw2AN8vEeugN8sJMagi5RJNgJjyGVJRM48TqbBSmIPhnF9e1u3XS8BDWGROXgobHfAzuPtSCZqcQ0vCbOODErVYAqMB/nE2zvKL3qNI6ciHEhsGM4rA9CLRsMpabGwRena6ZAGH5fu4ZQd7ZsiBeQFV4uagP0z2KWF4R5y30LjaFiLSV2LAzCEx0ZCPUqi++3u99Gwe9Ad8MjHyGFweVh5JxHAYHcdgkeQGNbxsEgdh4Aj6ohNaDVFS4+xZYMrtsMGaDD+2wY2M8BbIBGNEppkYHopDuUGFmwi7jVoZlaAaoV90VbgKAccaou+JKztpqhHhg24w+OnTx/9/Cc/Ojk+FmGA+idItw0Q+zD3AukKPEGPBS1gKND3clqm0enh7oebOehhDpKphi7gLxZUhYH5EVEmgGlGewAPlpt2vb6pN8G7hXKRvTQ/iNusU20TFqRnxm2tEDbI0tC3hLUIgdFjvAWcnsAdhmhPUzPkqh0phNbUqIFlcVJkeQE4CCB/whlm66jLgNPgWPxaU/BM2H2AzgFMERdhsWbo6Q0eA0XSaPgt9g5T7LyaRNER7n+b7hw/qGX5Yt693wxvq67qzaYf2h4veVtukzPcUHMRDeDXy2ynPx6ZMRDoMIlJ4QoLiyBPg03AmQQuNGPhdlmsk2Tadc72uP1U6W4oOl2A+smPFOa+ZR0zIfZTMP5j2ec4EUcltke1wC6wPMrAozc2omHCkQ9pQKyPR9i+LcUTltje6kz3uekPZGPcpvYbapoFoVrGNSg/LpznSoCsGwksKEqz0VRZ3+EIOhw+iiMIQ4eCh8etVczo/u7k0RGmqr56+mh/dycNg69/74J/oBRbiLyNVG2hHzxjkLiT0fSXT5+/2/RrcpcDJ1bDNmFFw/PxofEI5YjhYz4osTesBQix5TuA+07H45Omje9u3aAxmY51LW47otaT0AmLLgwumobWQpxphKE/o4UaJkodG71PsPGoIPYuYmAARJ5x3AUQoaCDtaMmjnAKusHxOjyJY6wPBEsiAugM8zpwkBCKRNipgqEQYGvtznScj/NnxyfPTk+OdncfPXpkZfr2ZvVusXkxX6/qft0Mda+ArMC7w50ULK4o/Z+vrgURJ0lmpDGkp7abE9YyobCLGVQd/hp02QGJAjArDKoetgiDa8aprJ3va951WTW0myov4x/UMmwZYsiU/OOs/KyITqapcAMZFJExcjxAR2BQNRooFyKJWCsATBcMDK6gFoY44bvcNwdMP09bwrpW6TgCEZSI9XCmO1bFtBjYxf0AIrXldAfsZr1ZYMUcqLjR8GQB04AxmxXpw4Pdx8fHX33x/OGDh2mw9//t7O/9HdGPI/k8ZnR24vzZdO9xlN5FCUgiUBawgbgEe7sjED8PN3aAjuUxrgnEVhfabrkbVrgdj8qT9WqEI7rhJ1O48jAWIQgaxpS3s1m9sqHOETtwDLZxqWHWDw+U/YLwEwFgU42lfCnJndCcWzhQl8Sowdi7LZwMTcVRQqIYOIDXNoyWZ1vgEuwROkm0ecaE08MJ7qd7O08eP/zJV18dTKYZY3mKw0s/201OptHPH057LMXCUSc+zFNHrdD0wrm/+3/9V9Lap003ybUrRRfFLyJ2JmnlbBtixzFie5Qkg3UNZusdyIBpNtv3XjUzb6eDefPqhdrfmY4mWegcCtFlt21M+YFobSUpPpxEKR2YboADwzMxvmdWbjvDLbpqZkLtMTZSe4ymO9dItxmJ9jilh0AZBXC6mDUJbaVXlQJkyBLlwPVgWiJiLgblyE2ULiMQt67Hbdqqw0yBAtspPn/84H/881/slKPReJKEYVF/QAv+hCT5j7/Sj3zfeoCIvm72wJOMx3vjsu+7ddvdrNemRxqMQ7aAKCAqBXciMiJKkRylgeKGeRr0IEufl/lPJuVyU9/WS4UTCd39HhOcu4qHB25Ru4DFqRFai05Puv7J0D8h9CHjx+C2E52VOe6O2Sw0TjWQNC3MNkpOwtBFOI+sABTlU7Do2gfuGqI13obaPHRrA2YbxmU+3Z3tjIuffPn56cnx4fFxHqW4LCHMrCqzqCTuAPEK9/e7i1DSsQlekV3Kn+CSIf+5IHvSSqzYMhM3jBR9Z9UCYDvnOKEzdO8Ki8sYnQLvpllvFFCSqiZtvU/IaRy/P3/Tt1WSpA/290dFIYFFbY3SvTb/vs5hb1I8PxieTZJ23a3a7RhDgYwWpBybJJAThNknWD8Mfk0Sl5rNWC8msh1FIo5xl4HI0+MpHA673lx0utMjMPQlobkTWB9tLI84gPBZPO3AP+iubnRntAWO9uDBgy+fPf/s8SMwETiWJ5iOf1Yjiv/9sBTrgMq0Z+fX79++SawqJ+X+7gx8w7rtQRQWbdO3DTaMGAv2DomagMPlYKGWLkgSsDXwQCPOn4/H/+7Rk+7dh9et/rptjQvo2oYJphy3PYKzG8IqeWAJaa95rYq63VX1SMRSxkTyWPC9UfZ53WRNf+frBUm9zIeMtREWKgd/wFkxkuNejjbDADagD0YBTZEeelD4PEvTfFJmyfH+LuC+h4cHp0f7KfpFyUNBMuJ7FzK/93WC9wey3eAFQna3Xi0V+cxjp8bpOE93kknMUkp2rd/TQ+H9t4JfJ/EAVtIFSYLngwUDyoFuNHoY1nFdy6HbYdGDsli3K3BL7hvfNfX+bGc6G8cZ8B2q4NQxF7Hd5InKDBL5OM/+h0cPxG3/9c1mhUHkCHs9EeJHBDg7GmDhML2AY1kiP4x0Ne0WGQ4DYy3fgQsqhJyMR8mY+7NF49UNE6EpmGkwdlj8gWc8pLtsR3jFNF32DelVLzl99PDJyclJGm2rYJA/fjJCnyKo2+2Pf2CZtpQBJyF4t6qr9xeX796dX15dZaNsXOKmS6BBozG6Cnt91W0Wg++QhMqoM7ZzLoqSxvlzNYgWJyPgfEdO+VEx+rdJSrR5vV5fXFxVA3Bh61LrI2zOD84jpCaxGwzEaBktqrxuKI7NyjZlKUhSRjJK8ocE+Fp/ZvvXm/Ml7YfxPo8Oga8qzNORtByD3U8G3cDFASxrGmGRiNVdB5bm+enxk/2jh9hYMi6yBNfGRNGnJJffYke2Xazx6SBCLyhW25JamV9//+rd+dVJnOZJurs7jYt4FCUxFgZ20WBk03opmyxbRElY34DTIJnSSCqH3tRrtr7N6tWRM7uRFZITHnXWXt3c9pt6Oho/ffbZ7OjASHbbNU0/bGr4RywXjjgfR1h79O9+/nTvcmPUt78FRVag5YNPEkxRcsyI4QYaRJqxd5qbKlY3Ul0NtLo1uAS5iCQDdgYPR/AnB2kFzr1/u1JjEO8uP+gJ0F9s2ucuc4K3hTPRrPfjqlpJrulonIDzw+yHC8fB/kCMfmCD7l+M3ZembmtzBq0Wq/Vvv/6ubvp8NNqZjYscB6bAeUtP9nZ3MPPUq+u+rgBk86TtzN1g7ni0EtFKMvHdhzO4h5TLcYEx54Ms+svDg+ej8p1yLzb1y+USTQd2k4X2BoQWkmMpQE8W18liGeMoV7+OW5zlS0aUZDnIUpJOEk7axretXM9vPFdxZidlJ/lAKXxDlOVkZ491PQgmjswfho13GwzlJF89e/bVyVHgrvLTCdD7GvDfQ0RyL1bbIbPbv6Vd15/d3L67vDq/PD86OsqzfDsEOMJgJRmGjq3W5WpTyFiMxiLN0UKANTQ4j1MYBWKULO+mfb839IfOpN73JI55jBPDrbtbrtd1WwN7uL3sInHnSWd83WvkEt6mnOecjKTM4zQS9EfHI+XW79eb64YZk8OdeZ7QSGI5DsFVt8j9hs72a21XCoC2i0AvXZZxMEDYxUem4yLtu5S2l6q6aK7mg1HkiET5wIjE3Xx0EJnFgx0wLwNeGVeO2tCWt02Rh6qtfyxGf0Kk7iMbKE6L+fLsw+VyuQaStLO7U6J3wCZYhSNPkGeHcCOtVA9IFtCckXrjzHmcNbkEnRP//uUbLnAe+cFkmOXpOJKxjE7G8f/hafS3Fxf/H/XhvddrjfM0AGMr5O4YB+R6SJtut9NpM1AcrW5rIsJUeIoBnwy8kZzEuQSeNmjS1beL804eD/lISTngIl4ZFxnZ3QF/266XPfUrRtZ6ACTy4MHDw/2dKIr+4J5DevYPEONHRBmmxw9K3S2Wr16/7oBzZVmBI/vLbRMZFkyrvgG/tdncrlYVKDZC7ZDA9TQ2JrYm80Zt5uXdfELczMNNoPHoA1XBQRyAeCLaW7O8Or97Uy0p3xS7LM28iNIUDsDGXgmcjGU37eZ0PDmY7PxsiEd0SGtfmQ4ef4/NWwIjY5gqrDCziUsozGZwmQQWZ9pog+YRuxhIidY9SUDRRxGuT8MtWz38s84OGpwEj9EjM+CAVzh5D2gT4CguosRw7nZWE3P3Mf8/tkb042u7HojiJBW3qZuzi4sPZ2dxEss4KUdlhNFt9K24fC2MnmpVTwGmRWIwttbDCoBEzDaANpOI57n46/U6dSxbbfLrm3EsZ1F0PJtOsuwnu7s7MT8eZd9X9fte3fR6bVU19FS5lMmMUyDnh1xSO1cdgD7VsW6FGoHrRDyWwEUJi2ap1ATcqKKrq3POAXmZcqJj3HyaAMIsMhVJ3z4i00lvunq1HCRGXeGfPt3w9gh+uN75BwezNU90ux/g+m7+4eoSjgN+FkwRSNK2x55goNBUXVe33Rw8wXqFC7aV98MGTF0p4h0mjwTfF7KjrO4rYGgptsmxWoOaKy14ggO1MJPKmUTtxAlwunVtIhORCpklODcBrkFhPwa1w3KoibVxyp4dZSekvKvNVdVdt81qcK3GWbiM1gD7coB2xi4aJLVDQmTaY6cQPGDGLbJx4LfYoTIlXQSyp7s31dW8s00yHZIMGJYeELi2ioEPBUeVRegWXdiEvF1d+E+1WH6Sp62VgrPdNN233794++Fsvd7McKtTHCbhhWxsWArQdjgHDA7h8fFhUcTdYC5bdUPYUsg+zQSgEJCkCp6opYAJ11171/sLRi5Ul0fSmX5alH/58MHnm+a6H87b7k6pwfTg+XFBtBQ7SZzU3V2cfvfm3XxxB5DW4riL9QBOlDI4fhZFwCNylhzrXgLJWNzdatto246nTrAObkNiktjs7KgsBplnGuiM/+P2tz82yz98BUrg66795uWLi6urtu8ms50yLDUMEz9Q7dq+b7Hmp4Y/fPbgZBolj+JxFeHcGIBQMxEdRnI/4lXM3rrmw/klnF2PjSfwpAenWUi3ccJkzEQOtxaVEggHDvPAadtlivu2wIbBdahOsSzedJuV7gUT0yx7EvEfH5atGt2um2VnBsuBsApeAtuC5397t/6uWVwa2zpR9Ea6QW/DpcZGnhdgH6iIOJskzAKQo4oMi3rZ9vkekUmjGYausH7A9R5Xm2uTI33FsfmE/RPHtTVFP5Skum4uru+++e6ltkZICdgowsoCFnb4YDdwi02wm77rTw4Onz19fHb+4a5uqmXFqTRRbIqS5plNUrFbjAD+IQgCDmww+XC52mijV8v1L58++ctnu8/j5InRFQD10I+3FXSG42iE6/XbJHl9N5+/f1sIZgXfjtVL4x676OFiBAeYMgagaBJVbyKlzo3bMGaKIswbwpLHHmyV4L2lY57t4VCQref+/Q1vseGfPJZtkAKu+uL65psXL1ab9Xg0wQGN2/0kQeGUAtemmrrv63aSZ3/5L34WTyYNy/h2pBQuccSyjYz7aj8/zdn/st68WKxRosNpkoh1mPlg+HwoixnNsEunjx02RIGJKSQvsjTxOCMHU4e4tj4Ch141TWVU6e0vPjt9MJs6TO6A5+JDIFYJI02n/vrbD1fXl+/WtPfR0VBjjwDV4EWZszHIKbeFKGgk4EOBz5xIQldVs7kxphmSXbCDuNRJ99Q02ndXtzd3y6iYTmNGtv3C/40WjB90Xfrbu7sP51eXN7fg0abTaRonEle7IA8e1NB17aaqFosFnNL+zuxHjx8Dmqxx6D/t41QluUtzEideRuJoMhHUYMmVdnRAanu3Xndcn29acXYNBu0Xxwen8BnYLQ5aJELYZjsckWHX/LEfH+z513GlB7VxYQwZfmOtkxluxLOiKOCZwKN9bt0EuOBmVfGoN0ZHHHAuOLy1GloMCZodx/dwmg623OGUgnt2TX/PXf9xr1eQNCy8v765+ea77wAYAjKa7e5uF0vcD44JGw3nd3eXt8udnd0fPT394uFJlqUOHD5ORJL3EyXxE52OyUEcF0n+t2Df3p+tmsoD2wABgJMCZxgZgE0RF2AqBJMTQ1QkWsCDWSryEa5gBR8klXJupnPpxcrSpWrftetHQ3vg8qd741zwMKEKz08SNaiYk+OXN5/37xYXy/WirbADRTvckdvD+QKSBkDCei1LHA0UzTjCVOC5RTt/tWqULhSVtp3nbu3c8N3Ll3H7/t3N9eOj40d7sywptmvSPrZ6/6CBMIgYZhC0advm+xcv3lwv83I8gv+NxwnSXB5mE6hqs1lXm65tx6PRj7766osnjydTMOKy8+ZqaBZZoXMUIzxG3B8KKkYdaEOC04EVrlQnyWB4o7qrZvP3H/Q0S2ZZMcaQOI7J+WQ48TkLCkx9b282Ot07v75yCsws5gUwDYHbkACk4PIXsJURT+KC+m44bcxms1gT3ZRl57BYYsDpMTrumgxgL4lUteyAS2bZVnNcyPm5MPoazwFbELbbt/GPcByLqjq/uQKlAnc2KsoxmFjcXIO7NMFcN323BHJYrb3uDmejR6fH4NJxfgHZ7l9mH+MpuJMsjvJ0lkbjUsYYQP3V2zfzZUc7zFljzxxgakO7nMNbZx7IigT3zeKMRglwc/B9ILkC57SoBIxHw32WVHS4bf23t3N4kgdFmUc4y1Fsd5ASyiPxeJL966dHa+3ndXXppmPdctOlXmEGMCEDtrWnxmFEB643iVhGxalLAQRX7ea2rRRLBr3Bqgxh31WL/j2/Vmw94HCEydhMQJoA8oRxAyEfZbeb07b9+lZZ4OVXt3fn14t12x3AQywyXLAWLg8gyrpv1s1muVzkcXy8v/+zzz/f35v5UNClLb/VgPhdoHNYTOwxdRqnHO2ox9MF92SGgqeR4uMhA+R0vl59e3mzC4q6t4s1IXTr3PynZE0Wyef7+xefPQVu5G82TLVgvDXHHUgVzqJzQA9LUPQoxglhXB6Tdt3BBQ4Ky1vS2vVu6H3Tk7oBN9XQ/rtvX3anw4OHD5MkDQMC2H1Hhf/UkhJ63zw2xQIR+/W337y9PO+s3p9Ns7xM0vutEjhzBxx8hRvUheDPHj/84rMn+7u7nEf38Se0r58GFWytHByxBqLw/OGDWQ6Cz/5OvbpdNUQZXPcZ8kUaRBtXBVqXJ1TryFipDbgseJyDxdJxQOjY0lKmvKMpWN7Mvji7XM6Xvzw4nCYl2zIJElKlzO+W6b/+6mRN2evbmxdN2XebfgAmpfJe7bQDMMyVinEFF3p43EfNmcjK9JBSldKNX+tmOcSdzkWXxguZGRFtlPnw9v3fLO6KPPmr0wfPdvf3JxMeGuIczjXCreHW4PDCrh3+7nfff//mtbKANVLc7JKA4cO65H7QTduv62q+mNebzec/+/mPn3++U+I6Ax0Ku7HIPbTXklABZ5jA/913quP2QYz4MZR/MDZxAc/X+9UwfH19NUuS/bLYS+OtDG2twjZRwJ2fOHoi40VekB2eE9ECj9N9G8YuaqsAbOgs8zmoRSLAhmX8sbK0M7FeKVJtuHZVR6vW14Ni/kbr//zNm8t11RB6cng8wc0YYU4ODuP8VD69bRa0Vd29PTv//tVrkPgMN7KOY0DZuJcYR+02XVvhHrJa9+p4Z/rVF188PD0FOvcJu//JjmCQXWBR0XQ2yyfdTcOj4v/+X/4DAyLW9qCJpm3IHDcmcDsAeOHllBcTuf+e5bg5rSsytjdle7OBRz7PjefxYIWz1zfLtmsuNpujCW7S81urjv1sFmjfo8P0zxV5fX1y/k3TGFAsMbhualxSG963dVaFIAdg39iFtWJwjgOW5uHqFjAfRZzJLMrwzlOwtUb3d7pfrmvZtADQz5bNwWwXZLHBjMW2koGFNQfEDuqbF68vri8enB7v52DOcxnsPLg8ILlrHJK6BsNxenT82ZMnDx6cgm+5H3gcSuqAv2ps4aa4EkjgBAwxRLJHDOj4doehB+AMCmuiRMehUv9dtd5bzn/ctUDWPLnvlAk2goIHwbVx64VeLveSZDyZFVFyNZ9frddV1ziL62LWTR1K77DwDhvtJD0FMNzpdlOfDyDGxGwGPgyxIZrRG+LrRbXwok0uvzDisxO6k2VFBIfuQPxwQJUDtkdxM6F188Xm7PK2bXHY7Swfl3CmwK3DuBXg6nXXVXVVrzZllj0+Pn18cgq/CW0Invxg+dMfvtB9on2mQjx+9Ph2kl/86j9kg5wslrHdJJtu1Kvdro9tD56bxsXAEz7b9UVKwUTtHvAHjzn2tO/oJG0pU3EKsNWlCTzF265f9/0OEPiPlU0utB/BIT8ZJ//rHz385u2L1524ZenKC7iDKQ4wbXOQGXTCWAbJRAymr1b+rPevG3WVpiZNwfWMomgUc/C6hRDSGqw59mAw9Lu6PsPijgXY/8Vyg2uo4dFbmgkObogb09W1idKag+wCTI6xStABD+jC6q2N7YfpePzV889Pjo8Ap32ccOU/0urtyOkwXgBLVMGEYMgFY1MgRbi3BNc5YiOVjwGTOjDQm6q56IeLanMcR9PRiH2scIGnNeA4qfPz28umrYAyzSZgRIp0WpJ3Z/Wb9/2guBT46RYz2fD+uRNJkSRJHnfKz+d+3cBHR4OTjI+TgnM/gOEEzDbI5u3du7vNs4urnzw6efbgMInE2aJerNdN24A0lGmSy/jd2dW7m1s4gmlRTvNxISIRxm42fQ/OblNXi+WiW9efP3j0+OTBuCwlD9jIf8Scf4rTfESkzFAC2GrBjB9n/dxG1/P91fVJ1ZaSgreg4Ksp7sbVoB1AVEDGaTe8/aDO5ou//9Xw+WfZL/7MJlkt0OSTBLA4mTfDsu7dGKtJsIAcjQvddvrtZOIXp/v/+192/9+Xl//+xdl1r4E6vu1pL6ODvnNY34ddNSrKemXfNO0Z9/DOJC9lkuaoadGEuzHDCHsKgNImoHcgeVWr617dgj51arluYwCIUR6lEY4gwSElmoKj0P3FqmK9SsfdCJev002N4aO2aWZl8ej45Onjh6MC92aFlUjbyVeYRM9khH1RxuFsO62YlKLDrgyCEyTDWDhcv+2w5UPB5YMFj6xLsrX3V021GZXjgFUI3c4q7YEffvvyxW21Bvg5G49nI2DZGWBeNzjVDNeLRdc0SMFw/a9Eq6hj7mWj7Lvevh1cA9zDgz5hLdwO3gbOHgJdIY631p5t2o3Wd4P+frkGi3bZAYtv+6EDcQH2BLj68uJ8Xq+naV7GEsuLcVmGN063QEjMsKo3lPPTk5Nnj54c7u5HwC+whtjR++z9n450AiQJk61xEc51W19d305W/fh2/uzD+aPqbs+5YjxJs9ROsiidpuUMDgccWce9oh7osmpX3fsb0i6NpPrRM1XsanBlMoaHB2LUKWyapiH/HHYEYsUcwNOE86NR9r/6yf5kykelewksrgWbHUvSO3sH5LEHEBnH13x5I5P3zq5y0KRsMh5FQoBXSgUH5p9whmONwHMZnErujRlFQz0MZFXhLljOYiGLpDiYFBEmm+EZO4W7zvrlannVM/JhfjhKRhGtlyur+zQS4NKePn48KUdCBIoQQiLbBS6xEDtFqamoeiNoT7cNQB2iWq8CF4vDjNzg4nC9hMJKKgEHoYhb9l1ttL8v78KA33K1vlsuLq6vfRSP0bkUOfhrKoHD75Rj9+ghSNvb6+u+7UOHggw+p1Q2eVv339X92eBtVGQiH4/yOKGTlOfUpXDDFq2lBdiJe+eH310t/vbdZQ93DTcXSxHh6Oio7oDPAJjG4RHESKMyrSWN0CtoBdaoGjrVDw+Ojn/+/MuHh8dpEm8zvp78Y4P0B8KEM80QyzOcWkW6rrHXt/u/ff385vyz28u9yOQ4mjZLk5FPM15m8Th1SUrLIsKqG4rJoaYSttoM9dvf/ArnUD4gPo9VCGHYMO88FF6GRL3f7jDbVlXTmLGT3aws08eHOy8ul2c3m+s56OnSdYR1tR26ddefOXqe+74cR8lE5DkdjbE5Ms4y3GzDSITj1RiuKjKRCxWIuByK1hYjxTVOE9Wd6dBlAJ+zuAtKq0iZArDyutXv56uqaSbSRqYZxeLx6QOAR0cHB+DXtuMc0R1vHz9DmnVQFA3h87ZLHUngEeC7YH7DRmE+MIBIcb+PzA8kasOE/FBn7LGu1vjt+voAeN3vvvn2arUAMD+O0nFRAvcWEa4MM1i160SE7wVPZ7laxakO/Uamt6zv5LvOXyjaizxOc9xzlCdFLPKEldznjKZhVB0c9KBACMWybtZ1s8LFxWqyOwGTi/vywJx6mpUjpVATzkGzbu94LEeMgMAv6mVV1fuj8eODw6cPTrDPmm3LHKn/OO6L/gk5+ihLZBtfJbRaTt69+smLF4+ru11GJkKCSc/A/mGFS8yEhP9ayWkSySjyUtA4MXGCy5/btr6d9/0/rFZz/sUv5zicy2IWxNt7zErpdkwiC5e1BR9h5RPPk2Q3je52ik09rds9rY7aZvHy/fvzt9d3Xq4iEKBRUuQgyl6mOHELPpRzcJkefIgMU7aswMpx7AF0AK7KVAOI2eRy0ajGY+CFJQKnTDqHi4RwcmfB4821isD81117mtOd0eSnz7842N3Jkm0M4dOmrOCQcPI1/azI6tbdrhf7XfxAJdPIiSbU+4QNHGCZQlwlxBw0KKXHxiMThhBieT6uW8Vdd03TzZerFy9fL4d2Z3cP57iXJWJ7eMRhIewG6XcluNifzcpybAJWarqhHcgt9Xcsb2Qm0jwqyhSHIcL/ZJKwVBAQo1RQ8OQg0ErzAlxehJSeb6J2UUvPcpnMJnniTYrzdfOmqwdtu2643FT5TTSGq9e4Qd1r+/njJw8Pj8osZVs7cD9dl5JPpQR/6mUxVE08Dlbs2KvXxa9+8/livuPUKE1xiyBhGcMmX6wbhIex7TIVIFiRiyKL62kjauHJisNF1364WLebJj8Y9keS+kTSMCiaBoL4sUrmB46VhRZ5cFWH02JnlGqsfkIQXHUbliZ/B7iZl7YseZnbOAYhQAvEhQWPIRhuuOfMAHfjFAdiW4zRMCDLjiaJyRzNkm4zWOVJb3A+KZaTOYOdBjJ0diVGG3m3qEyv4iI7PDh4cHws4jCwaHt53n8s68PLLhh7nmbL9XKzXj8p8y+EP9SZaMNYQo0ODr9EmBKMVbbEtoA5gO/hNPxQrx+UCT75brV89fYdgDo4slGJk3RxzSU2zHsMz/b9ZlMvFxX8w9H+4f7h4eX19YuXr97V5tK4WynbUUmSlKc5j1PwVRxQEjwTPJYw4l6wmGuJcwYwbMAZACfkljW4ZI/ymO1OJvB5YLe0KAXtjAWYtlDqNZgla3OvZpxO0+zZw4c7syn2oBP2TwHsPyFJYQGm04Oa34DVpX/zd/t1VSbRyBKAp8CD45AyCgteLTgRF9RrW1uGtoEkHtOrepwmh6sagO7y/Zs0OckyIPDACELV/J+ayRYWwWKiKGzNZcBAvbzfuQhA6OBkkx5cMx/jcAjcWhxmyIAwcGmkBKhiGMWRFUL2nuG63tA0wsMOdIALAofg9FGHotn0SoOXYTiMM1RXO5Q2ZsclgAnipMfIUjlO0oT8oJTg429CMNezjPBd4k5wm/XweJo/SfgeXHEDYu+xKl7iynAHD4OB/XEgv6rHCcsDoGfNmEgj0MReq6pp319cvHj3Jg7To4sMyNh9rlRpDai/qqoW7E+nPn/y5NmTh3sH+zf7e4mUr3/19rLpNlFEklJmIx+nVCbgFLxMHKJ7ZhFtYBUMVqmCbWaYN00p2GerLZkCwrcWULckIkuylBiBeyAEzs2QQjt3d7cctBus/9Hjx59Ppgc7O3ES8tk2dKr9c0Y33Ts/V1eru7evzJs35PzDlOnMisK5BGfLW6kRzAqlgGcKuCJQW9VHYTKuxfZFHqIUPMqiSSJ71U5vL7LSxDsHBz/62SjL7je8/mPJ/ihaH7nA/WX47e+xViRK+yQZeKojLOGNRBhCxKMBF6bhUBKsAAnd3GEKNhYUALLACh9OFI9x+E2ccHCDym4G1YEOMtwb4QnOocN+PwA6WGMXD6xoCW+xW+U+bPf7wstP4VtwVv1wdXPNh+7BODkEqjWZ5IA6AA+DHwVFFDiHNDSs4wopL7H3KvTVdy08ummJmwG7Ybi4uHp3eXG1mJ+cnGJFXYSpie1Gx67rQIzqGqC5HmXJg8O9zx4eJ5iTjxrlzMvlckW1LEH8OE+dwCQD3IESEdjnHnA0xcZCTJwK3IMRPBJGtYFrS2XTNAcKU9WDYxGLUkoHLGikcWyGXPApY7U2Q9X1rT188ODHDx4ksTS49AAzsf/csYQYBMFDbDdgdd/4xZLijF0SgwyBxcFxg0zg4mKc5QDsDn7F3sU2NVjZ7h3G9LlWqoe/jDg8u1zbo7vr08KLtNwVAnsKwKCF4Yd/JEz3OORe97c5xXACcPEt2HKlqyzzQuLYcQ7mRCrc5c16LFIIR4b1yBjCBvcy4D17jp1RTsH3UDBXwuH+D7q0ZtezlsYOJ3HjrvKBayuxjkYkaeWQMt9NOzBb4oeX5+9zdohfnV/03Zvry6jMdg+ORqNxkk1kkgucthw6a3mojedh7BDA5ke4lNbJXtt1PZLiJEkzY85v7/7uN79eNlWc56PJNBURmIcwz8DivMSqwm12TbO3O/vxs2efPQSYEuMCQkrhLBqWqBguf+RJSklMcf46h+MYmOjhDxim2wazqSEswSYOhP8etxlJTDUnqW76NXAyxwcqsKgf6SlAM5xnlBJXFrmxtAOCIrB/nWx3qoUpzR+TPP/9FwMLzbyq2v7lOZlXOIMDC8cxx4BP31IA+3zAVkSCc2o4GjwZ44QdzJlgX3w0KGBQkUGHlyl3sFn++VePhqIc7ubNNAei96c+9j5QGQKjn6zTVrrQxrTGzru+i0sWmkstx7SJAcFlTIUhwQKtLv6oCytTVRiUEzqwqcYhDjQsTqUIVIyqnKsxaohJQFw7jkILphTvB4OhOOEjB4Igt1fycR7LVqBAEebL9e2mAjM5Hu8e7B6MinEC7gWurDM68hyRUGjWSZUeGZUb8xU2RZK18+eDfqDsLmHDcnNxfjlfLIBwTiaTIs9wLj+XOH3PwFPu1pt1XW2yNH1wfPjF8ycAL8Dwgta22l41qiaRjxkVKeMxtslz0C143shV4bHgKjCy7fTlCP+xNTbMMwf+CN8pwK/gGInBs43ByUw8jrbzEj0O4cH5aTIGadO6EedV/e3d9U5+EsorMPTF/4ncyB+/wgN0pOv0zS1t2giOG22IC+PYKS7IVQMPUxcISSjotvVEYD0c0QN2oTOcmxyDFDU9QIFembSqnxR5N5s2y8XtTVIm8Ww0jePo0wDJ3+P/baH6/Z4rH0SIIOEJG1R0mJyxzb96nCQT2CCISHDcPAxDCzHg0N+By8Ywmshw8i2cju8xwYJj2nttakeqMJQ7CYMBe7AhHv4EpgsIll+D8dP292Psf58RoIBtgEgtqw1grZ3ZHtzIJB3laSI4TuETLcAhDM9jZYVUKgOL4vWxMc8wEGobRieR2PUYdru8vrm4uomBu0/S8SgHrxbBNWNrmumHYbVZreuN0cPxo0cPjw6zOMKRBCFgAvTqutU9SBIYZBAIyTUPS9IxPxM2E/jtJBDM9wNnzHGdXNjtjOO7vMbJ89yEXasggms1xFqlZRGapXAdFBgChKZR4mNtkuS7q5vF+vJfnZ7GLDTsYWv2P9e7+bDjluiu75fUNFiNBobKGuBFPCxS5sPAw0Iztn2EWPIC+LX3KoLz0BjJVSD2cV051VLd2b4dA5DcnTbz6uz6smvan33508mESkA899E5H+CQY/cRii2g2/4e52hi8R+YcpRdGwa64RQ2nK6N/SCYjQy77XHMGfaGE6YA+SCSBrtmaOgYgU8JsyuAWQt45ICEll4OxGbY4cU7HxmLS3t70vfWVQpXaLL70aDBKLr79Miyql59OK8HQPbR3u5OUWC+QgrMZeGmdSwoROnGaUqybvxyTsxAtHprB1yTCETM6qGu9KsX9WotO7e3MxlNRnmeAskyuLXLgd1tmnq1WoEGnBwePX348HBvV2LilW/3xTjcoIBRDR+GcVmG6wZoWKjugk6GLny8aFS+MLiGBz/NLd3OnBwc1uFhVQtIFfhbZSYewTjoG4dvBKqA4enYS23j9P1yfXm3RMeGron+ESb5b7wwmIZYhjgFSuZwwDnd1rNajKQxEgZ8IXpjKOoW601wKWgS+0HgxBwuAc4SuGIAi11rgLE4h+HUKLGJrdumXVWT0c6gZ8fHR1tJ4tv+Ievlth36/pdA5u57r0EjecZlaFj128ZV+NKh5phtBzrRsFoFk8vYJz1YZJdBDsGdYfAPd6pigwP2iYBarhxtHE1B5jA5DAhB4BBOFw3Yjcy9DjslPw3cDf5tGNTVDZYTGufKspzNZhG84gibqCwu0xQc11viojSpnNg0ZLXqrV4YtcClXVjTSJIM4MD1fAkPc0ckiZAZrmNCUwLv0IOYNVW12VBrD3d2Pnv0aH93F+f6bOkSijWGMqnD3QU++BoTatTg8lRIAN63OOAUXwyEDlvVC5OUBS5Xw01cysIBCYBtxrM+2LkFYxnQcrtdlYBDi2sqOi4HGc+rW9IsQjye+fuRZP9/CBN6TIC0cYYlR9s+poAEQ4wct+PiW7pglVzYKY5bxXEdHKBtHJIB6gB/rDvQMAdED8k0CKQflWPT2E7V5zfX8B15ieVrUchLBmP4R9dxT91AITHnugvkxgMKNDasxPTonsIcC2tC7anDQaJ4ygQIpsBxbji8AswUXAKIOjg18E3GDhkQOY2DDzrKGiIi3AhApOZrbFklrcN1VL9Ha2Q7bxmevL6ez8EpzefzIrzyPN9OsrMW11F0XS/sakGG1rc9fJTF5X12SGQt4zTKwMZInGAHBsN4jAaoFU52Xi9UdwxvBKcGTm25uFsvh64/3t//8rNnTx48wMpXIX+vXhQsM00Qnbpgy02oqsR5+iAoCnXK4cphipN8JcWgnwo75hgmI3GkjkUgRnp4OtqAgRwTjOLeMHAkPiNhfmowchviGzDjlG0QC3T2Yyv/P6Kw/71XsKIA+LNsd99kxTbjG+YUIBqz2KsWCoE1SL2hGvsf3RB5sNU8rDoFfwpqByQGvLnqlR8A5LXgHsHrAioogbfKRg/g5qquOdzbe3hygm3XGKr8U/v//H0cdRJHz6eTN237dlAeyCMP8AkX3gGfFzgxCcAlQiJi8NAsEnCPiWV4oFo5MtihG0yL80azRpC78wEceDryoCrWMrCyOPhFMdN63Y0TkeWJ3bamBhJZt92H8/N/+PVvlptNmqbT6RQecbwd6wCmpAemBfB4I9z1NcdDMcCecH57lvgyGzjbiQrAxinzCU5JBR+rVd+tkIg3dyDbm5pwWQDQXq+rtk6YeHSClRs74/HHdT4YYgneBd92kmUJndMwNwKdAjwUhqrrcPfKdmy7B6+HURAsUUCLhaN1t5KknBp8B09HDZ0eDO4MdQ1AN/jC7wyYgdiO2AGMpDbYByLEp/kbW1H6ZxolhuidsrwYnT5Yjsd92L9NcGMVTvSGuwFAHbw03UbdcGIqUFxc14uuGDcvcxrmYNneKvB4Kh3NQVeUkmSIM1nGUVVj2097dQ2KHkfxycF+wqM/vrwfTLTws1h+uTv53flwtq4NmDFW4CPGpUU4MRyr/3C6V0g/e5z2hSsk4PRwrJtWA3af6KYh1ToZulMn3Z1uuk0/PjHlHmByr3C5BdH1gW+mKZB3N5b3XgI+HDzW2eXlizdvru5umZA70xm4tu0eOsTHPQhEs1itW5AkCZCCYA4wxfxkKJsrCoGjzgUYpYIDIXc5dRIuK2ZlzJcy3rQD8EA1n48x86zyJNmfTE+PDidlySn7SBrDzgV8kA7ecjYqEs6ZUw7XeuBcxTCvFiPEeP64zt7fh9Qwo49EEiMAuNrROvASOHdUe235oCluPGpMXmC1HnyOwbYvAaDYgvOzQKNyGYXi8WCY6TbOz/0/Q5joxwcYl+PZw4eb6aQXNGxqJ2F/TFjVaXHIJlwkCyOkw5gTA08UE45B7AynuIXEOBxOmHJTpAvTczWkXo4AWIDjTxL4TuVJ3bTnFxdlmtKijMAyiT/seggpZ/gYMs7EZ3uTh4v17+arCmCxxC0GXsY4FBCEPHSxh7poHCNDwnZegAgCtE4p1XVR3/uui/u2NMPTSPV9ddPXVvONlTpJiNeJoyU1zyP3RDBwThPXq67mAovy6rZ99/79xdWVSOIcFCx0oopQ3Ayv7TLIpgEdH0Q+6AaIXBJhejlNOHxfksXYxY9dF+Br4KMSXBYGVAy7uyQDUtaAo71YLdfaHsXxlydHPz59sD+dYjYg1MK57dToMNsK7i+N5NEo22OkMGZtcCQfCTPXDSaCMNWFc/l5mBWPJ8cUw8lMHE7EYl05rosD+zyoSHd5v8nvzh3ZgKPXo4krC65UCtKjsfsRR0o26zQi43zsQgACMTQJ/f801KBu0QeCn+2ypj8MfbuQWipGY/nk8YsH++0o7+ZrRCsIsJlGwOdY6HpQmOBC+gjmNWAUsEa4b0/hoBXSK1dR0sTxajLZgGurqnUGLBNLfGIuUgyPkaHvFvPFexkd7u0f7O8hPQu+2gXh90ENQ/EhmaTp53vsq8vVN3L5FhBFWI5tRUok9w7XEQZJwidmEDjoUKJsTdfbQam2IV2Td82RN0fM7Qox4C1o0s0BZ7VZKbPkMKVfZckzp6bGXCcEruz8/cXewSHoz/uL/19t/7llSXaliYF2lGm70rWK8FCpE6pQVY2q7q5mK5KLw/lJPsK8z8zveQSuxZlZw5lmT5Mt2F0KQKKAVJEhPMK1X7/KtNkRNnsf8wgkCplViapuT0ciMsLD/d5j++z9bfV9Zxezm6LMx+PJOEniIMBiB+p76aopIUKl65WR9XiYcNfldeiyOGBRSLwAtSV81NAiwlJGW+I5sHHkPBKKCXeIssoAD9iizWXNWJTs7O4/PDyIAw+dvumfFSJtZs8DAnfk0vuj6A8ONwsi/uMia6oA5SqQMFf1O+zYLTFwpzu4a1hM4sqDDEBJB1cRERkAem2KItTVFm2OAK0ty7SpVoORnmyOhNh2yEZbD1VLnHbGVKubSDqQLMbCp72or+kZsHr9IGqLTKTv6v71kNIh07wfhOLwcOsf/mGwnK3+H/+qVW1fWhFWkNvRlpcLwQqSClhLomhMFAl7kJDW4ZnDis3Jamcymw4hWe1W6RxVixOUlWIaeUZxr6lrqur11SW4DohKOwfbwpak7lBdz+5hG72Qae+E/k8O9xuH/K8vT56pZp1D5HeRjk4gjRo2KODxoH6kFTLEBljLysYAVMoyp0rDIt0h+hCX9oIA7Mk4XBW8qgsdM2e46+j7cNPL8nW9flks3Cq9rIuDjU3Iuc6vzsGJhX4wSgaormYF4rF8WJaQs6dZ2jblZDh459Fj3gYeDQPmB3B+xA0c33U8F76F5qggq3DyywqnY8FZg21xn/imCwWL44Fre4MO6i255A5RW94Ly43XO2gIdnDZJrH/4/tjAAtf3Jzd1F5nPSdgcYNuDInnkKDOTrZQLE924LkAmkPgkKqBK0KbitVlaOSWy3YUXKVmUcw5Ln9le+PxURhsdO0QLNBnoyQ6vcxNUVVZ3aLsLOmpxMAV8zt9QuxM3iVGb2Lab8Q4iIKoyDi89/t/AGjuf/43fzYsVq5C1S14oS06DFWjT8BSKt4dwCQMmU8rUjeWbqs0TgG38eCAHG3qwQBddNVkpCCWLYoksXZN7MPlhghJAGjcLJeQk02mA4qNcNdCu7udC4VyrAYMJHLM93aGgumb69MyLWpwyULIro9+VnweJ6Ak+kYcspIOsvegbl2YrYbFetJUMS70itpx4M2FuOHYeKYpmrXSs1Amc2JmeXZWrE6zFXi4YDbbO7vEPl5TH25MB5MRjxKsweKGMFxWVZc4pFuUNeCZ3e2txw8f8NJzGQRLXH7zjesq4UkMbdjWolblBZ8FhgMmUPHdIR76Tq7A8BLIvjOlMo2ahoFdFbB6dvj+tUPvSMIs+hAe//h4k4Tenz5/9UnVLVsAEtZmDOoiYOeWIcGwsf6cIuGi0SgDX7eqIGUuiizObxPXmfpeQqkHAddIv25XszzKZiQMnTguBdyxZlWpZWHKdfOv//yXgecOktgVbpR4vkv3R+NJBE+YWHFUjU7zt5xSn6pZDhse7B/RPwq3//l/PXj26e0vfglWFHWYExTEhssOu6RWVQ4ZXnHIhZqKmBXlDWQ3H3//8F/8k42j7SCTz8+uVmmGmmFU4KQ0oE8noABIIWMHrOMbVTez+fLm/Hq6uRkMeKNQ+xW8MSMMRct9ODbqETIU5F4s/sm9XfPlaXr+4rYou3DEwlh5yEjuAGxnAinGsFtaE9kgCUyRDfLlZlNsUlSrqeG6N1WEQmbU5w547Lpt8yafyfJVNl8JX/uB4PvwgOF95QTciWTUnWlwsLXk6VYc7bqxI2WRFlVerlaQSXcPj+8/OLo/TgZcouhOYISvcA/dRQYIDpkIQY1i7H/aSSw7ngSW5Rqs3oC/QI4n7tXMVAVcqWw+XwXjoQfJv5V+wG0yJMDs3gAR8MF0M4kfGPqTR8eLF8ssrTDl6Kz+HiBNhZYECNoWAoll1EO6UAX5mUxZsfCKbNysY+5B0IWYx5HyoRspHTa1U2b1WtzEk9qNF4rm0imcuPbYvzm54oSOB4PA9eNIDEP33rg9HITHO8MYxdUMYf431AaM87Z1ScLY2WbH//1/1/5q98Yhq9NX1XKZaGSscXHBo5/lwkTTyhMirKk9r9rYIO+/u/8v/vnBP/xjtb0xWSxb83NzOauqprIFv3meAc7ycEuJhQLsPCgNgUjx2el1UFRsEJeky2uwJJyDCknoRrj7PeZsMwzBT8MLmJb5tFiD6RYApcuo9dyGM8wf7d2gkM+3FW1qllV+kY3qdEr0yA9wBQA3vDoMh/BTIROD++20QhcCcHmZ68HE96ZxOMRmFvZaNNGtIxtdlTNInIs8RyPVEROyrNfLdafN1mT8+P79nY1NdDpYZeSolmTAWwqI1GhJ4COwCU7uVJCQeAv9IdJGwo1GPRPIwYSrPJNq/dXp+XbbDj54bzIMsIZnZwAZFvV7TjGrRgrOl5DNJPynHz+6KL64XJzMZYESyMpHFh1LfIslDGNX2rqmA2vFNZiCyWWQ347qbN91EoI6HpkCwwN4x1AohcO1kauieXV5ed0FqTugLooyON5gicLBSITJiopkKev0L9rnDzbG//T3PzzeGoxC5n1T+oZtGyStxdeBFR7fPf7Hf5y998A7vP/Z//Q/XfzsZ6OsGEqcuVc2taLWuWGPwkEpjnayNf6Hf7T5J//o8Z/8V+HWNhypNxopJQfx659/+mWRrgxRgLuZNvDzqUC9M+LCL5hy6f/y6nX6qkmpVq5AVWiOhO1MIR/SgDmHzP39w6NY8F/+7JPZ6flE1wPHT8s8z/KSiwJbZujvOPgQMNO2hly7TatQt4GqXA+CKup2GOHRpqvxrnLjCpRZdZnr0D3aCtKuCWscmYyCyEtCgDGmxmIxIOuiqFoACyW4ravb5dFoHLV6nabH9w4++ujDw729JIAsHwyT9FrKDGn2KWsp7Ymba6wOOn0FGmCqhxxaEIctPyq8LLAtyGWEyCh5uViG6XoySLaaFoJoBYkLlllx9tYH3wxpiguPF0epvU5vO82enG+3l3Cx68av5NCgCAx4QYFjXr0lkUJD8t3CBahcuYrr5bAtYg7ALYCgV2IK2iXEw+hLUec9VJ3fNtSKAhBUNYp8JAJnPsOY6wIolg6gz7Rzvlys+ecnl4vxg83hewdbrvhNyb27jq+xdGM40QqWEm1M6WAUe4Na6uydx+mzL8kqa9K0gyCkkYTdcV0RRqg8uLXj3L+3/Y/+KHnvvfDesYPDNnrgk3fuH4ZelKb5q+vrZbo2yCTTCddrXYUy845ITXNTZF+2KlWy4piDuZTH1Asw5YFUXq4BZpVNM18klLwA19g0iYBnpqYdz02Xa1IZAzmjtLOpHvw+p1uDONrbj8Bdree6wW0RSOSQzg8bc7QT0jYPDbgRVwCs8PccmlBnQWQ8BNDrJahQCfkQZ9qpGKtlMCdsYfLronAWa0jxJlGwuz29d7gFwEEgCWJn+104FCW0zTytbgSOrhdoN45tfEHwhfwW1QGRB1pj8weAZ0VQDqAh9LZqvwKjeH02VW0kAnjLjW5xPxUSO5zS9idJAnF0A8J5kZ+cnrTp1WZXOrqqdLEwjeQecltgNscsux8ATMlbyZBFufEcOPBGQELXoGQjg3yH1XZhpgtcSKdR4SkMwm0AyZXMZNvIJfWnYjSaMOMTCB9GYK9Tt0geDz559eWr88W6OFvLg63xFKsOOCapSS/Kp3EWQ/fk55RjgQJsqhMQII/23/lv/+vqx99/9dmv8osrdT0TYE8tMgKLMEim42Q8jp888R48GB4dsjgh1qOjvAmho8GYseD776Vw3OWrVx28Ds1TUkhP4RRHw89VeV4VN3FE+ACASoSyqnTEUFxVODjc0y6X2fXNF4tTjtszWojAR6FzjlRXoksYzgGBR2oV+PJm6PJ7m9PjvZ2j44dhENxcXczn81cXZ6dX12WdN5DruLZ2gLU8AckCOCbkKBJ8jJVXHHgjvgcRCjIsAVhQ4w5ZABcVy+FOZfRFmsKDeXz/aDqCPMoON/fa3MoOWfYiOBRrzsj/DwinxDMm9poikbTETriRtj4DXwcZbwEPtQMPSOpOZ1Vxdf4qaFdjN0HuaUEgm8FBPvjLCvnOfCYeA1bK0xen52fzdUCcvcDTTBxA2qyqXJpSaWnpYRlxYgBAgoFPbnxWi3DBwU+3UZlTp/ax347szqrTDUBcH+XnBIPUlm8zMW51Idsi4DqJh8T4kBV4Ch4GwbKvaQBsUmeZlter7GyR/8mHhx7ug9iOKLnLFXCtxi7JGpsLWZyH0/s08JLDg2Brw90/aPLSlCWTLZJMwmHAS/U94fssGfLB0PV9XKmwOSwyGhAGD2mYiO+9/56lRWEvzk6LdZp1tDQ6beozrW9dUoWhNxl7noh9d8B50jkTgeN8nqNF2yzXKfwNWZWQUHtuSHCC2062cPAZEqc1UaaspXUJt/39g8MfffjBg3tHk8kUUqd8ewMS9mevX/3b//QfX12ct9iBppYHm2Nv3XHhmYae7gDYdB5nvua+8XxiPGqbFRCImR1hjYgeGFN2zrytW+L444nrRygp9mZFsJdk6ez+iLYzFFZqF8W2Ot1/OogoBThkOzpomx1aOdivADhRwyeja99dko639RiCP/cRssEpUNwxw/r0Km2KIoV4Vhbz1arpHD8IuYeLKK6jqlqCe8sBFmF7G4v+I04PRpsbGxNnFJe+OJ2tm3WerOZYaoN8TraO7R8rKwsKeSIOziGrLgJyjnMFbiFcW1gQ8CI43gEk6udWIIJQIZfparl+fgs/s37/YJO+oQawuk66p9eDXxlrEGBFop+qAAjJwnHg9yLgFt52/YSalZLts7lf06X1ebwd33MY5ZvD0cPDI3iKRZberFZZlWZUnRN2TmgTDsN4HIfgjCDooeaw1znwy5CQ2BLRp7KjrcbdHXBZgJWtmCIqqBgs8CJ5J67zdH4UTYfDj548ef/Ro+2NDQBajJDE9c2kC/xgtVy5XLy4WQBCgDQeVxsdjB0VCnUQ3x+0wm0A1KPWoI+SJ/2utZ1dZtgvIoF0EsXyIAerqITAQZt+vM6+fW7HETBoaZxZsDM/GGGwmQFXH1eUbNOeo86n8SReb9kiEXQJ1iRpBQEBriO40ekQPABEt4i7Qy4iikuYLnhEXqVte5Plt5BNQDaGuswcnDKzQ75waYWLki5YTGKoDZBE/uZ0/IP7j945OBpMxp0vZstyvUyX8+vry6vb2RwlKOsW97KRDE9L1eJhohlhI953/RoiLAeHBwGSSwEI1D5ximMZEDxD3Q0U0sl89uo8D8yT/U1hd6/sZIaym4x9NQCHXmw94K3ifD8pZEX48HzuiuTW8ro7RuvfZA+zIw/W0OwIze7GxiBJinT96tXrPzt9fdM2s3hQD8ZkNDHxQITIfwkng9IQWCBwAX2IRkpdwVv1LIM0QHC7n0K4VSpRyvYAAKN3zvZwCAn5Ow+Ojw/2t6Zjz9I7YCPcLrBDkvXHf/gHe/v76//wny5uZ5CIdSiOgJqIrYPeHcVeIrceDCkPIUfPUfyO48mhFiQ+ms5FMWZfMjdI2rY5z8uHE6k6u5mEqZWDsoaoKQtpPnYwKPa7FaolooyzpcCEx8QtuTTVpjRWqwgZM3Vt2x21loCmWRK6k0kivIS74JbGggZUuQ5YnjQKcgW5qgFN4qSzh/cOddT7+reDUmfIJu62RtcAs9gP7j8+ODr6+OhodzoJIhcC5f4gqreG63Lz9nAPAMP/99/82/R6Bj/bQQWD1jBUpui0q+E2IzEAxDN8vwq5r30AYBIJWeBB6r5wzFXnBV2kuueXNzrA2CD6jcq7WV3WL6uTNwp5liT2rgls3gwy2vEh6dwRFZO7mTViCbu+pq7kvJ1CsL/0BYf49dH778Z++Iv5QrqiCmKdjNxoiPA6CBzIypHV1MpaQjaNL8p1B8YfjvwoBgxkY7DTE20bBe4ZP8HrR2H4vffe+eC9dw92dmIfQBSjbyaL+kwCvNHu1hY8TX/rVVmW86IcKAgyYCU4mVZSFOY1bqyHU8+NUQVN4DC2xKEewEnoSHCc2HU6zzA/bhx6luZzibK6vmPnDsCSIAzjvCiYdcutm2Lo4fv+p1XfMjaRQboWi+t8pSKwHg0pp2p0xXXF/IEaRjSJBWS2aCVYVnJxNYwEFFK5FcQDD7wcyqQLnICzWmwYqu3/NGrAYCYWiGRvMv7Re+9t7+0fTka+sM04p4tcN+QiicKN4aDV3S8//WyeV4uqgoQdWR9FL3PgKEIl5J2QTjI3J+4QfYnXYvqD1WiB/gb1GXDDy4UEQ53NVlzql7M1JERIVw9mqSXhtYsUbxQCZeQj5VavgdGHKisx8cbr3FFcdb3shGUJ/esr4sSKvfQcIdZ3oYPa3tqYt7oOw1p4tR/qMHQCDx61RB5lF/IUdKWQGnPeQBJLTCKG7nQsBpFO7eKBZd2EqwPZBTglakwSJ/f2tj96H3LEQw8L2VZr564A48AZwQMxvU1zVnmDZTi4SZrGUp0GBLLfsAjjbjhtpxvdaIxAz0G4CpdO2llepGBDznRRcQVIxsBdxXHq5WVRXOZrD2WSbAvBBQzWtKhpiErLGNkRi/WUTdSCAExfUPYGYlPSFBMpD2V74OCWI6TdXyl51bEUkCBYCVZscb7YIZ71+wAPpONmzIuJCGyRwd55eOpI6YdO0DE1/HjuiBEE+OMHHxzfe+fegZtA9oqCBBJn8RGmIvUFVwBtwdDv3zuE5OHVT38GJw9pPO1cZbN3ReFcXRLAixElJJso0s7to8QHiKPNyE5PIQ/FegcXtxLuXfvvfvkM63KSNrb4BXlk4ntD390chEdbk+3RIOQuvXNPduux64WU7DbSG4u6o+6wY3FvWbD7f2vypm3k9OMRuOeQ+vzaMZmPuISEPiAgw1HwGl4RGJBiHBAFKqETWuKwvkMHUbQxqbWq15npybMB6jQNBIgkCN95/PiH7z7a29kKAq8fNO4P+a4dZBvqvdKwVCo1Io9HBfjhRpK8iYgTTIb1xoY72ct2t1Rix84gZFpdJYuSrUqmpTCoMHEm0qFVa/I0/+rqcts1+IANrZua73f6RZ5rLJIaHB7Hx4sLneBWJI6nYXcJwhPX7bist6r1e8Z5Is0m5Ng+baW7MQyeNctXV8rwmEwnnee2TDeo+sywqQnp79aWrCsWx6xpDFY1CSrsoIacUmXFVLUVD4529n748UeH2zsQ4OFo0DdbcMzuJi970nZOLW5xh0M9bC4GR5Cg6vZ25LQhzgB6GeeZm8jBg4JO4PWuKHbmPUAYlDQEMjhi53Q7ibNNvEZqSbKo+f/8FycDD28Bpuy4KQvouIIoGbvpwL0aCuef/tHvT7mcJEP44RIzV2Lr94iiv4mi4q9/WLHfN7R8OGYMab+cVc0XwlkJTyc++BAJEMMPJZadcX+t4igt5YI94Y4N/kixMQ3eedJxt65f6XTN2rZUTWGM6niwOT14ePi9d54gp4/j0K9NiOre/Knt6KAKNOLAzJSAIxuIUC6DnAkCrj8YdYNRkAxUhKLuuRXQ9bRV8SMdCpXcNYWwxpc7dE3Nmuob2f757WoGFgouCty2NvxRwJZlu0iXxh3fjQgRF+kKqNUGxNkvgE6NkE2Ql6Mqm3Z8TCFydeD6AxMwOWiWt7oo07JabqAYgmECryxkfBRljyMn5sOBPx52q7TFRjqO0LYIlGtPoSbzw739j56883vvv49cmQIn1PgbflL2NojY1n0/UNwyVtBgGW6SFr6A16ROaMO8qPa3dXiggl1DgkCTDIeau17HsLGzBzjLq5k0vDKsxmVXgH3d7TLfGovJgOGEKHYCUf4R/OT1bK3KNCBqa/fg/hjwlx8BAub9a0DJVvvavnXg6W2Yo86bllFvScSpqrau1JoyiVuwAhdEwTi5B64I0wK7wgZPjuPIFt4iBQgcbtfGtMvKbpXhdITRhUNKERoa5FEo4shOhvVigT1x+V3P02I8O/BlOoBUKEgN/3SuFImKwRcKFQRNMGCup33c4AADqpmj73hUtJUcQCIkm4Fyo6VpLSBxTOXoS4l8pj7kYSh5zfkf7m40V4tPlqslZzpi1PMoeKxaaR/AsFWvxm3lltW1u8qCIoWkuHLBsTC4NSHjSRgfQeyo9KsqrbKZwXeUwMPOkeWAYh4O720wjHb2UinbIqetoo2um7KQzfbW3vHW9A9/8IOjvb1hENshVBRD+/qTeItIaD/0jQNADpiC5hF8LsNJSZql0HCxdLLVJTuOGDKrdeRYeUPpYIbSL91xhVOzWnaV6hr4pDj9rRk+zTAKE5f6nMQ4ggYmiMKrFcDMKv/5p0/PhxHkge8ebCTcTqNZ+hw7VuL85ov8RsPqLY+8NagKTKkFlGl3VZBvEQVrcOXSupPaDms59g+UHYIRBLf73CCgu9u4/zQdVutV1xQovaf5XLVVP2n+Bv+//akGiY5or/RY1vX5zfWL07N1lrdiYEJUg1LCpQIgtLDzP3bdi2LO1trcvcWWiuPqjuMwDsrWtASuLEC3riC6YZCyuySOKNgRd0NIo/7xvf0AZT3IT6t2ZjLTQkZdd4DXNVx4HH+1UoAtyQu6zPh6XnOxDP1ae+C3AN8GwhsnDJAibRt5dXlV18XOAdmYQvBQ2HVBy3CHA+9gP2hbPZtV9a2CHBCupi/C/Z2H9+89uH88SRIOsd2u3XwzkfQdqsXUCYWCsL0jWriRflDxjgFgTUYkGBF3xAkX9uxQqdfq8sLDd3FYFkA2tsfgmqDwjnZqu8WDfZw4SpIhWFIoyJBV/c9oI68dRGWR3azyRamkeQ4+4sE2lnUtEf+3OaNvdVJv/wpkPJW2asccG4649Ge1yrht49lwjqAEzqO1BRl8zAB3GQuHAxR9i6M2Hao6r8ua5Lq4Pa/U3V7F3U96U9DCJQsw3KKcL9dfvHh+OZ+f3d7maQ0h1TYqEAQ3lpkPFdCtoLuxErXMCv/WuODveMpO0ys7Ta/gJtIK/40og/lDMdj0fLiBNAJz+mhrK/YiAMfzT7+o06z0Ch15JuBC+dqSL2FP2LQsLfgq69bzEgJ7l0jWeXXo4nVyGeRWLt/NdXp6Nb+cVZ6rNgaU+g1mgMheGgSBmW6E4A+YgDS+MHXqeSbkdGtrCj89joRlp7C59980I9tP0DJGrOwmJpVSiC7wlCuUG0HKxWyiZOwuj7E7Kg1B54wgySAyh0MxuLhjGqUrMCjtDGNIsAduGANSwnlQRlGeAutUbdt6YeBXsksb/YuXpzhVwMQoCmxP29g117/LB7VShZrYR4cpBb5YnLZw3moP4kyYrYiiRLLd0yaCcICY2gubmLYo9uFW3ZIUKHmOpeI3lay3SN/uZDLIuOZZ8fTlyf/v3/0fpdE5/BAaELfBVU+lur73ZZ2GxFTBlqRxnd/YPUScn4PvL5TiEttfSrZ1W+m2plJCBix4KMKxGxAAlziQO3DdRwPG7h95hHyxzF/n9eumuG2adLEusSyJ9KYuNUnZDsuS6roysoP/J9RHOQnhhE7IfIj2I9d9J0lo3Z5c36z9oNk7NJ6rqaXXhPQr8Ml01GJqRdVyrWUGaKH0INJjOUg53NbR7DKD0/32E+rsrlML76RuF7fX6/la17kD35+EhHromFE6FnBFa1eC7Bym6YkWcKGMw/PQOIQJJ2KaumnKpq5k3fGODwYbQTRyRACOq8MCgGdpbbSLJRVUexiPhqaob1flF5cLKrtH+xvCI99MOPI3ffxaoBICQIRZqFb4LBWVAPeo6FcO7EqxQ/os3hHWbdjugmPlVS3vh7I9LsIluAVKNgbgTT36Bg+gP+vHq8vy9Pr2drl6+vTZIs1ushIlZBiJSJfKljZgEB5pqZ3C8HSLwyjYctTIlYEyb72XcjQ1rdtUSd0OTbdv9KjrCrBIo84A37iUBS5ENxw9wmFQh0WCHCdx9PD+R8vs5e3qi9Xq0tE3XKbYqTWALT3ubEV636tk2izSPCtLeCIu5SoUfWU3FMznLJoODhsp6vbp1WwhQj1IiI+EXNboO3B1WgzwIQwSnc707dKxUu3mzRRs92Y9nn7NV/c3DO5WmhWr5Xy1Wl+fnxWrmjYQFiKUNGhlZ8cX7P1WneXuxuuN067EFq2xCwOYB4thxHCOww+epqlBTeUoHnEv0VRA9qqR6Q5egEQOGbsmDv44DoMafnobni1y8OyrUmPF1f3rMOlvMCFrd/22huWd9v1N7g2VKau6K6sAJ8yJx2Wh3A6FTNBZKduoB8upZUlryavWbSVtWgO+BCAb3Cidl8uUFW3COO4kNA2Yo0IWepyLXSwW8/niq/Oby9v5ycnrznJlOxz7H0PB1qphVSFLlOO2czHCCIg/yA4D/8JdGo1r4JDKSzBrBT+xcmW7QehDIu+xtnDlLdKeyBQ7h1lHRg73ifCsZDPDzOWA8y0/eGc6+WMJ17VrNBKamrs90E4o3Ov48vWL/9ef/ofVspCqhJRi3VB4xsgDE4fa5Z4bTJkL783PFs9+MZvtH6w29tvdLXhNnkGpduNAku2nrMzBghWqlASovYUBiL4p+cEvtM02eiFKeHlVWaZ5/suvTl69eomyCGVrJB8qSeqsqIbY//Kwqybbjhsfhbpxd1BiMRXHCJ1Q4q5R4FSbrHkk2sOoo1UBEOP/I6oljbsgSP3ICJcY5XVObtAxaQjYGuKJ0F1j4PliQGiX6+rM6P/4xcVP7o+OtpPv7oz6oG39C5YPBkGwPx5+zLxzWaqLej9MkLZXl6/J7tzxL5gpIJPDtrtkedndzs26oPNU5IVbS4jOAsEGAEUSqkbUJeXyemPxYmM2HERZlp1dXZ9enJ9fXa2LPG8dXGEUeJlRFolhWc4jBlyyzLo5DlZuapzr444rUdsWkn0uIBmAi9g4CsWmHKtOWxYPmuqRR3dZt0FR5fbAJQBfXoCrPr0oD1g58ULXvRP/RuThUA9yMd/Z+k345tzRX9vlQaO2p1vL6jzNal6VrmQpPC0sFnRdGLAo8Djm8TsKbxu7giDJ63FccQLW60hE/1J1a61LLUVbMkehfBcOw9pGvO0kWzWpu8FY+GWr5IvT16/OLj5/fTO7uZyvFp0XeoxtoOJ0K+tMs05xlEbGHjS8TDBaFNwGgIERH/w1r8stJ91k1XGoHzB56AKorVqq7gUyANdu2hq9BWIjD+tP0rYcLTEBVvxNS1rwWJT5HXeXUv/s+etHU364M/yOIOlNIOx6VQP42S7cWNf9xweHn9zOZhezxw7f8Vms213VntRYJrnCJhKtTubieqUhy6lbr2hCqcADW/6sDpkfKTx8DOiB0q/Or/+jVhtJklfl5ez2en47X69bHCgXhELWhxOi2O69W0snE3iKslIp7hOXGE/hxQnUV4UQYVwwJLuIhdsp3LRRkcVpmjRFFEGu7kvhhZyPvOBeQruycev6ejlvPFEmAf/m9/9blRJsBBI6TobvHT8+bdvL9lSU5YCKAsGy6QWW4aJ0tsoXxIP7LKBp7dzO9VVwE4eZ6xHpsFbj5q9qVVOKpiZN3kLA1pa0GQs0aAwINTUSN5RtA5/zdfrTX3729OWrRYVaRY7w4YYlgu8xlzW6qJcVrmPapjs6s8bpTwTrwAxnxKk0bb7ZXt132x3BBgIr3ICbPOE9GvKko9fZbUvDlog8cOF1TDvV4toaEaiVhRPpjWZWLEt0ws/r/IvT1zcfbEF6/c0H9+1+qTcrBwmr9ZCYd4eDYr0aCPbQE5tCxIQd6WYXPKA0f7Eub2td/up1dF3CjYDLORLeyI9HLgcX7nLlMi1c3+q71TK/vbiZLy/OxqEPQKuSbaM1BkdchuCWVYX2vgAT2g45eoWjx0a2unGlm2l/XSmjhNM0xA068MvYPrbDDapzZRatbqJ83al6jeNeE4PVPhFzivxYgouyouvlUtAs8r7TgfSGBa8o8YPH9x/+slw9X9w0t/ASZC2QiRMtm9o6e+eg3Ch3B5EHvs2syvzkdR0Pys1pyZFND65D0za0qCMwp+vZS4fshkNvOLAZMGIyVKbvaFPLq9v589PXz07Pnr9+tS7rykFaDDhIxzbFxpAkK7mAA6pZi700345gW6VjSFhxJIxb9FqzOnXrGcDtjnmt4zU0QJo+130wCaOWFqsbSYOKsNod14QhnQrOdhJbacD5BPBIre5KDfBUwL+r1e2qbjSyPnxXO+o7FTYJRimqqqoWtzezV8/9qnw4jPcG/ihwA8ii2zTSUdvqk9l8VjTmcsVL5vtRwv04CmJPRAHKm4Zch1x5THQtXLhwQdrLfDnPSgkgw5ZWkTsKh6pRK+rr8tzGfij4jbqOHHXkufs+ywP2oi6vS6JE48QQ39rOdrWQdgoOrFi781u3yiDqpMiuHSjluAzyXBzgGQE81QIuKlstKvq3Xa2/FuZ8V+xvbdy73njqBX5IQjvQVxbYWeSWJQpfPDhT4QGA9Uf+nlbZMiWVro1uppMK3HaVN8t1uCwiRfLb1bO6TfzkeH//wcGesEk8+JZFtn7+8vX5zfXzs/OT6+uihjPDb29VDfBFoca3MQk3G4Bk2kIVXY0bzAnkEeBQcEPZhScdOlQyBWY0l+0KMo459pAHlHmh43mUj4cD2nSzLDXlJcQy7QodDzMUT+ggcnLwsNh3ZFIzqUxlGPhD+CmqaJT6bprXvRm9GUh5M13SXc9uTm+uL2+ugjjZngwBEXiBh9NkumZ55S1K99WcVMpVgvthlIx8XCMTHTw6SGp8wCMmoAo8s/AgXW+LlHiuqBl4Y8xSUYtB9HUD4tzR1tiUBTlYJfzb0c6A8a3BcGNnI9rbL+Pk88XyE0NeLdMsW0mU1vQsWMXl1ipd1Om6Lgsl3AqeDCuo0hncQ9wpEJaP35e4gGDU7fKbLek35a/siWCVBivHLuv2hf+uPwiOpm1RzFbLSqu6LDPMuzCeYAMxgsdgWMTHcXDPaFar1fXl2qiCcbVe69nSySAfoteQisvm6uc/e3xz9c9Cb3s4gLOq6+pXL57/xz/786vFqsbuD2GAiCGNR1jeC5fhD4KcOSBqh1WQjsW6zBtZ0bqR4JwDyVgLVwtyBngpau22t06XtoRmWgU4aO/iGB8nwg8Trh9NGzfNAGHepl7t8LUI4HnUWNi1pFIo/o6tyMoAtkI2D+EIbujdKu93MKee4s/B4ha6hFbKV69fv7iZu140iYejeBAFqBYJ0XldZ2fr7Jev0+W8dbQXDMYQyrH57QvH782I48vnBC4Ecwx3IN9pHFNH3JG+wI4LJl+W3q0fxbNPEcCDwu3ON/+Wcmtv9+jR8YdPHu/ubDJX/P5y9c4q+w/F58/z1Uwq4ge4cmU7wUGTTah27ciFrgwAWHDta8p0qEwyiDgP3WAjIrGnRF3zt/M0v3UEPWHlrw8M4uw6T5+evUrPz8ZSj7e2uukoSaKLxTLNs6osepCDVxbcZOD5qB1P/WHs6dS7Waq6UW7gKRNTd5AMA1zv0wulUynTs1Pzl39xvLk5DL3z169Obm5fXF22OGDtGSQpxmKkpXS1ekYYIeGKtbSTm0w/2J1Gox0dbV405DSrbgo1b5sUvqLNbdepEAbQRg4ZNHP9NfY4AdI1ygmEO46QsjgwJqvLOs9vcwh24z0Hp0qIQH50SSH3sbQV4BezqoUTGcfICN4zV74ZQOqtu/+/Xw8CvPn9u+0c+Li5uTm7unxx8mqtyNbG9iSOIx9HVyDJ0MrM181Xq+qnN/NrFUPy6LtwTj4FXAiXH0tbrP/AIg/8H8dRGdo0uCyNqo0MecQ5fzOvafc4tCUTwQlJiaPVkL6ByUZJNvBf6sYrUtEm9+Lgg+2Nw8HoI5ffKH2RV2s0OYT2kQBDoQnV2dnZ9dX1i9vrJk/BJ8H7qVvw2K7ErNCNqAc/difs/qbo1teUTXfH+VG16nK5Onn5erVYMo8P4wjeHsrmdeSSdIuiqFVjysxgnwjBd+M4OefnVXVaNXNCZaVdqWLcZhxGjIQUCXeRvK4s8ir/1cnL9Xo58r2zk1er2pEO2CEuwRG76GJ7UcwS5KE6Mk54tXUSBvcm20eHR9s7u+5g8npdnC7Ty1UNxrSWKsdegxMyPiYJX5vZ2UsSdqhs0vPXccjGQ40eCl5PuO2YIl2LrH7GhQlHNfM81YXggpquaYkBly4BKqkIUr+tZAhOot/4syNudqrkDgp1b9Zxfm1J3V3mW7b1xfXss6fPSgkoxxtGMY4g++BE4e7pVsvZIr9cddclL8EHu772XIe7Gu4SRx0+ZLikDN0tIxVORhB4L6apvHgI+T7BPZqe70BZbT2jse3WOmXdYCefuaNYxCEN3C6JFSFX2nSLhaIUzv7d7Z3tKBw+OjZSZ2V9iazpFDknPGLlcMVJkPyCBb+aryA9EqZ2PBdge1D6nZA+4wK3OzmKQn+bGRlLwuA4dyPJENzmy9Xr84vZ7Bb+NB4OwhAyCZ5EMXifcJkUT7/M6hr+qGI8s5ps8PBTQn/+6nQBIM/1RQiQwB/63tgVCXPAJ6H8NmRSUSRXJD0/fV2UM8rAPYCHZdwjyG1FexpwW2i0W/t2SrCtKqPldG/vhz/43v2jw2ESQy5zVMtKIk9h1coaCbss4Y5jPNL97NPwf7l4DVAXaf0FODiIY3wa40oxj9wwCreowZbuMnu9PJOdU/sTsEOFZOm4BdwhkxWYVDsRzr29jdEwutObexvhLCLp3shjOl+bmbR/4IAPvbmZvz47Pz07H03GoxhugaWFAXAGD9/oqqlfz9fXGTykoBMxc0NA/w73NIQSwpDatf/ELmKvmkFq1OkLgtEmz4quQDlc6uAYJU6GAp5D5rNGymrh8vFosPfOoyDyuc8dS06at8hb+rNXL5++NtWPfvj7G3ujQcSYHrp8ZIIWFw8N2CaxY4kp/P3drfJLXlYqBMfsUtXptMggT/eFSzwHx+tc8Tf5pDvRJMs8VzbN+eXF2fk5mlEcD4fDIAh6Vi/4snGnx4NBdnm1KkpdS7jEa63XRXEj3OeQefqxNxiC5aHqj+9OIK1lJCaOb3f0qQ4LR5bnZ3UtAboJ5mMos8Ad1RSsWJsl7DNtK1HUWUnCxXRn6/jJ48dPHmyOh9jZoGLkuZZhAFAluGBkM3LQj3XCTubMFsuvnj5NsxS73Q5tu24aD5WgXEAmSEchjit1bT3L08sUMH5XiqQAf9M0uq47CUhQqqqU1brJ2Hp1u07DcJjgfjIyEN5VjL6OD36tKt51jWwX6/SXn356O58HfjAYjofxAE4P1xksRWdRFKs0e73Kr6q45WODJ+BZakkccVeWKw4+G+SEZNgbw2IZlspC6pFgTKKMBqXK51rlqqmwsqg5wQDUecPR7rsP4sF4uLeHG9zwZuEnap22smjam6Zcls1fXl4FpfyHH7zf7xQPOqRlAs/G7yaHyQYYkm5ZwJzM6VpV5rnSEp669JFXqw5lQsOIud9qSegKsMqJM+WAUIq6Tos8y7MwDHuqStvotHyrSCvTxbjoTooK6/acuapzz7v2wnPqcNL5EcAlHnLhMfgqcJgBpZFDAlxIwCKRY4UicevVABqy3PWM9qW8u2UFpZmCr2xwswScWeT5e9vh9mYYRpbfQyOK6hkbKS5ivpkuuxvH3hqNv//B+zfn57e3ED1wEw28KeTN8PQjiemMJ7rEdTZ9c1wWdVbPSWOSfSkCXELtUAa1qypflq5J25wulre3q2TLc6Ov6Q46b0Jbb0ZvRXzhlazyIi3Ly+trOJt4MEQvbpmswMgkZlSYUuVFeVvJNdwkz+8oZKBMo84pw/4a5Q1iIQpBjhjAQ9wObQIMgpxJU+M13pCFS5nfQPbHcS8QtbojpMgXXRhtfvwx92NwGaGGjEt5GpstrnAhe9XRKKXeyfls2LQfvftuzFAbD8X9cNYNLiGuEgDkHXNvPwy2cXEG/JEDTwCnrEiOrPPcari0HioVfKtDIn3RmUpjrm8XT59/dXFzDTcJvNFgAKEt7OmYirLIijxdrSGPe+/Bg2gwOjk7+/x2flY16XBShLEZT4UXMsCpyMNBqd0hJlYRA260jzQDNZFtNBypvDLKTgMwOyZhzcggsSKK/7YNEgWFcbK1vUkHUcnIZ1eXcUd+8OThVujbLiKESrv/YQGMtSWLdrWTeO7ueHC8v1XlK3io8FKLzswg3kJSDfEFdV4EPNvt0VBw6fsNXa++zM0tS1CmtMKlYjdfjEmzFxBP13/1q1/Nby5/70c/enB8H/dk2N0+D/3aeFD/gSai1H/4s/90fn6JwXEDIuM4iRM4eGy1KgUBd7nCj7OLK8ohQwsAZRvXxVnjfmYI83lmMSISNMENw3VSnKgkAWOeRuyvww06lvX8SpZdVZqs6cahu7c3CsNBGg/IZKqobX9qxTAuSVe6AFiRx3dIXRHMlsvP0/X/8+c/+8H+3gd7e3YiwbCunwPBcm8+X5Szm63WGY2mW4O4tdqmN6t14RR26MhBaeY2/lZL6uzwOWQARVleza5PXr+G65lAqmY5BvFKWQH1oijTFOJYHrjew6P7+0dH4MOean0LWC8IZRi5USx8XOLCYo8QHTw5DveMtEi4jtVoXLCsy2Q8yrVpipoRO1llVb47qzqP/4YHNA5RtWowGG5tkiC4XixmVf2L+W0wG9Hpxn4SYhTGOXbLKYzjSbjJZwytFaQBy8X5K8iWD7amWRkCnKpQv7yAH7IqS7BdjrOLOJA/isgxAbyVZgt430VjPN0o3la+zqee2vZp7LGiys6u1OCrp5TRrY2ppUO520ogdwnvHVQqy/J8Pj+/urqa3ezu7kVRz6vnQdoFrghOD74gTVP4RRgEceOHKsDlMLQaTAtabMXjAms/JNMvJmhLqiQNYC/j2U1POEXjbhThfud3RVvOa0CqpAPcE0ddlOS+gC9gKCxJNUNyUoFyxxX3cY0M90Ya76pp/8Ork2kUPdnas8N8WOKED3gByqjT24vTs4sB4Low2R2P4JKu1pDtNjkqjlbg3iUSI+Aqfm96d6H+LirgFB4ydNd1e3l5dX5+sVqnUYJuOY5inI41Hbz/GoBbVcIfwXHfPzx8fO9wc2d7XpZDh6jZvA0GKvDAjCBl0oIY7kIaorhoOW0pbXC+lwCqAWcuhR+MJ01e10XFkEbKUs9ZNSHZSNT7Ctzk3vbW1vZgOIT4hdNFdbtuqpOqoK9OuDaj8ChmeCzoGzrTr57hcIbpqqx8/erk888/BRM/2N2GH3V9O7+4usrhWxvjrXOiAFjCpWU+/F8kEocdhmRdtnm5KCsGSMlpS1+0Aao8kQZglhcBHvnsyy8Atj08Prp37/5oOIXvhU8c7N/K8gnUZm6X8/mnn38BScJ0Op2M4SpAyu+B/QHIqao6K4plCv5oOYjiB0dHX3VdVAhWdlbzDFchHMtLht9X9SJGvZ409hgVnL9jINAjhTk2HD0dHxAn7txMO1dSFBlAJS9oxoMWNa5cgcpY6Dx9yJghbvqdwY0aCKFuF/BWiWfzm7OsSJvGpcKxsjHgSBqp5uvVV5AnXF3HcQjRaJgkPkfehaysLlfLmyItagrWBg+TI7HcXdu9N6qeWaJXlZSz+fLFCWRsVwDj/QjFblxuKzvWkvKmWmcpJAyBGxwdHu5vjsHbG89rooEulRI+VkQse4SGNIS7LYMrwSGPBTOy/BDO3ax2EIUbO9my6JYZ3FXkmlbo8BqD++uD/e3h1sZkB0LDMAoCDcimrKMkgmR4lmdfzK4AL9/fnIbDEVJT9huhVj8N2ZWVuri8uriZNVqDOx1PxgDyBGceI3/x6jk87UrEroMzpQCvNHgmAuHX3xyMH5lmWSznxbpSjUDNNnqrqWq7daZdwCYGMj3DLq+qulKOYFF9tshvq2qVryEc+4KPAhHAha6yi8sZ5/4gQXCJNBsux0FsyapGpmWR5llTV8l046PHj/90PfObkiG3HzYmtOYYubjCx4M9aqshgTTuSEvaAgxC7StDwV/ZeYyWejWPK7fVAgdqcuk04UBubqBF4q4zWBISliPfDwIANFAJaB4SQEvXV1E6k/K2SCciAejTdUxqPbtZ/PKzz88vbqTpJvFgECdBGPuAdrm7t70lqUmrtMnLjqsc9yzR5/W6VXdbdtYrmVbp29XyxenJ2c1F1hbJaBiOEkAVtpmDsqyr5apQbVUU4yA+2D082t8fDpOyNalqIevpOMq6UxfL6p0QWrgtbsIxK/9DKpvgo2PGeSINGY0YUXeyYmnWrNeiQl9UQgwCcL614b3/MN7dBn8orLydhofoGh8gG1yutllmq9eL5cVyuQuxDyd4TT9/qjssoM0Xy1enp6v1OogAiY0gOkOusDEl8Ew/Oz/NUT64sAMfGjVgqRPiVhGrAY6gBKAThGSIdR1wpqyhztpBlgXAKD5BJRpZQlI2q+j5mi+eLtbzpk2zDHwSuJ1J5A0BEJqmK4rdjQ1sAQoPSdm1ggwxBTSTZ+s0hVuxt7NzdHhw/+hg70V+kZVi1WDJ1s5RarAqZXkMGdifTR4Egwyk1ZboDY1J45Q9kqYoCNllq+DmSO54vrtIYro1VeMxFS78dL8jJQ4eY66M4/X2uTe4lQC/5NxzqR8UWs/TtRmExPGU1otV+urV2VdPvwIPP8IgnkR+6LrY2IGUKorCUZUEwi3zAi5Pg0qFqFuFM3qYGdztJGNjBKL1bDF/eXpSw6WJI3gKocddm3G0KOxVQ0bdSBkL79179x8/fLIxHkMyZ4jMFXKGAAzSljCrtXJ6SMVJkWwb8QizjUWKM43gQESHu/hIrzKZRHC7bq717QK+9RKc8MbG9u99jz66V+A6H15P0UI2Ax4CF4JRzBUedRBmxjlbrp9s1n7k25kF3KZtlJqvVs9OXl3OZq1UgyEcRRJYHTr4N7yggfBxeKzJsV8pHL9EXmxwumtVnZXl66o+o7KbhBt+AMgt9LyAwc2GFNnYDXK1bHXWaCH19VevauHP4VzcmAUTwIvIAUOdsmtxJUpTnZXLRobDCSBDF153W1eVStOVbprpcPijjz863N2PQn934E5jAAGNUa1DkaUVVUdwXq8DU7GM3dSylhPLGtxZS8KOPfgkyOJkIU3Rqhr8Ha3HSb2/1WxN2kEED9tVToFIE2AkpIQQuSASYUoOt1oaVoOZoiILq5SCdMTuoaCu8pdfffX6/AyeGuRYiQXIHBIFhzQon4sCz2BAAaTjlMKvkTesc9i6rlETvS5rSLEpDVw/8NznL08uLi7WaR6GwWgwHEWJS62stFRZVVRlOZvN4E19+M6T48OD3a0NiuKQCuJepU0BX+TghC7u/VOkqLYzjUgRR+0um6VGcWqcloHMU9mFCkWS2GAHWivfqxkrslSMxs7+fjMYK1yUIZ5xXNw3wj0TMBSANx13lRtmhF4WVW33Ye/2rh1SlNXZxcWnT79oGgnwDo4jRJEN7rwZoAsZB5e+KjLr6U3HaNbKU7+ZGX1u2gV32mkMIR3iUkI6tCSrLy6QWlVpnAMuK59CFn99fuPWZaCZmPjuBBLbMbxD/DKJYiZ16DVwr6T5/Oz6eHPsbo7yrMzy5uz0dG9r8/H943u4bzyE53e4Nd1etUxfODiaJyKNOm4N9RAy4mwX7pvUuDFGmeUwQG40SCwwI1GIaCoJD9mra5/qpDJIwllUTdyyGEFvTlFkgXEH0DHDUhVmztLKjOUUzgGFBmuruKUdukbm5NOz66t1loEjH08nEAHAl8MhYZdKSnj8Kar0rkPu/t77H9R1fXMz55+tVhfr/DZNl+tVUZeCsCGcXRj99JNfgNWALwvBp/ngj3xOWKtQnDSviuVyCd9xFESP7t/f2BhzHGrpt+nhL/XlcfhyNFNt9V5VL9hpp+Ct2A0SbktqS8QGMlLwVnDphHFFPRyVgdt2pOWsDsIVd8GXh5TDA2+pQS5FivS0UqBmGfYTXC93nFmN9fXOhmhj12TPz85fnp5ez+aj6QQdUhR7Lg5ga3DFYAVFAfnnIAgDwUutyrqew4us27OyyTw3C1wT2Q8mkiCCBCJ2XdTodboQKy5wok3V+svSLVoU22ApznwBcnUDZzRANVMcBDUuVV5Vh6s0B9gOXhPTrs7oPK/TNZjz9sbGo3v3B1EIcQE8y4Ot8emq2k+4KtKuzo6H44h7tYD75uXEz+G+oWqa09h9Umy+QUKvUYPPoEKxkp0UdT6u0z1fbhc6elXTJHJaMEFReUhr2VJLw2XHhoVl/7e7y06OascYQCT4G9xnaiEv/uWnny/rFKKYD44kDD3XvdNq0rqsqnWerbIULuS9nd3f+9EPtDafPn/J/+8/+8s5RCtkmcW1Rrh2fp77Druqc88hQwp5lwoJSbggKINSZ3m+ArNL1w8fPtgejA/39uLQ6yljeqSFAA+riihfa7fYnV5G2HR2iRtXGZ1+1rZnSaFdv3lum46QpnhibZj03Eag2muFDODIx9nvjWkILdYkwckD3gIDBc9UKr2s4WGZN8K/2Kj44umX8+UqAJw7uItrKDKM3V8JZgS5dzIcbG5MHhwdfv7s2WdnF5fglZU5ZYERoYkGHtymMEg6ZwAXiaMquAcoqpMDx7iQ8ii4YL4r/Kxpq2FR6GUua5+bkDoD1FdG8nNwGFR7rYf0nevG1Mq5yrLFah5Suevy73/v43fvHW9Pp6InWyLd0cD9aG/0h8db/vPTcjX7g9BsJJ4YBzmjF0o8L8hJrlZgOZZVAUfjkRO7t6QWf1XXXQ32lm0G/v2IhU5Dzy4kPHVflBsbxJ0gcTEyk1hLshugtnnQVYDfteULIaRWChz52c3N+fVVOIriJImT2PMgT8BxLPAdVWkLYOlaSnl0cPCDDz58eLgPj9FLEv6nizU8FSEEYHJfWLeBQ7aGJwO4QBlhZ2iHhRQ8AfNAS4JUsXEZf//xO5uQTPkB9h+Quref+MBxGfwtJLHWVqQZtbpb9EIuU5jWUrt1DM9coqKGhvshUGQF+afBzqwGmcQ1CsAtkHxTknaYksF3qDvjWZP1IXjZSc0KqfuJpZ/u2YTRKc1m83VVnc1m8JMmtsnlI6MTRlXwRlg+yPLlan1v92Ayjd8/vk+pKQn/8vXFFQ/X4LqSxIsHrh9jMwn+EiB7TlF6G3fKwaY717IWoegaylqIfDRuui43MkE9OpeLhFmOSA9bXCgFhAmNkFUbLXUFuSkBEx1G33//g61BIjzRtxUhH2bC2Y3YD/fi+lrOi+LRkI1DFg+IFN2BbDdp7Tb6qfTmLbXURMhVYhOwFjkR24ami0QXBzHbDJxBJFxCtpuKztTrrxjLS6lNFY9RhwOVF6xGLT4XTPpqTWrDG8z5cMf+y+cvl1nOwwBu4CAZIKsT7gRD/GzAG6UFrhsURTEZJYc7Ww/uHYS+B2e+RzZ4FaAOBODEmLOEoG5wYPAngW8umraQagVxPs0hZG14Impq+EZwNFuj8d7m5sZwgLUlVF4w/TIH2HqAnWHIrK2wmNSesRpjmkLS3jiQ13CFnGLoN4SD2SwzBgOYxkaJNLTEnIU1HbpcsBEIPRXyCzhDu7CnrUiQY3hug+aK04I7PtijZW+3+kHOq9OL1zdXcL3cgMOlws6Oh7PMyFcNOU6DrIvrdfboRwfjveF4EO8f7l20rFzkMx6qQeRGAUOtBOG4budx6WMd2QjeYbYJ6YHR+CIU19LHSdEOfNtSKwo3xwtqJlovIi5BdRost+NiDdwwHFdtPSUT00oRJOE4Odzb8Xv2g7t+HdbVPEHADo4SHjbxIIzhH1TREySh1QBiWSXzuikkz5CPCCcUcIC+F+Ip5m493/b1UewOkVuJGuYntPUhJ3p9HlbqkrLi0JWQxiN6tdjC2pFuGwhGTm0paIxidXN5eSmVnEymQyxbYBvLCr2bqi6xdphl6To1shntb4/Qa3PH6jFiKcEbD0ccJTUSxhOsbYEP77CaoeMcQECrwQzrNL+GwGj0pmp1UT06uv/ek8fj4RDcntPd1TJ7wUTInfYHgx1/5c3XnS781p0wiAdBS7qV1o1wG0IkNxWSuuO6j4AXoTsB6LlBRy3bBuK0UxKTapFLnE67Xhl4wCGriPRwQttpOZkrVSu4q+2yaytHIWM5dhjcom7S+eqzL5+eXJxNdrbAOQ8HQ8hckU0AbAgMaLVeLJZGqdFgsLu3GU0SrF+6bhMG7TCRLAAPRDyfer7jep2H3QiJWTRAOSGtyBPyyaH+EzL94bQLoV5k5S4aCBxs1akJxBBsoUuk7Qfr4x58NeeuHxlfdnVjEItoh7keqnr12YFDpDLg7M8vLr747DNwNnu7OzHEldAD1IRpriwGqt007bgxQS5yFVpECLl/48icqHog0w1WbkEM1q1sSIUy1QG4xqijDxqzmmVav4DsqR4NATaC9ZCiEEXl56VXNEHT1tmtvD2f5evb4QQMbTT09rZHXgRJvgdPt65bOO35Ghz5ar1cRr4XDGMI7r7rMpTgIbYS2XERhi5jLlKIcZRTAmsAtKiNp5F7z0MqLDqHjLdus7ISndyNhtvjycHWFkQxZMrvqYNwG8RS7uhuU4gNl0eq9lWzRYMDOZCUFtJdcJLqLmshfrkam4UaQmJtUFKTQ5aLO4RKQxpb44qs2+TjtvDz2rs573yuzFRaKg7khtI4pBHAmcq2awpeFUMH0IkLVxPC4sXsOgU8XZb3wgjyBru07lqNABT+qaqyLnOcZZjiXIcnXKXapdZXkERHfst8jqO5vnHBhnyF7OS06UkvhLAeBJedJUVeXxelASzicH3uR26o4OKtOgOpkEODnkTKQY4Yp6QKjMpwBTGOBBqSlUWj01ZPwMGxN8vrhK3zcgbIbr0OIVMeAEQCt4iBWzuo7iDrktfFoKmHKkiVwmFk7jBaBoHqmipRadyuA+VDptxQQPoMPA1SwhEao1dsNldV2+W8jOeyq6pG53BuKEfh1zJUMiwLWut6Xsw6fxBHYBHcw0IJuCIU/8PQJDNw5lICWB5BxAsDePD07Yu3tDAcR84pKofTnnjOTpJgURcwiWhQ951bpmzurlJkJvy9H/zoPUCqg4Da6r0V8cQJYmRnAe8v2N5w8G6nv7+48rg55qN3INlkBmzwipJTZT6vy1esTV1e0q7G1S0kdOMKj4M1DU5m5ZlTzsb54rjrNhRrT1+niwUko6tHh4Xna+YFbReX1U4lhw3c8XqRZ2Ph7QdOtbh+tpx9+vQZ8cS9Y8goNwLwmVaGrGqRVmO+WOTrtcvZ/YP9dx4/DAIAXSgPeZVXL9dpgbrMgSM8xT3JXMJ5zZGsgCD7jCWex5uHy8+u3bD2cG4B40QrIOX0iB9UEq6uTLVjK9SOdhQKzRJedS7e7E6gtqkXZGZ5uS6fnV0/GLkbGyMsPXW4vPVXv/zsYjZLBsOt7Z0oDODWAyiDsysas8zV4npR5uWgo49ivifqQLiTONoZDPeGgSnWy+vo2dPPZIuydkp5DbwCCFgQml0W4346Oe7IxqrJ1s2zp1mqDDhaFwfLkLfS73BXbCue+lLf1nrh6MoTScPHDKeNIU4sVqtFuobPnY3Jk/ceg9ORbbuazy0qpfSOOqrjnQ+Ph0nsiDGkU+/Z8vAw7DwnoIGuC2OTw+VoeUqYhsTZc5EPwkpGkTcUeFZECR6MKvNVUKVHzASRd5iEewFnLm777Cg9UV3ZOEsiCulLjsieWPQKiWNXV6yuSV6qLB/Uy4mpd7m3S52mKlL4XC+rdF3ub5Lt7bjhu1VzkMM1WuvbtF3nlFVZpX+xXLVtPs+zra392AtCDwAOKn6CA2ta+Koiz3PwK48fHT+8f7S9MQUM3tlSeNboGcRUvBJMwzkw3tr9Cjs2Y4kR7B9hL9VyP3i4WEKxBoolM11SBn5LCQ5H1yhTI28ck1YEEb07CkSjwE/d4Zya4qJhbN3qk4ubMR1sbo5slDJ5WV/e3CxW2Wg8jSNcz4HMEP2o0mnZrvImy8u96fjx1l4Lj95SdQ78YBr608jt6sEFmMHi8vTqqkDdRW2aVuDamECqkBASSRKjWAhybDrlclarAsKmH0YiQBVq1nkIuCQFr1OVaadOM6Or+aPtAFKVrm1vF/OiTKej4f2D3Uf375UlWO56TZy7yRnTS0ETnru2/gHvECG6ERbxKFsRQjpmq9fLXSoC3nkMoNLZenHs8UEw6qzaCLkTH0UGVDjoSrVXs0uZr7cALE5G0WjMgtDFe6xCmbW6mxgUPsbRUGoZqyG+oZiudKoSQB0tyq7Ix02z6fAhcWPCIyJD3cZplp6uClVry0g6qeUgXa5lWuRN3XSNka/S1Yti7Ud8PB4QjqyoAmfjcaZAalUUZZblSulxEr775Mn2dGI1gfoFawJAvoaEAql8IGBxYwXUUa0G66WWJaMnLbXqSx1CJQdXWCyVKfxhjc1RB/Bfi2NUurUkwoBulNWd5Thf5QjltJo0HW1QJRILjLN1Wk7dvniCJOLLVV5AJtph8cZHDNKTVWuUrmyauqCm/eB4552PPiK0f0R2xNmKVjvaH0Thi1ev07rOF0vIfw3qUhoJuSNTEUoXdVZLF9uNByYnnZozsHwKhhKhbBTGFQFZjV/lAa2qKlvLF1e3HonB7YEryfNMMPPgcBc+t6bjy7aBBIrZBvOdGL3VdIb7F9Ycx+57+uW+/YZhzCgXieI9sPIG3LqnHN9vcvmzi6st4W4nAw8BBBLHsDe9ujTNzhezlxcXaVXZtvFoEA6YG+CWjJamgRyhdsvcZRFW9+BRWd4xA7BR1bTKyCr10zRp1W5bTqKoA8SuIasmgAcSLh56jr9Yr754VubqSx6cMAAdxOO+jpGovG5UY7BukLVUZc1U0cGYeagGI6scMrXl4vpqezp9dHhvPBhBzPs1AQFS4DWA0Zhjn1B3JwnVq4Tbw2L9UhLml72uCVJSGs9RlqOGAXwuHCcHC4OUQpEM9+wxMzCMVkgEwjulhKWDLVRbouAhcniXCsm8qZ0Gv1zMn5284qjMGcR2XZCj5h9ppIGrUmZr4cjx1sZ0ujUdDJhlu+u6t0sI8O3EiPo//MH3Ee1+8fRmvqgQ0WBtTdd0DS8VnJLXIVMcGFQYjFEPyzVYIoNcP0HxLAqZekddLnwB6UJgINOSL9fVddaMiN50xd5k9PjevZ3tHc/23WzHH2kVCO1pVaxYqAY0ZMXlSa9bbgldPKT0Av9MBNxM7lZStUwYjiXdL1fX70/HrQOvzVqdlTaxdXR1fn7+V199eb1e4KAPoEYc6QIQj1S5dSvrokmzYj1b1NFURwojZ9ci9wCyJuQ0XUVFPiqqjc5JSNvVNBdt52BKjYTanj8FP9OZ+SI9SUtkStzYEQKCmIFcGq+2lK6MkBRYdfPWFE0u/OuxcGPO86ys8wLe2N7W1vHRPbjyfZmU9Do9tiOLia5GuimrqoajIVZhHRtc/V4EQiRka0S3hNO7WlcaQJwhyOulsUGEIwqkJSwHGK0dv7Mr6RD+Uf5NYvZnHByfNbRSjAk1Go8DnF7FFu0sXT97+TIEpBuGUU//TzAslC1403o5nw9C/+HDx6Ppxh1b4m+wyaEtQiL46PgIcP7GIH764uXL04vbVaZQ3JwpuBu6yw0NDXHhVkC4Q5aZoHVdI3xUBMAlqA7FY3BlBa+TgORZq+t0necNPJsP3jt4/3h3Z2sT7NzyM95R/PZzfZ2FOYAieWOdkR28p3aTDAmsWlR1QQppnO0jrKG0sYsNkJ7n+WpWZsrOwCN3k9P1xaHZcvny9PSLp0/dJN7eGiZWvxmr04BUpCzLcp1mgHiz1S1FJWSC70FXuEFdNV5d+ekqKYtB3Y7A5l2ChJw4toc/BS4PxBdfsBESV2kkyNC4Oe4nARgK3BEXL4Smuu3s/FhVlMuy+NXF+TQIjgbDdgXXUu/t7Ny7d7SxMcVJrrsz6CupNHT9QRACMMaKETxxbHHhdgaWa7pe3sm5owHurJgXNnENskDqDoym1pbaS8GFARcDSFcBUioMKVEMSXqqxiFm7Fc52rKZq1YL0u5NhwB427Zd5PUqS+eL24fHj+0UoUtsf7JpkHsPorqEw5mM7t0/Hg2H/SQdfcOeeOeUUCusSwL3wb39jVEyHSUQlIviy0Ki3wPXj8RaKH1OfQ0RrWWeB4mFAyjD5ajDhhcRoSAEchzFxOY9vnhPg3PXyyIfbO0cP34nDAJq+Xv/2lwos8wZgAR4gyZErWq5lVjAanInrD4QoOreV0Ea3xD8LB2zBgyM0192iQLZofE7Qfr98uz0an4LyS/EtWGCE+92FAZpgXpLul0tIQU/nAzDeHgYRC04LocHHLdip5QNtM4vzpYXZxl8mUKtJnC2lZ3b1B3OY6Cog0MTQrcY8wFG16mXAD7AIOtjTo68NgY8n27XnFWuSNM1ZP2QDEd5eW9nDMna/t5uGLh3BDs9STS6JRJzb8ML3WwNod42Rhl6EMBM2tININ2msbyLcCbGtnpQtRgpaTE84YwHEpNDbGslbhrkax16kgiwJ0DalQYfxnTdCEDBso6xOltsCH5/Z2MozHy9+tmnT8+urj0XP/ph1L7dAydWFiWY0/bW5v2jo/FoAF/zLauaXc/Aw5EpLO6Oj+AlMdf9y2cvZvOlwfFtnGeU0mmcziNKi0jyuPVQDgDrcEiw0KIToQYl7IXLfIODyU1k3AYTG0C5HMnBqV2jI785ZGx/EzwdgcPrrNCjlflERj1cHuJdLwZjvSnqHjvSIZUN6+ZO/I++uRDdKs2v5/Nnr04g9m1ubUNciwOc0HXsqlNd11mRr1arum581/3o/XeUN2iwAkpCDyKnMwmiARKCiaudyYtp/OnTz29LtVxnGuGEU+OAO8rAW7IpOAg6xnExWjYlbRvhCh+79CiD6drT8kyL6vNBVOkuq7I2Wx+7/mRz4/7hYZLE9I427y46EKsPsR1F95JhcrW4rorOCx0BSJd1CqcXrOBzhzOwOHIDodiKcRm7wYSE5JoqHKIlTdPWVQgRtqn8m5dOXKl4UwmhkBsRkyZXNptCb3AzkHrhVgfxdOwz3dSnl5dfPn8O9pJEONbc71nghn/XZVkG4Bfe9fHx8aNHDzzs3DjdHcXlb1Eo4gIcvh9INCbj0aPjYzCIzwEJ3NxCKuPYKjUVyGd3i+tfIx1umXDC3cBFnmu4osj2jONtVqkBlW9cSb2WBKGu4susOrtZ3N+cuuxriuFvjckSkqOGCtwl8Dw9mzzyo6PMDWqzWdo4Y5uqOLECL6JC9QkTwM0RPUW1LfJrc3F19eXLFzfLhfCC0WQyCCK4XeCB+/Xhwo4qF0WRhPHWdPjjd5/4btwZF1k4XHxUqBkAXpDzjYBtb4yiyP3l09N8udaQyiH9IkbPlukciWspuCAXmSaYZzUwtN1jJ9bdI9UFOAJTI3Egp2mlKubAbWOjUZBgqLXCBA6523O2cobUCGO2o+DBYDABr1bV0o8x8PfEXi5qvuteV8JYYZfOWhKGKIOc2Sj7gW1N2hQSQrMsN+qMXBdZtig3HpXhVApXSsVMM1LrdwfuPcEHxpsVAZyRzNbp+vbs6ioDdwUXyWpeM8uoq+wHWBL8OwqDzc2NyXjMyVvr+XY6OfsUIQ0HoxyNJiraXjjnbVtKVBk2OJjhsbU7dKIdM9inWMImuMiimcClLmxe4W4DMQr7wy4Fd+UF2g9OF6vnr/n+aEQC8tc3tvG/e+UpTKIMam11vaHfrZZZuQP8Jf6XRvcNx1dLBWnL7mRzMhgyO54um+bydvby5OTV2Skg6DCJwygKvJBb3kiceK8qMCO4W+C63zl+vL893gEvTVFDAOf1mfWA/fQvcYa92Lk2vj8BwAl+bl2UGqEqKUwl/UDbnXdfUBQgwKSWp9jT8N+MHOE+lYuDQS3rvGGQpMRkqgZsh3NXdxf6LTmkTV4xRutpFDzaZPdHw+umOWlqpEOEEEPtRodjy9PMVqnx1OBCYecN8guO2wqN01a6LlhVtGU+7OQjF57I+rpyLtZx2jhNMHQh7RLNAasehHSfqthh4XikjHrx+WfL1exmXeG5hREYeh/XcAMOvHfTrNdrMIh7R/fGwyGOqiLViUS1lm9iI+j6ko5Ff0g2KuUyzW/c8XWyi7qdAFhcSAh94YflYFsm2yqYQAIzIMp6CV4it6kWEBLxWcMTQJ57BIWMQw5xcbv8vF7tx+HR7s7G5uQ3fRKagR1PMLwk0rfbo0g9hIMyndQY3bC9bnEmVcgh4zoN1emQlA9Cfw8X0B2qaK7N8/Prs8VtWpWbW1tx6IfIh9L1oijw/Iq2WmZLuOCbw9GTe/v7u1uesKSIPS064W/6lzZeEoh3/uHuPhehUxWffPZpJeWsqEPRUdmAe5aeU3a12wXw5p04qYJhHcU44GtneDm2hFGPBay0w8lkMeh8HY7Om/qslpWBv4Zfh6EKe859PR+nOWOXHPrOH+9u1ucnF2kpAb7C9wTQgKpjlfa4owbwDBGcOz1lIGRkCItUVWJSVteDLJ1k6Y6gW3GEZYVGNvmJrACoTVym7w/9R64TwkV0cUCRBoNqtf7kxfk6T+EmJfEQkrbAjykWVdD5a9nmZb4qsvHG5Hh/dxj4wh6O1d4l9JvYgQ1OVlpvgawaBHL4s3WWtnXpj0l4VDpdTpUHNy+Kq83HJBzasUHTIH0zroVJOPkOfqcTKF+G8kmNA5mzwAYWFfN1eZnLl89OQ2pQQ0DXENMNpBiaVK1EkhgwD0K5qmXDCdK8o6QV7Vuq4FJ8q0QL5+SofLutfr8xmyVfUvFoML5rNBC9TNef/NUn0jGTEXiqCaT9cRQiQWKryqLO83S+XDx/9uzdhw9/8PHH+ztbkV3bdd7azm/QfVhjotTz/f3tjdD7QTQeks+fzz/5rMyLGLV8ClQmMRYLBK4ZjdvRSHseku3goBxqHqLvRKVBbVUyhdAeqd1lUywKwGrNBvct2b1dP0HxFFzmwkkR42xE4l98/A4PuvkXF1/V5bXWTqCcIES+E8msVD3WKNF1YpLY4UgQoICyVk2lry6Duno/jPYYsYmk9n0dt3JTzjGsSxW049Rlf3ZdrTTKiuVpBlG/qUuP8WkYPooHm14gwgGO5QCsrKr57e06y7Y2pvePDo7298Cd07udUPbbRCC//rD7mjZu47rBEkKBaXTgFqONkrHWh1wNgllEgyHcMtSX0ij0iMIHVuoIwh+crYsD4rRpSStJpZ3C6BaujscU17cy+/z05DpbxYPhmvKfXl680GZruYRIP4j9vdEGx81ICGB4XEj3oC1CwnkUR0eyHVX1RNYHGj7NiKi47dzFqo6Tm3iWl8Ut5EeyjMLh5mQ6CGOXC4AscEyVauu2zgEz5sXO5ube9jYkIIADvg77v+VI0FsCbvCTyJ9M6HhZ+2EBeZExkZHwhiAn6mjQReNuuqNH046BS6a9DA1CBIxJAhkWAMIwZD4DDADZ1nVd/NXrk2D3YHM05NgPxoqRbMs++4X7w5m7H4XfH00uRhm5uKjhdWsrnYZWitNQDu07Q0ieaneoVNc2vKxYloZlNmzbcYBSsBXG2C5gjud1kamW9XqmHJXJcy4WLplTXQNqF0iwCtAIEJ/k3tph17VkRTmFyAs3t9EoTtO0H7770d7mFqTAzlvSmJ4I5beP7tdUvDhCRZEqm4YuBkscLrVQMgtdGviG+0NUKWN2CM3SNxsk0PWwzm9ag6sPcCTYNDMAoF2psccBGQ5kbxlRTVm9Krug0GCCLwm7auT5GhCEGZbyqui4xqVmXPMgds7RWJlpnMgxmduA324f1u0eUoHJKwdjzMnN7MrojSy9eP2aaIlMgONJHCW4vEKRFrJum7S0i99pKhzy43/wk8OdHSQ2Yd/glr/pA0+lNWqp5JyzxXiyFCyV9b5qURtcRHy4We/uqe1tMhiEuJNKJUqF4T4T0unbYoyDChusothP7Dzv+fK6vb0xj/IfPH4SjZIcjKhRi3yJCSunkR9Ewht6ajsY/eSwubo5v7m6nad1HTc5PEgd9aquPeS1y5wAKlrW5N4q81eLHao3ZSNMV/lewyDh6RKXwaVyAzZwaCPrWQG5OKumG95wDLh6xF3XthcoUh3IpYJYtj6R5YdJDHGaNbiyzjn/3nvvjUYD55u4rL7p/pG7sjeiBsiKxMYwGbJCIBUjjqhr5SKKgUiDCogYv1TfPQezQ8EkXXXo1LmtyIJ3arFCRgGrd4AwAx+Q0Lzrbpr2VVmYdGkEU8MYMgRf1qizXVa8yHlXF/BrDA/WkqyCaIcy5HrJl3l5vX5RlCeOAjvpcH+gazllq3SQ19VsNXScdx7c44OYhT5BEltcOymrGqLeerEMXHccJ0/u3R8PBzi++d1o0Mgb7upCm9uO3A6H6/Egc03BjCCu4FG4vW+mW04Qo/shpFfqxeYGklPRXuaRM1pQWjukIqhRBJnWzTL9xcn5WVaULlk6ukY2fDx85IQlDpzxrh+MADHky+7qYnuxiplcl/I8EFUTOY7r9MQp2CSTkEqwpozKdbxMwyzdGoWxZZppcKJPdsIlHQ9Q5Ym7YbSjcoChvnQWKOjkR6PJyItiiMB41vAE4eZVrWqauv7s/CqiJHG6nTgZeWwCh2ZXe98SRb7d7v02W7LzzPilSRTc390dPFsQk6J4n91mdmoF6T5SQqF6NrxW3NfQVofc6oxbfRKsSrekLnFQDHxQW5qqWjBX4RCEWjEn80KGVP7uMAhjh0YotMIsSzaky1VJuLEnZSGlsRm/0qouzCKrZsuyzBvahXGS4Aqb4oNE1SqtWiZc8F1L5iTUeHb9iuPutQHnXFQAk6pxkuxMNzZGI88Vbwgf/nZLss0u25nAxMJVXlKFbpV4BcBS6gq4ABD1QiTZdd8IiPbBTffU8DjoQXBR0EEvXXf4yfC+ec+q6leX+ZXTFr7ouDcA/CE7j/K6rtyu2XS6iTJDLbNs5WnA9cRvDADFtU41ZAA4OGBhBYIIFapmp6m3WTdMQtSFISx3tAvo1JEAMhuUkUINBshh4YZFfgQp3AkyMwCE8kQYQuD1AZJKQHRggFy2fE27k/Uq02rd1Ic7WxuTAef0ToLwbz+yN/oA1t6UsoQcHaT92O+jOI3aYrEe19AarBcpFHFByu1eaI/Q1iZ9AmUUtWhb19SRA5+rwsmzroCnuTCk8AAtQLCNkWfFB4fLBx0bM47jisT+XbJeg+vtwGdYuk8U2ZUSDovcpLhd64tkMI09Nw6QeGtCWoqLoFQ1raPqTmZn5bJWxcKPDuLxkLttVd4u5lVZ+b5/7/Dw/QePkE3hb6iAOG8Uq772O7a3SjyHBQ64UW4UPNa4o2PJA+NyTQMwlyHk4YRXmG9a68fXjbzJjs1+XBRqxmpWg5s3zsK0kANsSgJOovVDFoSeG47ADlAbgFdlpqo0e/XcVHlaO1KQKA7gm48Zkpa3ED3LApVztMTxbaPhEDfi+P3j4x8dHm1F4b/92Z9/cX15leYN63zS1a2B76GwjQuunqGcOxMD1W3IpobHSAFCeTGVCSS5ApNi7QGyBJzG5mD3iwW4cx7Ho60txBvkr4Oiv3ZcbxIWu6FozU5peXUz++LL57/68tntRc1Swv28RdFeLDtiKwjSCvQcBlnc7YAVksMhX5JmWgcQrXQ94N2+T++5ovCCM8mvi+wcvFWyKUajxBuAJaGsI4enQ4KORUQFYIUSENZ6BW6XeQH2l1yInK1TZG7RCOpy+CcYuL4L0T3hYiDAkghO56C6BfLeNrUA3L0CiN2q5Xy+5fkA0qtivREEjx88PL53bzQaojK7863ltF40ntgRXktHhDwziF2JwP0MXxkKgCd0IDXXUrG+Dd9RRSpcLIHDwVVGZakoGquvilvcCrmtcmoLiRLyeKciXEdJmsTJcBjFyEIeeO4GvCOHJrKr6iKrqgbwXash3HkiALfvoseliCGwcwKgQdayRin1ovjw0aMPHzx8fHTv3v5elIS5I+OT0f/27/+dZnDzIIyHjdOi3rN0DR9qnxDBh103cCnOsHeOiwuaIaqo28l8Ad7OLmsD2FqY4Y1W55r6Zf1Dx87+fM2KtHOnTsbveNLutBSsvSHJSwF5X1r89NOvPvns88sZBBQT8bAs5hDtOzcC6M8gTSXM9qKx4tP1Morwb6UaCFJae7I6dOR9UTwOnQkYiMsOTPxX11UVhCoYkAjylQD1ksDZBh6uYnbUdbSwQ7b8nabNKe6GNB0pGydrCtPUkD8MtoYA2v3A+mPfDymLhEjgEAh18dLrrhXSFb5wl1VTlmVWAnSqJp2OO2dve/e9x09Gw5GLE7rO21Xxb7Emx+6s0p6BCJCObFRdI5mIbkuiG2Jaq/cMzxllfh2A/9ggArNBjXpjaVXgaTOrA2RZWwk4pwL7PZC9ghVIR7jU9yiYdRyJyA8FgzxzKLzYOGHbQhLc4AgN/j0GCSaO8eOHsbLUvCdsBBiBtSfIGkcfPDj+/Y8/2t3YCEIkDfvovfc913v55VeLMisAqCJbKqkZPDfTUl+Aq3RdH1f5sIgKeJOAk8LhjTuyQ6pwIBN++iAMpaJrbWZVTW8aZEdFLbE3OoPd3TlSq/pnFQjhqtwNGHZWw/52mX76/OVfffnly7NzBc6I09jR6zav6xDrtwC0wQjhbtmhFHhniHAospEwHDiCi9C6uhozucnVVAgcaBciYjTXquyQgrbEtR7MYCjqzMN5OKiei+1hXOvg/5d33j1ryrSWl1n1sqqeprkUDEyPQzgHNOLjlgWKvuE2OAAlcOAUxeEMZshK4E4t7qs5pGzbs3xdKvXDrd2d3b04TgCX/a0oGxt+1obMHZMVRiqIzCevT58/e34zn7cQb3iIjWvt49iHBksSnUL2ddTSQ+EW7BXWAPqMXZLvDLJZtk3UQT7VuLqmABx9KuOQDIddGHQ+Dlb5jKC+HcRQSpQPtwz1EizBvGutqGcBs+OMcFLIpNyEoTcdjL///rvfe/e9va3NOOhpuMg4ip/cu/ff/8t/+ctnX37++uzl+bytEVFhI4YWLZKMB14XVW4so6SOkzYMURkJ8lwss6NUPUGuM7CbEqzdjfRtVdV50eBoCvl6IOM902Av3nU3pIoVbbhRtZLPX73+8tmLX371fLbKGgdd6wAdfFe0lYLkoWIo3OqEGjV1NCZplKPQKDaEJAqmkJbLwtd5IJQQjRME2DAhLAnCe+OxrGu3yq8ysfBDmXCFJ4cxsXFpC8agcT6C/58e3Ltty9ui/ex6Lm4X19kqBzOKUCEZXLzj+3DkxPPsRDIgKY20fSgQbghvOU61CENRiSE3el5lgGGDyeZwvGH3pn9tMd+WdJCeda2/WcSp2/bk5PVsvvrFl58/n12XElJIx6/zUvAuGKPQI9wNKXr6Oox0VsWxxTkGcD9oTK5pNrv2vmq2CE5vdUJfCwUoMPW4F/o0jCh2STED53abDa4Hi602ve/jJiF/o3NpZ5GklLppfYMbBx89eef4YPfDd55sYg7B3zbCiOlGcfKDDz5Ugs0M/fRq3daQonQh+BlTgT9tNVszv9oITDJqkmEXBNgItgtKkjie5UzAoh73KVbSzHydLav1yfXNvSQYjwYdfXtUb3RkLE0WWiGqdHdZnl0sF3+JSgon18sVPAvwAvCwQseBzErCdTPFTWlfihzAT3H8GG4mhjmFuujwYhR6yIq3a1etAXXXpslZEgYjMPdEsM0kZoAHVis/LxRfOeNBnbCyQz8qcAEB+74QbfluEm46fpqYrG4/K0sR+E4UOWEEb7hzBdxgZBrx4L4C9gX4qQQuXSNnH87OgZPDiXkwJSeAhxTH8DUmTgiADGs6AH7v7ve3WBIeiLnjmJJOl9XNV69ePXt98eXJ8wwyaoclHWuLvAb3E7i2QYdcAJ1V3rJh3hKe4CyMZZeE1EOlu0p+0LQPIJ5AUuDR80i0TndlZAVJFkQo3wcwBekNBB0JP1QIB7LS0YjPYl0rKy+H4im4jA9fVDe4M0C7zcnG9999592Hx8M4tPuovc+yg8wUFaiZ7yVwfzZ3l/6LEgdOFGsxo2Tgaly3En4djbpkqHHYBpEjsRxUYFAK0iuwd8gr/MDIBhBdC3BQiKfX1343HU4GCidLibGUBwIZhzA9xUqDYwVLjczW65PXZ09PTi9mCwDSArXEPEQJGklutomiAFeqMtUtJA0qGCKqlNi67WdmHDsOyrvCb9eBXFGhCyJTDwn34E1Buu4ipmRCK1aU7XqZ5eMsidswKgHkIE0gMlcoZI1C8UotmL4t8htZVaGnk4gEMRaIcRIK8n50g5Ig60jRT5lYGlGkRiU4+k49B4Jw2MZunMCzmbcNpLIH3cBSVP5tcnrYx+1qqVdF8fL09cvTs8+++Py2lCk8CRdJsfaICwEPQHFR4h1z4ADhCJBsA9USIYnEK0s1pNNOqxjEtTrfdsxGq4ZWHjAGmJdM23LpF9lr7hUQPOIBPKoSwjEHZ4XD0mw48lodLDMIj0256uc/DZx2VcPJb21sHB9s/qM/+IPHBweTOIYbTO0ahBXj7Akt7kRnGySGj9bT7XVSUVmotkGr8SM63TTxRr2z0yUJwIsIMgAcYMWup+69E4HoRjOkpYI7gTe2Vuxf/+Wf32xvv1xmNetKYrDCaJAmG/yEC7kCc3fjBNzwfD579urFs9PL+TKDP/HDQNn5Es4A3eM6TKThhrZaygRXlkkdRWm5Kg1D50R5P4sCFq26rGsXRqe1IC3icqolkcj54UDmHrp8lETH8MjL6tX1zUkDsNzLPC6EJwnkaKg3jKulcLchwX1VZudtW3ue8lAGBfJtuP24ayG4ZEJS3uLMZIfkIihJiGVAjjNeGqsQAOPgJgRRrdVlnr2+ud7x+RQQt3AxF0fIelf0EAi3eN9Iwj/pOjDyFfjn2e2XL148O3k5Wy5qyCE9u6iAW+ZBqdpMt1qgaAZuIRMOCBrrRwhr+tXDDvvkVR3UMi5Sl5PKMctAUNENqJv4/j2Feweqqm6zdeP77Wjg+F7GhYdKVJBIBXwycnd3NeHqtuvq2iENGGrNUL91sDXdPth778mjEBvxOPvXO1NlNyv6eROO3VenkjrTpB6NS2ewclpZV/AeeDDg0w0y3JAbE8fzAtxfwcoyzqZ2OPUlrO4upJ+5VQFC9iSUV6S/uLysO3LmDqUgJQVLasDD+xivnICTCRWXbsBlc311eXEFh5d2EJhdDBi0JxFU8A9KZ6oyg2h6AGA3xicrJ8EsK1ZVA2kLuE6lbT+bOK5TbzA51qot60bZSVyDm6LIZ4LAA+eEwsDdh28Mnqmdz4M4H8dLiM4uC7AiZSwuQG9untb5eSubOOlwlYQhk59wG26JhsGwKK47go+FBLc0ne8ogE5C4YYbrm8Yp1aBqXxJiy/n16MyGzbNo/vHk42NdV4WTQOf8NzBrQ+iaJzEyOQNR9nIQqpPfvXp09NXn708KXBxEn5O7DFUk+qZcjzH7GkVG/Pi5jr1sjyp2rZ14rhz7WILro/g3GgnK7q6HaXZuC6Uzy8503SUeL4bmMjlG+PJYJBMlquTm7Oni5vswaPs4J7DyQA14GjFXMYS33sYbG638y19faHTtS5ljbxhKh8O5WgQIsMuEu1rnCTVtsHl2FeI24+a9Jyc2DaDh9B6YTocZHAyYeK7sUAVc48DLuuYMriU4hkCdxKgio+Mtlb8uSMVoF8iS6ctcYedXrjRXJOtpnAd1/NYgMmU2+9OV1WRreafnLzq0Lw6F94Jtmc8gC2tte6+OQj4RzVVuVqNQ/+dw+0P3nkynUwNFWUzXOXlIs1XWVE2uKAAsWcUhDHbLFP3V198Wqd1SlVjTKxMgzo7jvHEMPZdEU5E6LnNtKi/+OJXFxubt3tbze5eg7mV4W/hSq5a7JUixTCDZ656bV87/23XlhEZM7vwBWchkSrF0vAQ0mffbQfZgTBEwLd4vc7/1Jx9VpU8iVPZyq5rlUbDp8SndDuJd8Po/mRa3y5eXVz86ulXl+vlbZbCiVHhQoLp2Fkzx16uDlXGZNTKg0YCAE8pu1WqqAoZig6/UmBRicJdzvR8pTMAV0UVcS0AQEOKZ3zmAqZAshFKIZ80ZVErfbVeLcEIjh+0WNvE6XbLJCGI7Bq+hSsYg8hkbQ3PzFRLJfOmzdKMUSWMKODuaJzi1HapQmFyh3SWSLp/c13lK6VaAJctnCGk/S6k34FyBSBpYTV6u14MAhsUTtOZujO8H4OHRw+ZhFbw5CBPR2rnaNBGkOgF3Mf2hE9JQkiMcyBmvljdnl3mtwu4bh4kEEj1huJJ2P/BlJ7iq5LSwO2V7ThKNgbRNI59g+UiQmvP6QLXDCJe8ECBm8Nw6SReEAqvHiZwYU5X81meQf4ImEYokjLe+kg9GQdB5MLtNJvagOdq14vCkbnr5qOJC68AoSXuDNsheBxzxccnMc/u+hkeOxFnF9tsDVwScHpdS3BroP9NSICQ29RBhfIaMjoizpoqbZbFfJ7TTgkK5+BzPEw4Ka7aMSOHrv+Hxw8BKH754vksSyFrhXDGcCHTLl8Rq2SFwvTIV+0ow1UzarIND1xCcFrWM5mnBdM+uFUXvQrE57YQ2cqpSiUhcWK65UUUIrMcwI7IGeJgHB0kg31whU3jFil88WxnX/ucCPS0rmV/J65bezyAiAmOGRf9K13N05tFlhU3NzNOFQT7VaeFBNfZ2iKoo+CxK7Srpq4vb2brVYHLS3Gk7QIBDt8aJdHrEOxCEdQ7wU1CpCLtGrsrxy0nEJKrSkjPsY9oJJK1+hsbLiSJw4HvuZEQEaRRHYHE3jfIIVncLHxA864AA+DGoi5m14KwV4IcoEwbAJiAmI/2dweBvzEY4AhaVQuBxxUIBs5yigUIXMAGh4s0y3ZbdPdg96uz13/2i1+kiiJXUkfXnDeAcnzXlpFcCFhxyO6B7wBru72BtC9VKp+OeVmWhJq8aNDDoniN3ZMiRNk5hvaNslufXjmYciMBUg0uGhu+HUrw4hsB29JrojOI6I6zdpwA0j0PUnecBEV5VIdFloEVnHe7mp/cXK1PzrvVOpdNJzhqmGOM53c7H1YW2K50IPFTp2RbZLGstgeDqS/uOepK69sGsgOctmKWKANwW9DVI0dyB1BV2VKW2VVupEi3hWIFqCuEXJ8fwNvJsyDPz5e39QiSmBFcGN+qlADYqbSDgoa4TiOarpWtLrN85jgvhUe72lU8pU6EJUHUeMKCCMXZZnh8i9vl2cXpbJ2rcOJEoSNDB/wgeitEksRYdpC+RoUgSdnjNJwguxZFjVsZyAaumTBqWaZtUw+O9thoxKKAA2QEDAqXpus8rPc7sR8jAS18e97Z14CVJhx06YEKOMWmBj/wwcNHD47uffzhBx6qQ6Mup6249nugOGBqUT+1vGUE64z4J6gQt7e/u7m59W9/9svXl9dFU5uceMgxgxNMcA/CUMSox+U9Bhuoc7GYv1Tq2kj+ySefdJ2cVV2VZhzcvLYq6Y5lkOlXkIydgberGAZFkE2Dw2S6wWUdRNNw/8AlGqctdFsaVcGbcHkbhwE8ORQqCWMHPLOIBOYDtHHmtzdZni/TVUCJB+fk+b2+nfV9uCaBTlLKDly8bElTb09GwcZkGPHt6eZkPLmP9AzdulUtseylBvNP6mNQCloNl/305iat6zTNyJCV6KEqTwgK11NB1koT19/zZKzUFxfnM1npUFTcbSlu5guMVjjtC5EaMFFj3cPA9YLAj+IIcb5GRpkAa4GKcZdxtP40L5eL1Yurq0W6IK2MWVxWEjwjJEcdbRE+3EleA6Jjb2Td+/oZBG6so/qt8pR5QOrYqX3U2oLMWoahrwIPh6ldt3OFweplh7ITphODaLC92RU5LuFRhhkgZgCYdoAfhcx8Y5jsbWx8/PjJw3tHx4f7GE17Tae+rvdGbMW5Sz3vqGo7HI/AgBAGHmCbzy6uX89vwSG7nR4z5OHkDscFH4/boS428Nwdw8FqGSRJEAX+1b/6V/AKW5qsE5cNtnHwDRyktKRHuP2HNiQxodaWwxdbx5aXDsCChiOCs2ZNS1v85Fhut8K8oRdORkkQjLk/8bzIoYlwE6a9lkaeMI2q09wn3IOEgvsCPIdBoSks44ABoZIzYEZNFYr6TpPkT378++88ejiOh7joL6hND3BQy9gReGx1U9ueJASiQwsQ/vMvLxbzf/vTnzZlpZC6CZASXCZIm5yB56N4YwQonL97dsXLfBEF2SDRboSuQ9U4O49RDTlkc91ErLt/7/Dx9uaHD5+4DFwAryn1sKEnGabZBCDU6qtnN3n27PqyJtInLJLKzSsZ+R0PdFfjxKyNWsiCwAQu9eDshrYztEgpQpo2lCY0zo9dM+HUN3wzCZ+Ck9N6DW9SCCzOuUIzhOo4jGVMsDM9bJ9cPXumqhyfAsBTTI8BCrS6bSbDwcfvvfvHP/7x7njio/wBtdXTrt+67Jw7omNsKdz1f1HxA94Oxl/sMWPXIgi8jaO94WJ2kq5JVVgOhI5bovSKd6Hv0TAOKU+QngTCW17fzPmf/MmfUEelDbso0r/S7AUYdtMAmDY+SuoQQJmWXRDuINJROFgzxTaAMSFcAEdT2YJb9ts6aWVUt2mrwP+3QSBiyJywaAuY10VMDO4AckHiVhrJE3B8h2DDAhdoKY4Y4Wob7tXD/YJEFFztaBAfbW09Ojz8wQfvb02nIU7+2yVsYju+XX8gxMpTGGTQsdRjYMnvP350WB98+tXzNY7dVdTRKdxkB9VhNW5t4UiN8IOPAy+Q5q9OTlfTaTWGtDpARWot4Tu1SMcja127VbFzcLA3iqJBIHBDACVFeNdT9TvFOr+c3X7+/MXLi6sCsvDAGzAx7WihKplyBXkjwXlfrILhO8Sqouz3wTqFHhhp2aSqS0/qbYds0mKTC6x7jkauVp+vbuEK1yFkbJ6ivBCQ7RhUnQNcM57GDtNXV/BIVA6oV+LWetuCJwYUc3x89L33393f3QktUw86JFx5fCPsjIdH7jb+7ip6mPNjOmU3W3o6VwBnR7s7L5crfXmT5xWpavAREY5ZtBBwwP/FIjCMedwNQ7OPoxgN/8lPfgLIJ63MxVcvy1V6vl5Dno01dNNgh9CK82qHN3BVcd0d6dgAVWhUL1YVl0MpY9PudOoeCnE4N6Y7JWbOKQrthEELqZjjoawpID3iwEsgXcuioYgHEHUtBwQzvUKJQujQ4igIvOJuczw6Pjx48uD+Ow+ON0YDj9+Vynsm+DcqT2/aCJZ7pd+ugP/b3ppudeTe3uEXs6vL6zNjPMIJ6iHgABzDdhsasBuPg+PWpDdzeGOvGlVsbhcdpRIHCCCDqppa1bUo68fTjQOP91xAuGxq1+UAES/X66cvT56fXz599XpR1TxOACyC498kRIJ/rvM0DxqcugsAzSokBWaWiwCH0VsEUEhPRNuKF+txXezCjx2yBps3bjga3TMqv3jld/XzQdJ5bitGJaIaEzlOBbgwjAEVePsHDIkpXuIOR1tBXK64p3y+ubd/sL1NETvS3wxnXx/d/Y3f+rWIbf8FDEf/DgfJw73D/ePVr04B/60i1fqVgdTEpNh0XcIXYevJA/zpe900EdxOCvOOmYfT0YlWn9zepID84Fu3drXL5mYGiTiwr4FzLhxnIwAGE1W5Ru9X6kFHDog49FkXxRuEhoV+wZ0ZDpPxznUbGuDegx1/ci13Ah3G3nhgytyg95M4gmWTDtyPK0sIwrvj6fc/+PCdxw+3N6fjJHJZP5jyrc27r/dimJ2cVx29d+/eWVuvXj+vnG5iqZcFGBAgPIiFUQiGGUThQKiHStEir2V97pJFEtESokfplCUrGrXO4tY5GG/tugQVGJCM39ZxURax/Plnn3/y2acXt4tVY5swlqONWWX4iXFS2bR5imuOjkT9DILVZFu2QOFvy3JIuZaj9Xp7tdip8sRRhb+BkoDYgHdH1DtMRiEBIH/dhEE33UA1PO00nGkkkMXljfHDB2yxurm50anC0pfwGj/GRZl4AIkWIjJbvvnNc/qGo/vt/8ImD2OTIPx4c3v5qFrU6UuZXeZICTsUblfVkK2GnHpO5+EkKW8YuyVWcxJJsWn3eHO0NPLzWbCu6yVYkYfhGSEoims6fXUJHjwiBMhqADlXWSTl3kIdEbnN6QQAtStiFkYASqqqPTlzNnf09k4eicilHukk0TXKcLnx9lTVWX6hsO4MxyMBJqPOJsRVgMPvHR+/s3/w8Ycfbm1CosZxJcg49DuOgFtE4Nji3ON3Hl875vliflPkaQW5TA6vX/k+Ihb7gblsxCdU07QkVauen2SxlzpRKzMG2XJh3KIEHH5xdZ3rdiMZgk2Hwmtlc3Z2+vL87LMXz08vLktARXGCBG6c9kuEEINHptsC2FJkHaqihl00oNEQA7AQHRoiwV0wt5OmUotbdjuXqlyHNExdx0d+9AjVy8RmNIxUA7D65Ppm5vhi86Dh3hpcAHUaBxNkPkAq1uS9d7ui4PlaNji7SYSpwIdpi2+/YXngu37gkjsTD4YD9u6jZVd4iXf2/GyVNTStOSShdbnkTm3qAhCLFMtGfVVbVS4MkaTbjoL3kugf72zfnLx6WjfrpuhwbtEg3bcE88FFY0g2sG8pieFtkGajPBulxgcI5AvleD4niQe4x29uKrJcnxu28P1iOgTY6HWO18HJKSxIxUkw3pRpWZWQs+QEjqDSmWwdQTanwx999NHjvd29nS1m14LuKOi67zgF7ryJ/c7mKHm4u/3k3nHx6mXbVFlZ9nq0Nm9HpIO1Z8KRfpbr2qm/WizCjIE7dkwqZOtWnQvZGTN/+fo5uPDNqjhqx9Mwalfp06dffXXyEmBAh/oZECx91c8F4N47ZLwqMM6kbdoWV8wyV5QSpZ7rAgC2wIhD6EDyDPCCKQZpGa1Ko8uc8FVedNhz5SxEqsrYDwPsVUmWFVKezhlNt7c8N/Yp7mxWWGenbeDxB8eQPfllwdZFm+ZtucxRJ7PFvpJgf0c7cu641SEj2mPBP9jdA+z477Nq7SyLVcnAMBQpcoYGzdzaM+fanOg7HVysMEIedTga/3M3ui3K6Hb+5+tF3UL4irogdJgL0BqSMgDiXIIHAdtrxle3yfpWabL0IXAGHU0GvhcwDJt7wyQUCknPZ1fseEczkYEXhGxMUMO5PyY+nCnhtXaKi9S0ujHOinMv8dlkvLO/vzUdu5zZkSWnr3TbwZPvZExdT4rkACR0Pj7Y9SAzDMTPPylWt3M0I6tSgNmf0kkYGUSO3rIunxflmW5vKR05OgncQej6AfEh/nX1rKnaxjmfrz79/AuWV12eq7KokL2au5hLYJGEobZhh0pKCik1CDYBsw3TPZnsvvPBB7fSfL5KP11e30DK5zJ4EbX0HFKTNlfLNRK2Yd/WK1zfkQqZZsFEtB4FYFBeNBzulU3RlPn1yzI0KtgvOgHRxUXUhxOYxvOxJuGpwpUtMu1iccsgI0b3jRtN3/HDTtPh6FTI+Ee7e5vjyaPNrZ8+f/nTn/0iX9xa2mcUGKhLcx0n13GQelZzklhlSTj/RPgPE/8f7+1tBp65WV80zQyifVEbFwkYkaKSSyR1xZ9Uxq+vvPK6CH3HmShcULWdMKxxcT8Jtl39MFVikZ9/9aqdbtYbW5DDVQ6GOSwjQUa8vUHbhos6m6Ul2Dh1cqqWjuOFvuvBj9DkDmMTcze89F0/lO1JiE5NXP7u1iR/+EA19YtXr7J1CpeVlyXmM1pf1ZlwREvq53X1lJqZ68dgOgKyTnciyEhBihkxXYemcWpdpsvs8kqv1ly2AP/dMAI/61jxVlT7gXiFXRNsaAPkAoS9tzXeGW8c7e69+3hvrdonafTOIrgCIN5HVu1RHrpdtLU72ZSqTdez5Qy8GG7vuOi3KokSufBFLg0nPn2gW5qlJydns0pXk83OD6QlQ64UclHgmjQSOAFW0L7ukFCKU9sX/LtbkrazUxCpuSZDD2luNzmfGDrpnOXZWZ1lF2m2MnKm6MwhufBI7FuJu66fXEQsFDDnh/v7j3e2rs3nn0MUTzOVm9yv4QkDYMY4ZwdggyrNb85GTSHVAMJS0WK5Fdd4GY/wtriAcHa1YqZafvVMAlhzvfVkgpNTODjRFT71RolHH5BpkF9e81K5nZ4v4FkhqwQl9A27kdOLzv0OB9IXyeEIUIrTGbn8R/eOCKoKx7/45a/S+aIuCrD31lE8rTJTvm7Va+qkWAEfTMOBi6rrXcxp0omIcWFEBClol8+UdOqKQP4S+JgWCfzorAquHWnAyTglm7oqIPaHPn/3+PjH7394fHCYxBEY2Pc7uiqbNcTzvGrrOjPg8CBQudM4CBh98fLFn/70L5/N1oWumGWgV34Y+m3n4jINgKbdzgvWSl7crtOyPFRy97DyODcdZMatLK2cHyRvVasrcFsoP44U/Qo7MYju+5voWDIoLIJ8F+dO7I5y/1fB74aERkHw4/tHj/Z3rs8vnr949f/+5S/Xmrz0HR178GfcD+/SP2KrOo41q5Hvxob/D/ePFzt7p0X5KXjmNH25Xt/Wq3VTMWImvjgS/Iff/95OWp4/+6oxaxJ3ObPLWQ4yqY48D9K0kR3Azear06o4PzsFJOjGA9f6XiRho0ilxuORmnbErW0XhZQoomD3/76e5fcTzN8VKJEeYNn/QIA7dMWHO9ubSfzu9s7p2fnP/+ynRV6orn11M59TceXyLIlMGAaDIbLl+SIUHD8pjeAEHZRyU4tlubrF0XfL1urgqvFd5xsAuE3CWl03YEkAE9998M7x/u7HT97ZnYwHAVbUwM/C5QZAth2F7ahV2OPFPWPISV1bV1OHh8s0/eL8P2VNRcDjQYLcmjnz2xgZmCjvwsCdarh2MoOs5eqqUFTe224chmxRTWu15jpUMqsLv1UDN4ggMhJkysesmdwVs+mbavZ3OkNLr9FTENzVXTiPMON3o8N9j7pfNHK9Kv9KF8T3GEBN4XHnazl0r00uUM+m+2gybii5V5Ux3L1ipouZyFLSIpfjnhPvi8GHj478Vfb8+edSd7IuO8zVaQHOSNAAd+E67NoS9SSMuVTN+cV8MtKegEvXKoKSdXAoQlLDmiDsFKtRQAhLi3258W9agP/bz4HcvRf7n+AIt/1wKLyj4XBD01vvs4uiyPP6U1Os4qgGtAQZShipKGmFl9j5KSYsz76dchUdJrqA2JEGyfPwNXJkF6D9a1RYlJNljeITTR348b293Q8fP7m/v+9DmoUzTDjShRUAy1XtecI2/p1+aKZHFokf7e/t55wVRccKKahUXcl10Ukn1kiO6HIR+mybenvZKr2dgyHPJm7pJxKFg2mF+5pUShxp3ezImHCPCtIP6ppeOtwWwXo+l+8Q8H5r374viWMtGF4M4MvJljNY7nh+ZjIIgS6m+d6dJX3dAdz9MOIj9L8nBlt+8Md7B41SjVGpXfuG++oaNgr8JitHsvvfn372/OKiAcyJ0/kK3KxMhtK3FPMd2YkiWtesbD/78qvrxWK1t9NFI1cTLmWDxWRd4gK+yqQcudEu9pu/c8b/HT76ui1TBlMiQuPHx0fj//EXz57/6Zef/ftWL8OYDsc0HlA/7PyIuD53OUokYycPyV05TnTC651u7h2qdOmoxrH1KqmQS8HpZ+yamhm5PZq8++B7H7//3vG9w0GIXNr0rn7akzH2ZCx9AflOMfxu6cAhwzA82Nnt9rfaRi6KWsEPaB3mkTbLuspEo8BJAvjiYeC9R0exMs+yRfFZWW7t1jxaYkpc1XnltfWP93b+z1uTD/amrqWDdEyvBXzHwoab1cT5u6dzlgySW+nLrG1epPNraVTk08DXQkic2/+mD9Rf63fQiJO43sC1BG1YoLU0groPPwiTHzw6/vn1efn6FfhsH7IHiE8upHoCFeu7cCwAM7LE8D3HI6s6vp5/yki2Lypk9MPmL44mIs2KqWXzxI8ejexI2d/j47dvhdNDLSz3aM9jm5CIlMWozOT1UkJm58cofitCDlgbkKwgLaMtQ4VJ11oS9rKTeHr/aPm6k+lKgVdGyWz8A5RXlU3I6OZ048cff3RvZ+dob3cSRZa5k7x5AeQNW7ljxS3vbAi5bd80LgSjceAfbO+s2/b66kY3cpRL4/tloDk4+7KDS425miExIwdx4NSdk9e/0tfncZJOvaRUw7pNmuqDSfKTw70djzPVWip6zAbQ82EvlHZ/j/LS3YcleqG4XEdmVZUajnOODGk8JPsmS+pX0Hk/1mp/tiJ37T5kS+nefBFxkMlgPBoNRiIOV23jgmPucNMMfppEsiqHeCGKurvu2GWJYkEDJzVrXK8YjyHd0xLVbpu2dtA9NYfJ5P2NLZ/+PQLbt31YXijLz44NO5bEg/0jUtqWhefjeJ3gSLBJTAORAYIbo7ihTO5KEP7WxoiTLFvJtqLIxdUh6Y2VJjdN/fD+0ccPH/3TP/pJAPcS3dldQ9B5azddT/PZdV9ni3LeSL3Y0wRs9/vT3UKQS6JXr+cil3laOSgwuQZI6cPr8UOPcbhnURTseiwyzeX8Oi1zAYlmRv2ymGq17QVJlOSkgzyI43y4BvgeCZehMtFvx6zf+aPrXSjStXc5PDjm4moCEQChOvotPsmKR+i+3dczpmFuh+VjipUKam+XZVBOovDx8fEr0/z02ZerdcURANoZCi1xQ67pktgNKVKtu7G3K8hDSPlv1ydaN0GAM0ha11VF2xou+v3J5L2dnUD85zSkt6zz5K6SgJkhds2KRgkBLxRxiGDcY9Ilre9gN4chEUxDnLqPRwS/hsdhuDkVWq1ev1YNBGb4pzVKcm0+fO/9jx89HAQB7em9yB2dt7FLfKJHoT1QefPOjNX6u9uItNbEKPvh/kEauafr7MWqVE0LiX60kiVy7XcZssbidJMmJKDM495uInZXVyqvnp1dtgoXiYWuf35+2tQ5cicIEbnhIUCrOHq0ux/i0odjxZh/lyz4tz4Q2uFSDzJW1BKrzNYUCHK8OuTXlvQWqN79Zz8QZf+L9ZeM3lHo3k2/2YcUcvbB/m4u+EnavOpmdZ7vNi3LUdkNyc1jOQdU4ccBB0jmRR19FLSqnDcqbYLBTISqkzJdDqp6XJSsVeD9dOVUpgmwR9ZveDuYx1JLz2uXOt6Wl777mRhLo22FVHEsr5Lt62zdWgpqI1yKShsoF9EQHP5tCS2Zxduoru74Vm7W9QKyu8d4AJlbMZ+367SmrHFDw839w/uHe1sM9xLR6Tl3cc2xVJV//VncgdDOecvJQnoSBOrcn45/whz6UP6ror4U7kmaDR16VOBwZd3R2thlhM7wwCtUeyPVrSduAKjgBFQjBCQJWK+qbmY+6s8ycGDXfhR57ou63o/i97d2/b4FbacYzN3h0Z7e+zudpHWqFiXguBGcZk0a3GK1cxEWQv32X8Gsp/trLHRvd9bIGza2u9+m3fZw8DHx/mJy+qqtboVyMgjt9RSrUy34qNQt8W4LHAcQ1NnWQbYoAVfeZMoJWpQVmS8BtDp1czG/+SwKWi23JoMNjiQ6nPTKtnfkQHYJ/m44i7wJDN/pFHoH0PXyEBB5DfxITS2SgAQLh8jgk0lsrzp31OXk7keAgQQA2ZnLhlPOgxiwlB8U7k2HPAJdRSsXYBbgSCQIpncSHr/Rb377Sn8zGUJn35G3u+5dF7j04eYkHsW6rn92evoX5bNMtum60B2J7JSsKGxkIfS6LD5P11+U5dJ142jkc28QeDHnCSRDyI2ouYPl9pPbOTjJ/+PLX/7o8Gj7J6NtuMtoAG9fza/H3P62VTL70fX+0yacuNoPqTlOBNkyA3J6fUt0+5Ye8m/87t1LQfb3Q9//ydH+yy79c7W+lVxAWlPivpQ2OaQLskVSPxl5MRP4tmkUZ2tPF6JoYo+DRQ88fxgEM9P+5ezieb6cnvuTQTLy/a1Bsj8cTT0XR0/oHXsQdbq7WPFdKmz9X7GraX1RBSJq7UDC2CJvrt0p7iedWmsGFXEU7WzS4+heKAFVH+yWHfe9CBf1pZLGEzgTv8irWju4JtPf7d8og33dcL6lB/8mIehRqHBCQ3e5/0f37+9OpyPfXa3XzsVlVTeyyGviLBxaOZAHt6+lOm+7JSSbw0E8HAcc2WcGgg2YiDrjaYlUF0pmVDTwTjNzmq//9NkXPzg43o0HCdarrC1Z2U99B92+6328K6w4ZOxGMRW4bmOX9sByv9mSvvsHQYX0jnHy8d7WtVMxra9Eqkg6L3EtKlcSUEirwAHAax4aN1wQfkq6G8eBtMdTXcixPZK4YgiZZGeumvqmLMKO+7e3oyjcHQ4ejPPHk8lQ+Al8kSXD6kFfR36HrlKfdXfOnXPS/V+3yamx7t50d98WVx7uPkm/j+YjHQfWyy23B9aI2yQuKSndwm5Wrp1enuxt5Pq7ftg6ouMb+mRjc29jOnLZ1Wp1kyTL29lqnWVNs4Y8V+lbKmbgF5MhGSY88AHAubgSzgIGfsIddJ1vtMCqtwp8VSiAMzvKMX/+6iWkcw82tn+0teljVnCngfWm6PYdX3dnqXVpwsWj6fbJumDl2gRN50L4oX9fS7rz5sLZHw3+O/fJ+6O9T64u//zZF6fX50WaAU5croyJQ9wIU0Sx6kLwl0rehkyJwUYQhoInngunMKTMNx2SNkAGq50WHLuS6cXF69Oz8+3dB9vbH7pbAw9gCn3bTfpdstrOKirYX3RIDz8EeGTxAqZiOK2JUroUPRcgH6LtqDWEFcB6Dcr04iYiUZLCxdAaF4worRnKb+D+kfNmc//vmWTbcqVjSVE8wj7a2X28vV0dHq3m8y+fPvvz5y9eFMWV42RDvx3EIo6D4RBCnhuHAaO4K0IoYCNPG9+g+rujVKjMQEpmTKGb+Wr5v714+tn15Y7/+zuDEQQHO2uK8d5890O0SSjAnokffLy9/WX+8pN8rXyOs/fs721JVnwWUbAvxH4sJm644YqpT0+Pdq5PXtfz1eLmJrfzrACz18y9iuOZH6oQAIcbBhAuvNj3E+IMKI27LiY4UQgOs665bNqq6xZp/lezm1stt4euO6JWWuJ3cUdvX6edW+6FlxMmtvyE522/7YhiMzhABmDIkrfiTh/plZMUDo12uFShWggZrqVhRi53LF5Il9FB4KOIG7o52v0OPZ1v+GAoSOT0MknwaMaBh4t0XrjrheDVb5T8/PrmptPtMKSJj/oKIZKkCj/EJS0Ot5ShsIWV26aWn72rarfrNqIBk828qmdp2tbVV7cz4SGTkbhrbPbO/TtVg+9YvzuU9X08Grw3DH8ZkOeqgmTJYezva0nG1qmIsq1MrM6Qx5PB5uARwOwvg+HLr1787y9f5UrBn57V5Vx42o8JaiAlfsDcgPgk8gWuBYaMRI4JHS04ceG8IMNiLGeiMs5FVaxub/7BejTBPVHvLVQ0d87gOzy8X+NavD8R45tgw2ljORYtXYZ9AJZEHrl/+9afHRnvjVbbuVusIDlVZVqprPxgTOkoDHxMZHo4+vfo8PSKll0/MWuVGi0LAoBDz3X3N7eOtQJAXa6WJkbBeurDnXI5DikhCbnCtU4OOYTV27Zs6IAnAgNfBbchclgSDTJUJ3FeLmY7W5ubJGE9tyL6GWTA+S4v0pLhY/9e0G4ncJ9MRw9mwUWuiqbBcdi/85vvP5CzF68T/vquh+e5U5dNCdl8//3vH9z74P7+z89O//XTlzfCv4ljfzQMhhGPA1TxCTxsUTKs6xhbYOmfNLgwzpvQkwyyI0HViqzK4v/2l5/8N0/q//bD709wkBcJBNl3HzexWS9eecql0bvD6E+6yf/17HLRSCcSBPcFPEmNVqhRSVBcjTKKi/HcjvMzp3bbDsdFW9xuhdAr68ZU5UdJ9MfhlAW/nrP/u33csSC/UfDo+k5dzySPSkR0TckLqa5dt4sBMQ4oitf4ikE6x0vXNZY6mtgVSOQmNU5gNbEZagubNvRq2XIZBpEsm/oXafNhJT17S3TXVwF+lxeOUyzw8ihgkj8+2I2p3PzqxZ+ui8/n5d8bcf/2AeIcAqKZJMSy7KPu/jVE7qs5vHkTBk4Ajsgnnt95yA6GqgSca4hpBHWIBBZvCHL5oosGW+mQ+df3OWQr2fp0lV8s1tF4wD1uN4S/aymkXxZ0bBeoQyUCb3cYT4lad7pqm44LhjTfMnA5Mi9YuWdUnLSHjUoJBqc6KepHWRprpBhuaZZNo/DJBKeOrc6Qfet/93P89d99W3CxKpfoCQqtZ1VZwG+A3YC5vGlQQExpGE7yAOhrwIv3/NGWtQel+/BOKGz+aKoo3FjWdzlq3Ph4m4P8TpZkW3g4YIuTaANXPBiPPp6Mlk07X6b/GXK3N+/+67/ZFxDB54nNjelGXSazhdvA26c0ABvyOrheghsOx0Elx53XliA/CLMKfr5twzPS2s0lJPABI2RBsG7lyexmP/Ijj9tyTPe7PzmcvgVL8lzxUSgEIV/URUVdK7XQOgqHxDrOkEuDW32Ju806pSuFnEtgRGXK0izK8426eW80+t79h8PQipDS/zxm9Pb8urt9Rgx5jdZpVdZaG+F2zGo5wLmhaBppkWeW9DvwdtQe+VQ6pHTC5UZ4ukgyQ3WLX4+HXNdlI2X3JlXq2x/fHXM7bw0duyRsazD5lx+E29Pr+Iuv/r6W9I0fvbs2tmbBkTSHzSHf8ewuKUAl15W2e9zavnvDMSl1sRSP5VPsx1nxc4HP0VIpAviCUO6HqdGvFvMfHOy+vVDf+QWRu1qgbYBY9kj2z472Jov04sWrViPfg8NCnE1wYmTGwvkJ+4WmLxWYtpEAyo2pnSqL2+rY4//gwf0/ONjbDsGOut6s/94N0t/6sMUFuE3SmKyua4KSU+haMPaCZVCw+IoiDRmOPFC7NI9Ti0YicTTScHGHSFT2tbLPjKLfQuFgdddUfoMBv+P0xZ3AYtcfJL44n/Jtz/8BOObHj/6LWJLzZjnPPj6n1PqsrTMvRiom3hMZMElZi0PVvCcnYbYMD3bToAaXFZrFNjKH64i6EZxDcMw6c1VmNUqL9u/su74cYxNY+ibG9UOYf7i37TP3i7PzL1R9kS8lCohb0CsYspMj0xhBZl5c6O9o20L6ZoqVny0PhPv98eS/enj/o+0tqx+AGJ30LaX//B+kL+7bRh7p+4eAUxR+4kdzV6TG37Qr96TFhSb8HU4wRGurJloQWuHoOIqIvJ1HcH6n62hr8ji33Cvg2nK+wPoPOUjiQRj/l/FJ3dcW8yDj0PpGqjIABMJwlxdyV8qkxUZ9Z8I2hYltTVC44nWHvKyencOF86oIgVQOQmPelnNUNTVfXwD87udg6wDoZlAfx+kO4iRyY+IH/+tXL/7N67PzOjdRaARSTcJ1Nna+yBYuNXyKRtKq7NLbQ8f8s/39f/Lowfsbk7FLkZXQMvTQu1j0n9mamB1jh38LrABpx4Z7vBn4ovBnSWsXeAWwEYL0DB5yN6CGGGZnCPKQo7zSGsBWBaAP3hejX7cg860//LeO8K4h3gNUSyFgmS7BHYxd8l/EksybMnQf7VXXNQ5BG2IArrEPDgAQPLOi/XYfmpEgvRAqkoAgWkTJVDwOlNQgXUNQGqHSJm1qafra0Jshh+9SBCBvkUf3pk1NfOFuOuYf7e+HqtsOok+K/LIF34kCNBX4H/SPmJnCzQ6oM3To9iDaHkcf+u6/PDr+aHsXwB5yEVhaNCv3+3c/rm8TAuhftNVWoTiDhzXbO+XhXvgMyXTQSZDWJv5IzIKUz1piUMZCKzdWY8vo2hgwpkYbH5vTtOt/aNcz7txhsm88tK+/yv4l2bYsMUZzYlncIGJYy/z/A+xw7qQKmfQmAAAAAElFTkSuQmCC;" vertex="1" parent="1">
          <mxGeometry x="398" y="94.95" width="108.5" height="109.05" as="geometry" />
        </mxCell>
        <mxCell id="7LSftpZktqqejji8TjGq-3" value="&lt;div style=&quot;font-size: 18px;&quot; align=&quot;center&quot;&gt;&lt;font style=&quot;font-size: 18px;&quot;&gt;Basis functions,&lt;/font&gt;&lt;/div&gt;&lt;div style=&quot;font-size: 18px;&quot; align=&quot;center&quot;&gt;&lt;font style=&quot;font-size: 18px;&quot;&gt;spline model&lt;/font&gt;&lt;br&gt;&lt;/div&gt;" style="text;whiteSpace=wrap;html=1;strokeColor=default;" vertex="1" parent="1">
          <mxGeometry x="235" y="129.5" width="135" height="50.5" as="geometry" />
        </mxCell>
        <mxCell id="7LSftpZktqqejji8TjGq-4" value="&lt;font style=&quot;font-size: 18px;&quot;&gt;&lt;b&gt;Goal&lt;/b&gt;&lt;/font&gt;" style="text;whiteSpace=wrap;html=1;" vertex="1" parent="1">
          <mxGeometry x="273" y="96" width="60" height="40" as="geometry" />
        </mxCell>
        <mxCell id="7LSftpZktqqejji8TjGq-5" value="&lt;div style=&quot;font-size: 16px;&quot; align=&quot;center&quot;&gt;&lt;font style=&quot;font-size: 16px;&quot;&gt;DFTB calculations&lt;/font&gt;&lt;/div&gt;" style="text;whiteSpace=wrap;html=1;strokeColor=none;align=center;" vertex="1" parent="1">
          <mxGeometry x="199" y="199.87" width="195" height="30" as="geometry" />
        </mxCell>
        <mxCell id="7LSftpZktqqejji8TjGq-6" value="&lt;font style=&quot;font-size: 16px;&quot;&gt;Chemical environment&lt;/font&gt;" style="rounded=0;whiteSpace=wrap;html=1;strokeColor=none;fillColor=none;" vertex="1" parent="1">
          <mxGeometry x="354" y="201" width="200.28" height="30" as="geometry" />
        </mxCell>
        <mxCell id="7LSftpZktqqejji8TjGq-7" value="" style="endArrow=classic;html=1;rounded=0;entryX=0.548;entryY=0.455;entryDx=0;entryDy=0;entryPerimeter=0;exitX=0.5;exitY=0;exitDx=0;exitDy=0;strokeWidth=2.5;" edge="1" parent="1" source="7LSftpZktqqejji8TjGq-6" target="7LSftpZktqqejji8TjGq-2">
          <mxGeometry width="50" height="50" relative="1" as="geometry">
            <mxPoint x="400" y="360" as="sourcePoint" />
            <mxPoint x="450" y="310" as="targetPoint" />
          </mxGeometry>
        </mxCell>
        <mxCell id="7LSftpZktqqejji8TjGq-10" value="" style="endArrow=classic;html=1;rounded=0;fontColor=none;entryX=0;entryY=0.5;entryDx=0;entryDy=0;strokeWidth=3;" edge="1" parent="1">
          <mxGeometry width="50" height="50" relative="1" as="geometry">
            <mxPoint x="218" y="155" as="sourcePoint" />
            <mxPoint x="238" y="155" as="targetPoint" />
          </mxGeometry>
        </mxCell>
        <mxCell id="7LSftpZktqqejji8TjGq-12" value="" style="endArrow=classic;html=1;rounded=0;fontColor=none;exitX=0;exitY=0.5;exitDx=0;exitDy=0;endSize=8;startSize=8;strokeWidth=3;" edge="1" parent="1">
          <mxGeometry width="50" height="50" relative="1" as="geometry">
            <mxPoint x="396" y="149.47500000000002" as="sourcePoint" />
            <mxPoint x="366" y="150" as="targetPoint" />
          </mxGeometry>
        </mxCell>
        <mxCell id="7LSftpZktqqejji8TjGq-23" value="" style="endArrow=classic;html=1;rounded=0;fontColor=none;exitX=0;exitY=0.5;exitDx=0;exitDy=0;endSize=8;startSize=8;strokeWidth=3;entryX=0.636;entryY=0.704;entryDx=0;entryDy=0;entryPerimeter=0;" edge="1" parent="1">
          <mxGeometry width="50" height="50" relative="1" as="geometry">
            <mxPoint x="292" y="179.47500000000002" as="sourcePoint" />
            <mxPoint x="292.02" y="203.99" as="targetPoint" />
          </mxGeometry>
        </mxCell>
      </root>
    </mxGraphModel>
  </diagram>
</mxfile>
